<svg width="187" height="133" viewBox="0 0 187 133" fill="none" xmlns="http://www.w3.org/2000/svg">
<path d="M157.739 19.1336C155.037 16.5455 152.033 14.2917 148.793 12.4208C138.229 6.22197 126.431 1.89051 114.244 0.474285C113.068 0.340087 111.886 0.228731 110.704 0.148783C83.2501 -1.73285 64.7336 14.5651 53.3125 30.232C41.8914 45.899 25.4307 36.2909 8.5845 59.0647C-8.26167 81.8384 0.875234 105.026 25.6248 116.936C50.3744 128.845 82.1994 121.53 102.583 116.516C122.967 111.502 142.934 128.842 162.279 104.19C176.798 85.6845 176.786 57.8341 168.803 36.6222C166.139 29.5468 162.616 23.8476 157.739 19.1336Z" fill="#92D9E3"/>
<path opacity="0.7" d="M157.739 19.1336C155.037 16.5455 152.033 14.2917 148.793 12.4208C138.229 6.22197 126.431 1.89051 114.244 0.474285C113.068 0.340087 111.886 0.228731 110.704 0.148783C83.2501 -1.73285 64.7336 14.5651 53.3125 30.232C41.8914 45.899 25.4307 36.2909 8.5845 59.0647C-8.26167 81.8384 0.875234 105.026 25.6248 116.936C50.3744 128.845 82.1994 121.53 102.583 116.516C122.967 111.502 142.934 128.842 162.279 104.19C176.798 85.6845 176.786 57.8341 168.803 36.6222C166.139 29.5468 162.616 23.8476 157.739 19.1336Z" fill="white"/>
<path opacity="0.3" d="M165.822 30.1635C165.822 30.1635 163.407 18.3455 155.346 19.1507C151.683 19.5162 149.23 21.355 147.106 24.2074C144.379 27.8679 143.394 25.7407 139.499 26.9399C136.007 28.0163 136.544 30.9715 134.394 31.5083C132.244 32.0451 130.634 29.6267 127.678 30.1635C124.723 30.7003 123.11 33.6555 123.11 33.6555H176.838C176.695 32.6534 176.263 31.7146 175.596 30.954C174.928 30.1934 174.053 29.6438 173.077 29.3726C169.583 28.2847 167.972 30.9716 165.822 30.1635Z" stroke="black" stroke-miterlimit="10"/>
<path opacity="0.3" d="M38.896 29.3812C38.896 29.3812 37.3685 21.9203 32.2832 22.4285C29.9676 22.6627 28.4229 23.8191 27.0809 25.6208C25.3677 27.9307 24.7453 26.5887 22.2812 27.3339C20.0769 28.0135 20.4167 29.878 19.0575 30.2178C17.6984 30.5575 16.6848 29.03 14.8203 29.3612C12.9558 29.6924 11.9365 31.5654 11.9365 31.5654H45.8458C45.7578 30.9312 45.4864 30.3365 45.0648 29.8546C44.6432 29.3726 44.09 29.0245 43.4731 28.8529C41.2688 28.1934 40.2523 29.8894 38.896 29.3812Z" stroke="black" stroke-miterlimit="10"/>
<path opacity="0.3" d="M124.794 105.26C124.794 105.26 123.452 98.7074 118.984 99.1557C116.954 99.3584 115.595 100.378 114.415 101.96C112.902 103.987 112.362 102.816 110.198 103.473C108.262 104.07 108.559 105.709 107.369 106.005C106.178 106.302 105.284 104.963 103.657 105.26C102.029 105.557 101.127 107.196 101.127 107.196H130.908C130.83 106.639 130.592 106.117 130.221 105.694C129.851 105.271 129.365 104.965 128.823 104.815C126.873 104.218 125.979 105.709 124.794 105.26Z" stroke="black" stroke-miterlimit="10"/>
<path opacity="0.3" d="M53.6781 93.7592C53.6781 93.7592 52.3361 87.2092 47.8676 87.6546C45.8375 87.8573 44.4783 88.8767 43.2991 90.4585C41.7887 92.4857 41.249 91.3151 39.0847 91.9718C37.1488 92.5685 37.4458 94.2075 36.2551 94.5044C35.0645 94.8014 34.1708 93.4622 32.5433 93.7592C30.9158 94.0561 30.0135 95.6951 30.0135 95.6951H59.7941C59.7166 95.1382 59.4781 94.6161 59.1077 94.193C58.7374 93.7699 58.2515 93.4643 57.7097 93.3138C55.7624 92.7027 54.8687 94.1932 53.6781 93.7592Z" stroke="black" stroke-miterlimit="10"/>
<path d="M153.193 38.7979L159.063 43.1465L117.967 68.153L110.575 82.0697L63.3887 99.464L14.2607 131.877H43.1476L74.0446 108.595L121.011 91.4178L129.274 76.1963L168.849 49.0169L177.112 55.3242L186.463 32.4905V29.8694L153.193 38.7979Z" fill="#263238" stroke="#263238" stroke-linecap="round" stroke-linejoin="round"/>
<path d="M153.193 36.1739L159.064 40.5225L117.967 65.529L110.575 79.4457L63.3887 96.84L11.3512 131.877H40.2238L74.0447 105.974L121.011 88.7967L129.274 73.5752L168.849 46.3958L177.112 52.7002L186.463 29.8694L153.193 36.1739Z" fill="white" stroke="#263238" stroke-linecap="round" stroke-linejoin="round"/>
<path d="M118.093 86.0328L119.055 86.838" stroke="#263238" stroke-linecap="round" stroke-linejoin="round"/>
<path d="M112.314 81.1845L116.897 85.0306" stroke="#263238" stroke-linecap="round" stroke-linejoin="round"/>
<path d="M119.706 66.1829L122.75 68.3557" stroke="#263238" stroke-linecap="round" stroke-linejoin="round"/>
<path d="M72.5226 105.103L63.7883 98.9672" stroke="#263238" stroke-linecap="round" stroke-linejoin="round"/>
<path d="M153.193 38.7979V36.1739L159.064 40.5225L157.131 41.7217L153.193 38.7979Z" fill="white" stroke="#263238" stroke-linecap="round" stroke-linejoin="round"/>
<path d="M177.112 55.3242V52.7002L168.848 46.3958V49.0169L177.112 55.3242Z" fill="white" stroke="#263238" stroke-miterlimit="10"/>
<path d="M77.5623 51.5638L75.8492 54.7846C75.8492 54.7846 76.2632 55.3299 76.4202 55.2414C76.5773 55.1529 77.4196 53.6939 77.4196 53.6939L76.7457 56.1865C76.7457 56.1865 77.017 56.6177 77.1854 56.4292C77.3539 56.2408 77.9678 54.4562 78.122 54.4305C78.2762 54.4048 78.6388 53.7595 78.6388 53.7595L78.0163 55.7839C78.0163 55.7839 77.7822 56.7347 78.1962 56.6691C78.6102 56.6034 78.6388 55.684 78.6388 55.684L79.5182 54.3335L79.1899 55.7839C79.1899 55.7839 79.7609 56.1894 79.8494 55.841C79.9379 55.4927 80.2492 54.1279 80.2492 54.1279C80.2492 54.1279 81.6768 52.4147 81.8424 52.2234C82.008 52.0321 82.8503 49.9649 82.8503 49.9649L81.5769 48.1718L77.5623 51.5638Z" fill="white" stroke="#263238" stroke-linecap="round" stroke-linejoin="round"/>
<path d="M81.3399 48.5715L77.9478 49.4538C77.9478 49.4538 76.917 51.9665 76.6229 52.4005C76.3288 52.8345 76.6829 52.9173 77.2111 52.706C77.7393 52.4947 78.6559 51.3012 78.6559 51.3012C78.6559 51.3012 80.2691 51.541 80.8031 50.6673" fill="white"/>
<path d="M81.3399 48.5715L77.9478 49.4538C77.9478 49.4538 76.917 51.9665 76.6229 52.4005C76.3288 52.8345 76.6829 52.9173 77.2111 52.706C77.7393 52.4947 78.6559 51.3012 78.6559 51.3012C78.6559 51.3012 80.2691 51.541 80.8031 50.6673" stroke="#263238" stroke-linecap="round" stroke-linejoin="round"/>
<path d="M78.279 52.7459L79.7352 53.5854" stroke="#263238" stroke-linecap="round" stroke-linejoin="round"/>
<path d="M102.161 20.7211L109.216 38.7265L109.839 40.6766C109.839 40.6766 103.046 43.5148 101.635 43.7404C100.977 43.8301 100.326 43.9685 99.688 44.1544L92.5812 26.3317L94.9911 22.4942L100.764 20.0929L102.161 20.7211Z" fill="white" stroke="#263238" stroke-linecap="round" stroke-linejoin="round"/>
<path d="M102.201 30.1721L105.521 40.6253" stroke="#263238" stroke-linecap="round" stroke-linejoin="round"/>
<path d="M100.345 80.4793C100.246 81.4172 100.098 82.3492 99.902 83.2718C99.685 84.0627 98.9941 86.227 99.0968 86.7923C99.1996 87.3577 99.7507 89.779 100.088 89.9589C100.425 90.1387 100.927 90.1816 101.201 89.9589C101.475 89.7361 102.869 87.0179 103 86.07C103.131 85.122 103.043 82.0297 103.063 81.787C103.083 81.5443 100.345 80.4793 100.345 80.4793Z" fill="#263238" stroke="#263238" stroke-linecap="round" stroke-linejoin="round"/>
<path d="M130.111 62.8108C130.111 62.8108 132.395 63.8673 132.698 63.893C133 63.9187 135.604 64.1785 135.604 64.1785C135.604 64.1785 137.763 63.7559 138.1 63.9358C138.437 64.1157 138.32 64.9151 138.32 64.9151C138.32 64.9151 133.977 67.2222 133.36 67.3707C132.743 67.5192 132.004 67.2565 131.59 67.3707L131.176 67.4878L131.524 68.1245L128.929 69.5207C128.929 69.5207 127.787 68.2073 127.741 67.4478C127.695 66.6883 127.667 65.3691 127.667 65.3691L127.296 63.8187L130.111 62.8108Z" fill="#263238" stroke="#263238" stroke-linecap="round" stroke-linejoin="round"/>
<path d="M101.564 20.2985C101.564 20.2985 106.418 32.6876 107.337 34.5949C108.256 36.5022 109.073 38.8036 109.781 39.4003C110.489 39.9971 107.957 33.0845 107.717 31.7254C107.477 30.3662 107.514 27.825 107.514 27.825L128.849 20.5069L128.049 17.8487L110.232 19.9816C110.232 19.9816 106.606 19.5818 105.847 19.6075C105.087 19.6332 101.564 20.2985 101.564 20.2985Z" fill="#92B7E3" stroke="#263238" stroke-linecap="round" stroke-linejoin="round"/>
<path d="M103.183 20.0044C102.306 20.1586 101.564 20.29 101.564 20.29C101.564 20.29 104.961 28.9386 106.609 32.896C106.472 30.6184 106.136 28.357 105.607 26.1376C105.017 24.0135 104.204 21.9577 103.183 20.0044Z" fill="#92B7E3" stroke="#263238" stroke-linecap="round" stroke-linejoin="round"/>
<path d="M108.168 22.3029L107.515 27.825L109.216 22.5713" stroke="#263238" stroke-linecap="round" stroke-linejoin="round"/>
<path d="M128.05 17.8487L129.36 17.6488L129.877 19.9702L128.849 20.5041L128.05 17.8487Z" fill="white" stroke="#263238" stroke-linecap="round" stroke-linejoin="round"/>
<path d="M134.06 16.9807C134.06 16.9807 135.159 17.1634 135.136 17.4289C135.113 17.6945 134.722 19.1421 134.722 19.1421C134.195 19.2735 133.644 19.2735 133.118 19.1421C132.424 18.9051 132.198 18.394 132.372 17.9172C132.546 17.4404 134.06 16.9807 134.06 16.9807Z" fill="white" stroke="#263238" stroke-linecap="round" stroke-linejoin="round"/>
<path d="M133.257 17.4918L134.165 17.8372L134.068 18.9451" stroke="#263238" stroke-linecap="round" stroke-linejoin="round"/>
<path d="M132.923 17.7316L133.463 18.2227C133.495 18.355 133.495 18.493 133.463 18.6253" stroke="#263238" stroke-linecap="round" stroke-linejoin="round"/>
<path d="M129.363 17.6488L132.789 16.8693C132.789 16.8693 136.076 15.5016 136.193 15.6901C136.26 15.7732 136.292 15.8789 136.283 15.9854C136.274 16.0918 136.224 16.1906 136.144 16.2611C135.95 16.4239 133.555 17.289 133.272 17.4889C132.989 17.6888 132.812 18.1628 133.015 18.4055C133.135 18.5735 133.293 18.7106 133.476 18.8054C133.659 18.9003 133.862 18.9501 134.068 18.9508C134.565 18.9023 135.782 18.7395 135.813 18.9223C135.844 19.105 135.956 19.3363 135.528 19.4933C135.099 19.6504 134.448 19.579 134.131 19.6418C133.814 19.7046 132.532 20.0844 132.044 20.0415C131.597 19.9732 131.158 19.8613 130.733 19.7075L129.863 19.993L129.363 17.6488Z" fill="white" stroke="#263238" stroke-linecap="round" stroke-linejoin="round"/>
<path d="M108.805 38.7636C108.805 38.7636 112.374 45.702 112.654 45.7077C112.934 45.7134 116.166 43.2778 116.252 43.1665C116.337 43.0551 111.946 40.5453 110.707 39.2547C109.467 37.9641 108.374 36.5336 108.374 36.5336L108.805 38.7636Z" fill="#92B7E3" stroke="#263238" stroke-linecap="round" stroke-linejoin="round"/>
<path d="M109.838 40.6767L111.551 43.6633C111.551 43.6633 120.508 42.6325 123.544 42.4298C126.579 42.2271 127.65 42.5497 127.65 42.5497L130.665 62.8022L125.848 64.938L121.345 49.7879C121.345 49.7879 111.317 52.5204 109.853 52.686C109.117 52.7517 108.389 52.8826 107.677 53.0772C107.677 53.0772 104.913 71.7935 104.702 74.2662C104.49 76.7389 104.507 81.2617 104.507 81.2617L103.12 82.5922C103.12 82.5922 100.125 81.0018 99.979 80.7563C99.8334 80.5107 98.3144 57.5485 98.3144 57.5485L97.7433 48.5772L99.6849 44.1658L109.838 40.6767Z" fill="#92B7E3" stroke="#263238" stroke-linecap="round" stroke-linejoin="round"/>
<path d="M100.796 44.7654L110.261 41.5104L109.838 40.6767L100.662 43.7946L100.796 44.7654Z" fill="#263238" stroke="#263238" stroke-linecap="round" stroke-linejoin="round"/>
<path d="M104.773 42.3812L105.216 43.4405L107.337 42.6896L106.937 41.6731L104.773 42.3812Z" fill="white" stroke="#263238" stroke-linecap="round" stroke-linejoin="round"/>
<path d="M102.766 61.9885L102.746 60.8378" stroke="#263238" stroke-linecap="round" stroke-linejoin="round"/>
<path d="M103.12 82.5808L102.786 63.1991" stroke="#263238" stroke-linecap="round" stroke-linejoin="round"/>
<path d="M107.677 53.0657C107.677 53.0657 108.234 49.2168 109.376 46.9326" stroke="#263238" stroke-linecap="round" stroke-linejoin="round"/>
<path d="M109.947 45.1423C109.947 45.1423 108.288 47.8548 108.034 48.4459" stroke="#263238" stroke-linecap="round" stroke-linejoin="round"/>
<path d="M124.383 48.8171L125.209 48.5572" stroke="#263238" stroke-linecap="round" stroke-linejoin="round"/>
<path d="M121.345 49.7764L123.532 49.0854" stroke="#263238" stroke-linecap="round" stroke-linejoin="round"/>
<path d="M99.3826 27.2625L101.807 28.7958L102.569 25.2353L99.8337 24.3901L99.3826 27.2625Z" fill="#263238" stroke="#263238" stroke-linecap="round" stroke-linejoin="round"/>
<path d="M100.473 25.8035L98.4063 30.3434L95.6623 23.011L101.564 20.2985L104.814 26.4488L100.473 25.8035Z" fill="white" stroke="#263238" stroke-linecap="round" stroke-linejoin="round"/>
<path d="M82.1966 47.398L81.0773 48.5686L82.859 50.5702L83.4357 49.6651L82.1966 47.398Z" stroke="#263238" stroke-linecap="round" stroke-linejoin="round"/>
<path d="M94.991 22.4942L88.2468 27.8022L87.5673 41.6846L81.8567 47.6807L83.5299 50.2219L91.8102 43.6804L92.9352 35.7742L94.5028 40.2855L92.6896 51.3126C93.9385 51.8058 95.2162 52.2225 96.5157 52.5604C98.4145 53.0286 100.841 52.726 100.841 52.726L101.258 39.486L95.9418 22.2829L94.991 22.4942Z" fill="#92B7E3" stroke="#263238" stroke-linecap="round" stroke-linejoin="round"/>
<path d="M95.2594 42.3955L100.119 42.8638V44.734L95.1652 43.9859" fill="#92B7E3"/>
<path d="M95.2594 42.3955L100.119 42.8638V44.734L95.1652 43.9859" stroke="#263238" stroke-linecap="round" stroke-linejoin="round"/>
<path d="M95.9303 22.2687L94.9909 22.4942L93.7603 23.4622C94.3272 25.5882 95.0624 27.6658 95.9588 29.6753C96.9924 31.9595 98.9483 34.6035 100.242 36.2424L95.9303 22.2687Z" fill="#92B7E3" stroke="#263238" stroke-linecap="round" stroke-linejoin="round"/>
<path d="M101.806 28.7958L97.0723 32.7932L88.2866 31.6311L84.1264 34.9004L83.2299 37.019L86.8075 37.5901L90.1825 33.9468C90.1825 33.9468 96.9695 35.1945 97.3378 35.0717C97.7061 34.949 101.335 30.0036 101.335 30.0036L101.806 28.7958Z" fill="#263238" stroke="#263238" stroke-linecap="round" stroke-linejoin="round"/>
<path d="M91.8387 13.3802C91.8387 13.3802 90.6195 13.7314 90.057 13.0033C89.4945 12.2752 89.1233 11.3329 89.6201 11.49C90.0394 11.6496 90.4405 11.8535 90.8165 12.0981C90.8165 12.0981 90.6252 10.385 91.0278 10.2993C91.4304 10.2137 91.5988 10.9732 91.5988 10.9732C91.5988 10.9732 93.352 9.70542 95.3107 9.47414C97.2694 9.24286 100.165 10.345 100.587 10.7761C101.01 11.2073 100.727 15.099 100.644 15.376C100.562 15.653 100.396 16.3182 100.093 16.5181C99.7907 16.718 99.0883 16.9978 98.7199 16.6837C98.3516 16.3696 98.3887 15.9185 97.7177 15.8043C97.0467 15.6901 95.4021 15.6615 95.2936 14.9706C95.1851 14.2796 95.9103 13.0404 95.2308 13.0375C94.5512 13.0347 92.8552 13.6286 92.4012 13.6457C91.9472 13.6628 91.8387 13.3802 91.8387 13.3802Z" fill="#263238" stroke="#263238" stroke-linecap="round" stroke-linejoin="round"/>
<path d="M91.8389 13.3802V16.8408L92.5299 17.7516L92.2444 21.018L93.672 20.9124C93.672 20.9124 94.6228 23.7163 94.8998 23.7962C95.1767 23.8762 96.3759 23.1281 96.3759 23.1281C96.3759 23.1281 100.273 25.9577 100.456 25.8035C100.639 25.6493 101.396 20.7811 101.524 20.6212C101.653 20.4613 100.953 17.9086 100.953 17.9086C100.953 17.9086 101.507 16.7665 101.353 15.9099C101.199 15.0534 100.924 14.9648 100.924 14.9648C100.924 14.9648 100.328 14.6308 100.131 14.9648C99.9336 15.2989 99.334 16.3154 99.334 16.3154L98.4632 15.219C98.4632 15.219 95.9876 15.0077 96.0162 14.6679C96.0447 14.3281 96.5872 12.6207 96.4331 12.4351C96.2789 12.2495 93.3436 12.3837 91.8389 13.3802Z" fill="white" stroke="#263238" stroke-linecap="round" stroke-linejoin="round"/>
<path d="M95.1936 17.4832C95.3078 17.7687 95.2849 18.0543 95.1422 18.1057C94.9994 18.157 94.791 17.9772 94.6739 17.6916C94.5568 17.4061 94.5825 17.1206 94.7253 17.072C94.8681 17.0235 95.0765 17.1977 95.1936 17.4832Z" fill="#263238"/>
<path d="M93.152 17.1549C93.152 17.1549 93.98 18.9051 94.4825 19.0422C94.9851 19.1792 96.4098 18.8794 96.5926 18.3826C96.7753 17.8858 96.2728 16.1184 96.2728 16.1184L93.152 17.1549Z" stroke="#263238" stroke-linecap="round" stroke-linejoin="round"/>
<path d="M96.2729 16.1184L100.156 14.9449" stroke="#263238" stroke-linecap="round" stroke-linejoin="round"/>
<path d="M93.1519 17.1548L90.6878 18.1571C90.6878 18.1571 91.2446 19.2792 92.1897 19.125" stroke="#263238" stroke-linecap="round" stroke-linejoin="round"/>
<path d="M95.385 20.5641C95.385 20.5641 96.7498 20.4013 97.0439 19.1678" stroke="#263238" stroke-linecap="round" stroke-linejoin="round"/>
<path d="M96.393 23.1281C96.393 23.1281 98.4516 21.7147 98.7029 21.5034C98.9542 21.2921 99.2083 20.5184 99.2083 20.5184C99.2083 20.5184 98.9228 22.874 98.7286 23.3736C98.5344 23.8733 98.3146 24.4101 98.3146 24.4101L96.393 23.1281Z" fill="#263238" stroke="#263238" stroke-linecap="round" stroke-linejoin="round"/>
<path d="M100.979 17.9086C100.979 17.9086 100.662 18.7795 100.145 18.828" stroke="#263238" stroke-linecap="round" stroke-linejoin="round"/>
<path d="M93.917 16.3811C94.0857 16.1266 94.3296 15.9312 94.6148 15.8222C94.8999 15.7131 95.212 15.6959 95.5074 15.7729" stroke="#263238" stroke-linecap="round" stroke-linejoin="round"/>
<path d="M69.9135 57.3287L70.5445 55.6698L71.858 54.4277C71.858 54.4277 72.3148 53.5968 72.5918 53.7653C72.8687 53.9338 72.706 54.1136 72.5918 54.442C72.3834 54.7922 72.1278 55.1122 71.8323 55.3928C71.8323 55.3928 74.402 53.6796 74.5448 53.6425C74.6876 53.6054 75.1158 53.8824 74.8874 54.1565C74.659 54.4306 72.9287 55.5841 72.9287 55.5841L75.744 54.3249C75.744 54.3249 75.9696 55.0702 75.6641 55.2358C75.3585 55.4014 73.771 56.4778 73.771 56.4778C73.771 56.4778 75.0073 56.1466 75.3585 55.9838C75.7097 55.8211 75.8582 56.3665 75.6012 56.5378C75.3443 56.7091 73.7624 57.6799 73.7624 57.6799C73.7624 57.6799 75.2929 57.3258 75.2272 57.5143C75.1615 57.7027 75.1987 57.8512 74.7561 57.9569C74.3135 58.0625 72.5489 58.8791 72.5489 58.8791L70.1191 59.5901L69.9135 57.3287Z" fill="white" stroke="#263238" stroke-linecap="round" stroke-linejoin="round"/>
<path d="M69.0251 57.9111L69.9159 57.3287L70.9752 59.6386L69.7075 60.4267L69.0251 57.9111Z" fill="white" stroke="#263238" stroke-linecap="round" stroke-linejoin="round"/>
<path d="M35.71 79.0802C35.71 79.0802 35.9584 82.1125 35.9327 82.4152C35.907 82.7179 37.2176 84.1084 37.5545 84.3397C37.8915 84.571 39.0964 84.2169 39.0964 84.2169C39.0964 84.2169 40.4212 82.4438 40.3127 81.9327C40.2587 81.6364 40.1008 81.3691 39.8673 81.1789L38.2312 79.6456L37.7087 78.9974L35.71 79.0802Z" fill="white" stroke="#263238" stroke-linecap="round" stroke-linejoin="round"/>
<path d="M38.0169 82.5437L37.3402 83.3003C37.3402 83.3003 37.6543 83.7886 37.9683 83.7115L38.2796 83.6372" stroke="#263238" stroke-linecap="round" stroke-linejoin="round"/>
<path d="M37.7083 78.9974C37.7083 78.9974 39.4214 80.5193 39.7612 80.6506C39.9039 80.7153 40.0232 80.8224 40.1029 80.9572C40.1826 81.0921 40.2188 81.2483 40.2066 81.4044C39.6754 81.9592 39.1027 82.4728 38.4935 82.9406C38.168 83.169 37.8767 82.9891 38.0166 82.5437C38.1565 82.0983 38.4706 81.4016 38.4706 81.4016C38.4706 81.4016 37.8025 81.4444 37.6454 80.9219" fill="white"/>
<path d="M37.7083 78.9974C37.7083 78.9974 39.4214 80.5193 39.7612 80.6506C39.9039 80.7153 40.0232 80.8224 40.1029 80.9572C40.1826 81.0921 40.2188 81.2483 40.2066 81.4044C39.6754 81.9592 39.1027 82.4728 38.4935 82.9406C38.168 83.169 37.8767 82.9891 38.0166 82.5437C38.1565 82.0983 38.4706 81.4016 38.4706 81.4016C38.4706 81.4016 37.8025 81.4444 37.6454 80.9219" stroke="#263238" stroke-linecap="round" stroke-linejoin="round"/>
<path d="M35.5756 77.6926L35.7126 79.0802C35.7126 79.0802 36.4379 79.5514 36.9518 79.4942C37.3634 79.4098 37.7569 79.2532 38.1139 79.0317L38.5308 78.0752L35.5756 77.6926Z" fill="white" stroke="#263238" stroke-linecap="round" stroke-linejoin="round"/>
<path d="M64.3197 98.5532C64.3197 98.5532 63.3603 102.002 63.3489 102.719C63.3809 103.479 63.4533 104.237 63.5659 104.989C63.5659 104.989 63.8514 105.275 64.5738 105.177C65.0895 105.139 65.5909 104.99 66.0443 104.741C66.2099 104.601 66.1899 103.627 66.1899 103.627C66.1899 103.627 66.898 103.738 67.4005 103.833C67.9031 103.927 69.5506 103.262 70.1901 102.945C70.8297 102.628 72.0261 101.823 72.1888 101.172C72.3516 100.521 71.9033 100.226 71.7063 100.209C71.5093 100.192 68.9966 100.181 68.4427 100.081C67.8888 99.9809 66.9437 99.0329 66.9066 98.8759C66.8694 98.7188 64.3197 98.5532 64.3197 98.5532Z" fill="#263238" stroke="#263238" stroke-linecap="round" stroke-linejoin="round"/>
<path d="M50.8051 112.293L50.925 113.889C50.925 113.889 52.0671 115.371 52.4212 115.554C52.7752 115.736 53.529 115.751 53.5918 116.216C53.6547 116.681 53.7889 116.898 53.4177 117.073C53.0465 117.247 51.5646 117.784 50.9993 117.786C50.4339 117.789 49.4003 117.341 49.4003 117.341L49.2461 117.943C48.9148 118.07 48.5609 118.126 48.2068 118.109C47.7951 118.103 47.3868 118.034 46.9961 117.903C46.9961 117.903 46.7506 116.604 46.8619 115.905C46.9733 115.205 47.433 113.335 47.433 113.335L47.8327 111.679L50.8051 112.293Z" fill="#263238" stroke="#263238" stroke-linecap="round" stroke-linejoin="round"/>
<path d="M44.7897 79.7055L46.0889 82.4181L49.7008 95.5324L47.5251 111.976C47.5251 111.976 48.3388 112.607 48.9984 112.664C49.658 112.721 51.2969 112.604 51.2969 112.604L55.1316 95.2326L55.774 82.3838L65.7903 82.7835L63.7916 98.9701C63.7916 98.9701 65.0394 99.2814 65.5048 99.3185C66.2132 99.2884 66.9189 99.213 67.6177 99.0929C67.6177 99.0929 72.3175 78.9032 72.4574 78.4549C72.5207 78.3201 72.5511 78.1721 72.5462 78.0232C72.5412 77.8743 72.501 77.7287 72.4289 77.5983C72.3004 77.33 60.805 74.5603 60.805 74.5603C60.805 74.5603 47.3224 79.9225 44.7897 79.7055Z" fill="#92B7E3" stroke="#263238" stroke-linecap="round" stroke-linejoin="round"/>
<path d="M55.7826 82.381L50.0378 82.0012L55.5285 86.0414L55.7826 82.381Z" fill="#263238" stroke="#263238" stroke-linecap="round" stroke-linejoin="round"/>
<path d="M44.8069 53.08C44.8069 53.08 41.3806 55.1244 41.155 55.824C40.9295 56.5235 36.2182 67.9875 36.1783 68.4643C36.1383 68.9411 35.2817 78.2151 35.2817 78.2151C35.7531 78.3996 36.2464 78.5225 36.7493 78.5806C37.4631 78.6405 38.531 78.0752 38.531 78.0752L40.6211 68.3672L44.3701 63.7788L45.4636 67.8276L42.8482 80.1824C42.8482 80.1824 47.2339 81.4558 51.8395 80.1824C56.4451 78.9089 61.6759 74.4918 61.6759 74.4918C61.6759 74.4918 58.9891 69.4665 58.2496 68.4443C57.5101 67.4221 56.8705 66.3485 56.8705 66.3485L56.9362 64.1956C56.9362 64.1956 60.8879 68.43 61.319 68.2873C61.7502 68.1445 70.2047 60.4181 70.2047 60.4181L69.0397 57.9197L61.3447 61.6973C61.3447 61.6973 57.4815 52.9144 56.6706 52.6061C55.8597 52.2977 54.078 52.0835 54.078 52.0835C54.078 52.0835 48.5416 50.7644 44.8069 53.08Z" fill="#92B7E3" stroke="#263238" stroke-linecap="round" stroke-linejoin="round"/>
<path d="M50.4145 37.9813C50.7571 38.3744 51.0505 38.8078 51.2883 39.2719C51.7308 40.1056 51.8422 41.005 52.516 41.3448C53.1899 41.6846 54.1293 41.6303 54.1036 41.9473C54.0779 42.2642 53.5468 42.978 53.5468 42.978C53.5468 42.978 54.3263 45.899 54.1435 46.4044C53.9608 46.9097 51.6623 48.0176 51.6623 48.0176V50.6416L48.2674 50.9129C47.698 49.4712 47.2304 47.9914 46.8683 46.4843C46.4685 44.577 48.3416 43.4748 48.2959 41.2249C48.2502 38.9749 48.6414 37.7414 49.1182 37.6415C49.5951 37.5416 50.4145 37.9813 50.4145 37.9813Z" fill="white" stroke="#263238" stroke-linecap="round" stroke-linejoin="round"/>
<path d="M51.8734 41.4076C51.9876 41.6931 51.9734 41.9787 51.842 42.0215C51.7107 42.0643 51.5108 41.8845 51.3966 41.5989C51.2824 41.3134 51.2967 41.0279 51.428 40.9822C51.5594 40.9365 51.7592 41.1192 51.8734 41.4076Z" fill="#263238"/>
<path d="M50.9282 40.7395C50.9282 40.7395 50.8826 40.1684 51.4336 40.3141" stroke="#263238" stroke-linecap="round" stroke-linejoin="round"/>
<path d="M53.8181 44.1716C53.7051 44.2925 53.5583 44.3765 53.3968 44.4127C53.2354 44.4489 53.0667 44.4355 52.913 44.3743" stroke="#263238" stroke-linecap="round" stroke-linejoin="round"/>
<path d="M49.9488 39.0634C49.9488 39.0634 50.6968 40.7195 50.3171 41.8588C50.0657 42.5871 49.7232 43.2807 49.2977 43.9231C49.2977 43.9231 48.5468 45.031 48.6724 45.7448C48.7981 46.4586 49.5519 49.1426 49.7746 49.3025L49.9944 49.4624L50.4656 49.9706C50.4656 49.9706 47.9929 51.4925 45.2975 51.8237C42.6021 52.1549 40.829 51.4868 40.4749 51.2698C40.2436 51.1249 40.0223 50.9646 39.8125 50.7901C39.8125 50.7901 41.1859 48.4259 41.2116 45.9361C41.2373 43.4463 40.4778 41.9387 41.2116 39.7573C41.9454 37.5758 47.5332 36.4594 47.5332 36.4594C47.5332 36.4594 47.7902 35.6371 48.8609 35.7285C49.9316 35.8198 51.0024 38.067 51.0024 38.067L49.9488 39.0634Z" fill="#263238" stroke="#263238" stroke-linecap="round" stroke-linejoin="round"/>
<path d="M49.6491 44.7511C49.6491 44.7511 48.8154 43.5548 48.3586 44.4999C47.9017 45.445 49.3636 46.9726 50.106 46.5214" fill="white"/>
<path d="M49.6491 44.7511C49.6491 44.7511 48.8154 43.5548 48.3586 44.4999C47.9017 45.445 49.3636 46.9726 50.106 46.5214" stroke="#263238" stroke-linecap="round" stroke-linejoin="round"/>
<path d="M48.5183 50.3418C48.5183 50.3418 51.2365 50.0963 51.7105 50.1362C52.1845 50.1762 53.3209 50.9329 53.3209 50.9329L53.2438 51.8266C53.2438 51.8266 50.6084 51.1213 49.1436 51.4154C47.6789 51.7095 45.5859 52.3576 45.5859 52.3576L46.0057 50.9528C46.0057 50.9528 47.4362 50.3589 48.5183 50.3418Z" fill="white" stroke="#263238" stroke-linecap="round" stroke-linejoin="round"/>
<path d="M44.8067 53.08L45.2978 51.8237C45.2978 51.8237 48.8812 50.9471 50.2774 50.793C51.495 50.6873 52.7183 50.9164 53.8151 51.4554C54.1842 51.6561 54.4742 51.9762 54.6374 52.3634C54.6374 52.3634 51.8164 51.7038 49.3323 52.0293C47.7941 52.2366 46.2789 52.5884 44.8067 53.08Z" fill="#92B7E3" stroke="#263238" stroke-linecap="round" stroke-linejoin="round"/>
<path d="M56.9215 64.1871L53.3296 60.638C53.3296 60.638 52.5244 59.5501 52.9784 57.7313" stroke="#263238" stroke-linecap="round" stroke-linejoin="round"/>
<path d="M44.3698 63.7702L42.2569 58.3766" stroke="#263238" stroke-linecap="round" stroke-linejoin="round"/>
</svg>
