<svg width="112" height="104" viewBox="0 0 112 104" fill="none" xmlns="http://www.w3.org/2000/svg">
<path d="M102.152 21.0133C101.766 20.3724 101.365 19.7439 100.949 19.1277C95.3756 10.9397 86.0869 5.33402 77.0815 2.79589C73.1524 1.69954 69.1064 1.07588 65.0295 0.938158C38.4755 -0.0139318 28.7224 21.8795 20.1675 27.5224C11.6126 33.1652 -1.51693 42.8092 0.143425 63.0632C1.39275 78.4638 10.1543 93.1887 26.1517 99.8881C27.9589 100.647 29.8136 101.287 31.704 101.804C35.533 102.843 39.4667 103.448 43.431 103.608C55.5272 104.147 65.3499 101.23 74.9568 93.8876C77.1907 92.1808 79.413 90.2558 82.3111 90.0444C84.4173 89.8912 86.4143 90.6482 84.2129 92.6847C81.6237 95.0766 84.61 99.7836 91.1794 96.514C102.152 91.0523 106.666 79.2696 108.793 67.2895C111.394 52.5832 110.128 34.3054 102.152 21.0133Z" fill="#4CA9C7"/>
<path opacity="0.7" d="M102.152 21.0133C101.766 20.3724 101.365 19.7439 100.949 19.1277C95.3756 10.9397 86.0869 5.33402 77.0815 2.79589C73.1524 1.69954 69.1064 1.07588 65.0295 0.938158C38.4755 -0.0139318 28.7224 21.8795 20.1675 27.5224C11.6126 33.1652 -1.51693 42.8092 0.143425 63.0632C1.39275 78.4638 10.1543 93.1887 26.1517 99.8881C27.9589 100.647 29.8136 101.287 31.704 101.804C35.533 102.843 39.4667 103.448 43.431 103.608C55.5272 104.147 65.3499 101.23 74.9568 93.8876C77.1907 92.1808 79.413 90.2558 82.3111 90.0444C84.4173 89.8912 86.4143 90.6482 84.2129 92.6847C81.6237 95.0766 84.61 99.7836 91.1794 96.514C102.152 91.0523 106.666 79.2696 108.793 67.2895C111.394 52.5832 110.128 34.3054 102.152 21.0133Z" fill="white"/>
<path d="M105.136 27.9218H63.9033C63.8824 27.9216 63.862 27.9159 63.8441 27.9053C63.8261 27.8947 63.8113 27.8795 63.8011 27.8614C63.7909 27.8437 63.7855 27.8237 63.7855 27.8033C63.7855 27.7829 63.7909 27.7629 63.8011 27.7453C63.8522 27.6617 65.0597 25.6692 66.5087 25.2559C67.2472 25.0446 68.046 25.5253 68.817 25.9874C69.5879 26.4495 70.273 26.8745 70.7374 26.4959C70.9696 26.3078 71.2251 26.057 71.4921 25.7993C72.3954 24.9053 73.5194 23.7929 75.268 23.635C76.4081 23.5282 77.1791 24.0321 77.8572 24.4757C78.5352 24.9192 79.0182 25.242 79.6894 24.8681C80.0284 24.673 80.3581 24.1297 80.7761 23.4423C81.9651 21.4801 83.9552 18.1988 89.3078 18.9628C95.8865 19.8917 97.4958 24.3572 97.7071 25.0539C98.0828 25.0128 98.4492 24.91 98.7915 24.7497C99.5323 24.4524 100.371 24.1157 101.727 24.6568C103.768 25.4742 105.175 27.657 105.233 27.7499C105.244 27.7678 105.25 27.7882 105.25 27.8091C105.25 27.83 105.244 27.8505 105.233 27.8683C105.223 27.8845 105.208 27.8979 105.191 27.9072C105.174 27.9165 105.155 27.9215 105.136 27.9218ZM64.1146 27.6895H104.915C104.532 27.1485 103.29 25.523 101.639 24.8658C100.371 24.3595 99.6112 24.6637 98.8774 24.9587C98.4838 25.1473 98.057 25.257 97.6211 25.2814C97.5947 25.2816 97.569 25.2727 97.5483 25.2562C97.5276 25.2397 97.5132 25.2167 97.5074 25.1909C97.5074 25.1421 96.2186 20.1773 89.2753 19.1858C84.0713 18.4427 82.2089 21.5079 80.9735 23.5538C80.5393 24.2713 80.1956 24.8379 79.8124 25.0632C79.0322 25.509 78.4029 25.098 77.7387 24.6637C77.0746 24.2295 76.364 23.7604 75.2981 23.858C73.6331 24.0089 72.5417 25.0887 71.6663 25.9479C71.3922 26.2173 71.1345 26.4727 70.8907 26.6678C70.3032 27.1322 69.5299 26.6678 68.7078 26.1778C67.9787 25.7389 67.224 25.2861 66.5854 25.4812C65.4568 25.7993 64.4466 27.1926 64.1146 27.6895Z" fill="#263238"/>
<path d="M34.5533 42.433H4.9991C4.97853 42.4328 4.95835 42.4274 4.94047 42.4172C4.92259 42.4071 4.9076 42.3925 4.89693 42.3749C4.88675 42.3569 4.88141 42.3365 4.88141 42.3157C4.88141 42.295 4.88675 42.2746 4.89693 42.2565C4.93408 42.1961 5.80489 40.7587 6.85684 40.4592C7.40022 40.3036 7.97844 40.6496 8.53809 40.9863C9.09773 41.323 9.56216 41.604 9.87333 41.3532C10.0405 41.2185 10.2217 41.0397 10.4144 40.8516C11.0646 40.206 11.875 39.4049 13.1383 39.2888C13.9696 39.2145 14.5502 39.593 15.0169 39.8972C15.4837 40.2014 15.8413 40.4383 16.2941 40.1782C16.5264 40.0435 16.7771 39.6371 17.0628 39.168C17.9197 37.7538 19.3524 35.3899 23.2119 35.9425C27.8725 36.6067 29.0684 39.7277 29.2495 40.3059C29.5059 40.2729 29.7557 40.2009 29.9903 40.0922C30.5267 39.8763 31.1351 39.6278 32.1174 40.0249C33.592 40.6147 34.6044 42.1892 34.6486 42.2542C34.6587 42.2723 34.6641 42.2927 34.6641 42.3134C34.6641 42.3341 34.6587 42.3545 34.6486 42.3726C34.6393 42.3901 34.6257 42.4048 34.609 42.4154C34.5923 42.426 34.5731 42.4321 34.5533 42.433ZM5.21274 42.2008H34.3327C34.0216 41.7735 33.1554 40.689 32.0361 40.2409C31.1398 39.8809 30.601 40.0992 30.0809 40.3059C29.7951 40.4431 29.4848 40.522 29.1682 40.5381C29.1421 40.5383 29.1167 40.5298 29.096 40.5138C29.0754 40.4977 29.0607 40.4752 29.0545 40.4499C29.0545 40.4127 28.1256 36.876 23.1817 36.1701C19.4662 35.6383 18.1426 37.8328 17.2625 39.2865C16.949 39.8043 16.7005 40.2153 16.4126 40.3779C15.8367 40.7076 15.3769 40.4081 14.8915 40.0899C14.4062 39.7718 13.9139 39.449 13.1615 39.5187C11.9819 39.6255 11.2039 40.3965 10.5793 41.0141C10.3842 41.2069 10.1984 41.3903 10.022 41.532C9.58306 41.8826 9.01878 41.532 8.41966 41.1837C7.90413 40.8725 7.37004 40.552 6.92418 40.6798C6.16715 40.8864 5.48443 41.8014 5.21274 42.2008Z" fill="#263238"/>
<path d="M45.8693 10.9699H27.1433C27.1226 10.9705 27.1022 10.9653 27.0841 10.9551C27.0661 10.9449 27.0513 10.9299 27.0411 10.9119C27.0302 10.8945 27.0244 10.8744 27.0244 10.8538C27.0244 10.8333 27.0302 10.8132 27.0411 10.7958C27.0644 10.7563 27.6263 9.82974 28.3067 9.63468C28.669 9.5325 29.0591 9.76704 29.4051 9.97604C29.7511 10.185 30.0298 10.3499 30.2039 10.2083C30.3224 10.109 30.4355 10.0036 30.543 9.89244C30.961 9.47909 31.4718 8.96357 32.2962 8.89158C32.736 8.87057 33.1684 9.01003 33.513 9.28403C33.8404 9.49999 34.0239 9.60449 34.277 9.46052C34.4711 9.28368 34.6289 9.07072 34.7414 8.83353C35.2895 7.9302 36.2067 6.41847 38.6891 6.77144C41.5826 7.18479 42.3884 9.09361 42.5393 9.5325C42.6853 9.50822 42.8275 9.46448 42.9619 9.40246C43.1747 9.29473 43.4086 9.23514 43.647 9.22792C43.8853 9.22069 44.1224 9.26601 44.3413 9.36066C45.2887 9.73918 45.9389 10.754 45.9668 10.7888C45.9781 10.8063 45.9844 10.8266 45.9851 10.8474C45.9859 10.8682 45.981 10.8888 45.971 10.9071C45.961 10.9254 45.9463 10.9406 45.9284 10.9513C45.9105 10.9619 45.8901 10.9676 45.8693 10.9676V10.9699ZM27.3593 10.7377H45.658C45.2995 10.2388 44.82 9.83925 44.2647 9.57662C44.0732 9.49251 43.8652 9.45258 43.6561 9.45982C43.4471 9.46706 43.2424 9.52126 43.0571 9.61842C42.8708 9.70734 42.6688 9.75863 42.4627 9.76936C42.4368 9.76949 42.4117 9.76083 42.3915 9.74479C42.3712 9.72876 42.357 9.7063 42.3512 9.68112C42.328 9.58823 41.7707 7.44487 38.6636 7.00134C36.3414 6.66694 35.5078 8.04399 34.9481 8.95428C34.8164 9.22436 34.6269 9.46219 34.3931 9.65093C34.0053 9.88315 33.6965 9.66487 33.3853 9.46748C33.0848 9.22223 32.7047 9.0958 32.3171 9.11219C31.5833 9.17721 31.098 9.66022 30.7055 10.0411C30.5801 10.1641 30.4733 10.2733 30.3502 10.3731C30.0483 10.6053 29.6536 10.3731 29.2867 10.1548C28.9662 9.96443 28.6365 9.76472 28.3717 9.84135C27.9445 9.98068 27.545 10.4707 27.3593 10.7377Z" fill="#263238"/>
<path d="M68.9841 14.5252C67.9051 14.5256 66.8501 14.206 65.9528 13.6068C65.0554 13.0076 64.3559 12.1557 63.9427 11.1589C63.5296 10.1621 63.4213 9.06513 63.6317 8.00679C63.8421 6.94845 64.3617 5.97629 65.1247 5.21328C65.8877 4.45028 66.8599 3.93072 67.9182 3.72032C68.9765 3.50992 70.0735 3.61814 71.0703 4.03128C72.0672 4.44443 72.9191 5.14394 73.5183 6.04133C74.1175 6.93872 74.437 7.99366 74.4366 9.07272C74.4347 10.5182 73.8597 11.904 72.8376 12.9261C71.8154 13.9483 70.4297 14.5233 68.9841 14.5252ZM68.9841 3.84319C67.9511 3.84273 66.9412 4.14864 66.082 4.72222C65.2229 5.2958 64.5531 6.1113 64.1575 7.06555C63.7618 8.01981 63.6581 9.06997 63.8593 10.0832C64.0606 11.0964 64.5578 12.0272 65.2881 12.7578C66.0184 13.4885 66.9489 13.9861 67.9621 14.1878C68.9752 14.3895 70.0254 14.2862 70.9799 13.891C71.9343 13.4958 72.7501 12.8264 73.3241 11.9675C73.898 11.1086 74.2044 10.0988 74.2044 9.06575C74.2007 7.68282 73.6494 6.35765 72.6711 5.3802C71.6927 4.40275 70.3671 3.85261 68.9841 3.85016V3.84319Z" fill="#263238"/>
<path d="M68.9842 2.40344C68.9534 2.40344 68.9238 2.39121 68.902 2.36944C68.8803 2.34766 68.868 2.31813 68.868 2.28734V0.116108C68.868 0.0853146 68.8803 0.0557819 68.902 0.0340073C68.9238 0.0122327 68.9534 0 68.9842 0C69.0149 0 69.0445 0.0122327 69.0662 0.0340073C69.088 0.0557819 69.1003 0.0853146 69.1003 0.116108V2.28734C69.1003 2.31813 69.088 2.34766 69.0662 2.36944C69.0445 2.39121 69.0149 2.40344 68.9842 2.40344Z" fill="#263238"/>
<path d="M68.9842 18.5147C68.9534 18.5147 68.9238 18.5024 68.902 18.4807C68.8803 18.4589 68.868 18.4293 68.868 18.3986V16.2204C68.868 16.1896 68.8803 16.16 68.902 16.1383C68.9238 16.1165 68.9534 16.1042 68.9842 16.1042C69.0149 16.1042 69.0445 16.1165 69.0662 16.1383C69.088 16.16 69.1003 16.1896 69.1003 16.2204V18.3893C69.1015 18.4053 69.0995 18.4214 69.0942 18.4366C69.089 18.4517 69.0806 18.4657 69.0697 18.4774C69.0588 18.4892 69.0456 18.4986 69.0308 18.505C69.0161 18.5114 69.0002 18.5147 68.9842 18.5147Z" fill="#263238"/>
<path d="M73.9095 4.44463C73.8781 4.44456 73.848 4.43203 73.8259 4.4098C73.8045 4.3877 73.7925 4.35814 73.7925 4.32736C73.7925 4.29659 73.8045 4.26702 73.8259 4.24493L75.3632 2.70997C75.3849 2.6887 75.414 2.67678 75.4444 2.67678C75.4748 2.67678 75.504 2.6887 75.5257 2.70997C75.5366 2.72077 75.5452 2.73361 75.5511 2.74776C75.557 2.7619 75.5601 2.77708 75.5601 2.79241C75.5601 2.80774 75.557 2.82291 75.5511 2.83706C75.5452 2.85121 75.5366 2.86405 75.5257 2.87485L73.9884 4.4098C73.9677 4.43133 73.9394 4.44384 73.9095 4.44463Z" fill="#263238"/>
<path d="M62.5215 15.8302C62.4909 15.8298 62.4617 15.8173 62.4402 15.7954C62.4291 15.785 62.4203 15.7724 62.4142 15.7584C62.4082 15.7444 62.405 15.7294 62.405 15.7141C62.405 15.6989 62.4082 15.6838 62.4142 15.6698C62.4203 15.6559 62.4291 15.6433 62.4402 15.6328L63.9752 14.1025C63.986 14.0917 63.9988 14.083 64.013 14.0771C64.0271 14.0712 64.0423 14.0682 64.0576 14.0682C64.0729 14.0682 64.0881 14.0712 64.1023 14.0771C64.1164 14.083 64.1293 14.0917 64.14 14.1025C64.1613 14.1242 64.1732 14.1534 64.1732 14.1838C64.1732 14.2142 64.1613 14.2434 64.14 14.2651L62.6097 15.7954C62.5982 15.807 62.5844 15.816 62.5693 15.822C62.5541 15.828 62.5378 15.8308 62.5215 15.8302Z" fill="#263238"/>
<path d="M78.1195 9.36996H75.9483C75.9177 9.36936 75.8885 9.35694 75.8668 9.33529C75.8452 9.31364 75.8327 9.28446 75.8322 9.25385C75.8322 9.22306 75.8444 9.19352 75.8662 9.17175C75.8879 9.14997 75.9175 9.13774 75.9483 9.13774H78.1195C78.1503 9.13774 78.1798 9.14997 78.2016 9.17175C78.2234 9.19352 78.2356 9.22306 78.2356 9.25385C78.2356 9.28464 78.2234 9.31418 78.2016 9.33595C78.1798 9.35773 78.1503 9.36996 78.1195 9.36996Z" fill="#263238"/>
<path d="M62.0176 9.36996H59.8464C59.8156 9.36996 59.7861 9.35773 59.7643 9.33595C59.7425 9.31418 59.7303 9.28464 59.7303 9.25385C59.7303 9.22306 59.7425 9.19352 59.7643 9.17175C59.7861 9.14997 59.8156 9.13774 59.8464 9.13774H62.0176C62.0484 9.13774 62.0779 9.14997 62.0997 9.17175C62.1215 9.19352 62.1337 9.22306 62.1337 9.25385C62.1337 9.2691 62.1307 9.28419 62.1249 9.29828C62.1191 9.31237 62.1105 9.32517 62.0997 9.33595C62.0889 9.34673 62.0761 9.35528 62.0621 9.36112C62.048 9.36695 62.0329 9.36996 62.0176 9.36996Z" fill="#263238"/>
<path d="M75.4444 15.8302C75.4292 15.8304 75.4141 15.8274 75.4001 15.8214C75.3861 15.8154 75.3735 15.8066 75.3631 15.7954L73.8259 14.2604C73.8046 14.2387 73.7927 14.2096 73.7927 14.1792C73.7927 14.1488 73.8046 14.1196 73.8259 14.0979C73.8366 14.087 73.8495 14.0784 73.8636 14.0725C73.8778 14.0666 73.893 14.0635 73.9083 14.0635C73.9236 14.0635 73.9388 14.0666 73.9529 14.0725C73.9671 14.0784 73.9799 14.087 73.9907 14.0979L75.5257 15.6328C75.5416 15.6491 75.5524 15.6696 75.5567 15.6919C75.5611 15.7142 75.5588 15.7373 75.5501 15.7583C75.5415 15.7794 75.5269 15.7974 75.5081 15.8102C75.4893 15.8229 75.4671 15.8299 75.4444 15.8302Z" fill="#263238"/>
<path d="M64.0565 4.44463C64.0258 4.44419 63.9966 4.43167 63.9752 4.4098L62.4402 2.87484C62.4293 2.86405 62.4207 2.85121 62.4148 2.83706C62.4089 2.82291 62.4059 2.80773 62.4059 2.79241C62.4059 2.77708 62.4089 2.7619 62.4148 2.74775C62.4207 2.7336 62.4293 2.72076 62.4402 2.70997C62.4623 2.68855 62.4919 2.67657 62.5227 2.67657C62.5534 2.67657 62.583 2.68855 62.6051 2.70997L64.1401 4.24492C64.1615 4.26702 64.1735 4.29658 64.1735 4.32736C64.1735 4.35813 64.1615 4.3877 64.1401 4.4098C64.1179 4.43202 64.0878 4.44455 64.0565 4.44463Z" fill="#263238"/>
<path d="M81.8536 38.7686C81.8536 38.7686 82.9241 38.5016 83.2469 38.6084C83.5697 38.7152 83.0333 39.096 83.0333 39.096C83.2254 39.2259 83.3742 39.4103 83.4605 39.6255C83.6208 40.0017 82.9264 39.8391 82.9264 39.8391C82.984 39.9064 83.0156 39.9921 83.0156 40.0806C83.0156 40.1692 82.984 40.2548 82.9264 40.3221C82.7128 40.5381 81.7491 39.4653 81.7491 39.4653C81.7491 39.4653 81.0525 39.8949 80.4069 39.8415C79.7613 39.788 79.3898 39.6255 78.9602 38.9823C78.7401 38.6388 78.489 38.3162 78.2101 38.0186L77.7805 37.8583L78.4238 37.4821C78.4238 37.4821 78.9602 36.9991 79.4966 37.0525C79.7608 37.0606 80.0187 37.1349 80.2467 37.2685C80.2467 37.2685 80.5694 36.4093 81.0501 36.0888C81.5308 35.7684 83.0333 35.3388 83.5163 35.0694C83.9993 34.8 83.8925 35.232 83.7322 35.499C83.572 35.7661 83.089 35.982 82.873 36.0888C82.6571 36.1957 83.9993 36.2491 83.7857 36.5184C83.572 36.7878 82.7662 36.8923 82.7662 36.8923C82.7662 36.8923 83.5163 37.1617 83.356 37.3753C83.1958 37.589 82.5526 37.589 82.5526 37.589C82.5526 37.589 82.7662 38.1254 82.4458 38.1254H82.116C82.116 38.1254 82.2809 38.8754 81.8536 38.7686Z" fill="#92E3A9"/>
<path d="M82.8498 40.4684C82.5433 40.4684 81.9511 39.8531 81.7305 39.6116C81.3269 39.8439 80.8679 39.9627 80.4023 39.9552C79.752 39.9018 79.3341 39.7462 78.8696 39.0473C78.6553 38.7186 78.4146 38.4079 78.1498 38.1184L77.7457 37.9651C77.725 37.9582 77.7068 37.9452 77.6935 37.9278C77.6803 37.9104 77.6726 37.8894 77.6714 37.8676C77.6694 37.8457 77.6736 37.8236 77.6834 37.804C77.6933 37.7843 77.7084 37.7677 77.7271 37.7562L78.3611 37.3869C78.44 37.3196 78.9672 36.8853 79.5222 36.9387C79.7564 36.9562 79.9863 37.0119 80.2026 37.1036C80.314 36.8459 80.602 36.2583 81.0014 35.9913C81.4571 35.7472 81.9344 35.5459 82.4272 35.3899C82.7842 35.2703 83.1339 35.1299 83.4745 34.9695C83.5534 34.9254 83.7949 34.7907 83.9389 34.9324C84.0829 35.074 83.8971 35.4851 83.8507 35.5594C83.6668 35.7912 83.4271 35.9726 83.154 36.0865L83.2144 36.0981C83.6069 36.1771 83.8669 36.2398 83.925 36.4C83.9362 36.4322 83.9386 36.4668 83.9321 36.5002C83.9256 36.5337 83.9103 36.5648 83.8878 36.5904C83.6845 36.7729 83.433 36.893 83.1633 36.9364C83.3074 36.9984 83.4256 37.1083 83.4977 37.2476C83.5067 37.2812 83.508 37.3163 83.5016 37.3505C83.4951 37.3847 83.4811 37.417 83.4606 37.445C83.3189 37.6331 82.945 37.6772 82.7198 37.7004C82.7676 37.8399 82.7584 37.9926 82.6942 38.1254C82.6686 38.1629 82.6338 38.1932 82.5932 38.2135C82.5526 38.2339 82.5074 38.2435 82.462 38.2415H82.2762C82.2901 38.3479 82.2901 38.4556 82.2762 38.5619C82.6118 38.4747 82.9611 38.4526 83.305 38.4969C83.3501 38.5069 83.3912 38.5302 83.4231 38.5637C83.455 38.5972 83.4761 38.6394 83.4838 38.685C83.507 38.8313 83.3677 38.9869 83.2516 39.0937C83.4016 39.2287 83.5197 39.3952 83.5976 39.5814C83.6246 39.6272 83.6371 39.6802 83.6334 39.7332C83.6297 39.7863 83.6099 39.837 83.5767 39.8786C83.519 39.9275 83.451 39.9627 83.3778 39.9816C83.3047 40.0005 83.2281 40.0026 83.154 39.9878C83.1735 40.0615 83.173 40.139 83.1526 40.2125C83.1322 40.2859 83.0926 40.3526 83.0379 40.4057C83.0131 40.4294 82.9834 40.4473 82.9509 40.4582C82.9184 40.469 82.8839 40.4725 82.8498 40.4684ZM81.7468 39.3492C81.7631 39.3495 81.7791 39.3532 81.7939 39.36C81.8086 39.3667 81.8219 39.3765 81.8327 39.3886C82.2577 39.8531 82.7337 40.2618 82.8521 40.2362C82.9822 40.1015 82.8405 39.9204 82.8359 39.9111C82.8224 39.8917 82.8152 39.8686 82.8152 39.8449C82.8152 39.8213 82.8224 39.7982 82.8359 39.7788C82.8484 39.7584 82.8671 39.7425 82.8892 39.7333C82.9113 39.7241 82.9357 39.7222 82.959 39.7277C83.0952 39.7689 83.2407 39.7689 83.377 39.7277C83.3762 39.7073 83.3707 39.6874 83.3607 39.6696C83.2838 39.4773 83.1522 39.3118 82.9822 39.1936C82.9654 39.1837 82.9514 39.1698 82.9412 39.1532C82.9311 39.1366 82.9252 39.1178 82.9241 39.0984C82.9237 39.079 82.9279 39.0599 82.9363 39.0425C82.9448 39.0251 82.9574 39.01 82.9729 38.9985C83.081 38.928 83.1722 38.8344 83.2399 38.7245H83.2167C83.0449 38.6688 82.5363 38.7454 82.1369 38.8313C82.0951 38.8657 82.0454 38.8891 81.9922 38.8992C81.9391 38.9094 81.8842 38.906 81.8327 38.8894C81.8073 38.8831 81.7848 38.8685 81.7688 38.8478C81.7528 38.8272 81.7442 38.8017 81.7445 38.7756C81.7439 38.7496 81.7524 38.7243 81.7685 38.704C81.7846 38.6836 81.8073 38.6695 81.8327 38.6641C81.8559 38.6641 81.921 38.6409 82.0092 38.6223C82.0485 38.47 82.0485 38.3102 82.0092 38.1579C82.0058 38.141 82.0061 38.1236 82.0102 38.1069C82.0143 38.0901 82.0221 38.0746 82.033 38.0612C82.0439 38.0479 82.0576 38.0371 82.0732 38.0298C82.0888 38.0224 82.1058 38.0186 82.123 38.0186H82.4458C82.4806 38.0186 82.4876 38.0186 82.4899 38.0046C82.5134 37.882 82.4972 37.7551 82.4434 37.6424C82.4366 37.6245 82.4341 37.6054 82.4361 37.5864C82.4381 37.5674 82.4446 37.5492 82.4551 37.5332C82.466 37.5174 82.4805 37.5046 82.4975 37.4957C82.5145 37.4868 82.5334 37.4821 82.5526 37.4821C82.7848 37.4821 83.1772 37.431 83.2632 37.3149C83.1109 37.1726 82.9271 37.0683 82.7267 37.0107C82.696 37.0077 82.6676 36.9925 82.648 36.9685C82.6284 36.9446 82.6192 36.9138 82.6222 36.883C82.6253 36.8522 82.6405 36.8239 82.6645 36.8043C82.6884 36.7847 82.7192 36.7754 82.75 36.7785C83.031 36.739 83.514 36.6229 83.6788 36.4673C83.5121 36.4008 83.3384 36.3532 83.161 36.3257C82.8661 36.2653 82.7546 36.2444 82.7407 36.1283C82.7366 36.0981 82.7429 36.0675 82.7585 36.0413C82.7741 36.0152 82.7981 35.9951 82.8266 35.9843L82.9009 35.9472C83.1146 35.845 83.5093 35.6499 83.637 35.4386C83.7062 35.3366 83.7471 35.218 83.7555 35.0949C83.6941 35.1141 83.6349 35.1398 83.579 35.1716C83.2275 35.3383 82.8661 35.4834 82.4969 35.6058C82.0225 35.7598 81.5619 35.9532 81.1198 36.184C80.6739 36.4836 80.3628 37.301 80.3605 37.308C80.3541 37.3251 80.3439 37.3404 80.3306 37.3529C80.3173 37.3654 80.3013 37.3747 80.2838 37.38C80.2665 37.3845 80.2483 37.3852 80.2307 37.382C80.213 37.3788 80.1963 37.3717 80.1817 37.3614C79.9686 37.2414 79.7294 37.1752 79.485 37.1686C79.0066 37.1199 78.5074 37.5634 78.5027 37.5681C78.4981 37.5727 78.4911 37.5681 78.4841 37.582L78.0522 37.8351L78.2519 37.9094C78.2664 37.9157 78.2797 37.9243 78.2914 37.935C78.5761 38.2393 78.8325 38.5689 79.0577 38.9196C79.4734 39.5419 79.8264 39.6766 80.4185 39.7253C80.8657 39.7208 81.3035 39.5965 81.6864 39.3654C81.7052 39.3558 81.7257 39.3502 81.7468 39.3492Z" fill="#263238"/>
<path d="M80.2443 37.2685C80.2443 37.2685 79.8171 36.4093 80.0307 35.8752C80.2443 35.3411 82.2275 33.9455 82.1741 34.4819C82.1407 34.6582 82.0711 34.8256 81.9695 34.9735C81.868 35.1214 81.7368 35.2466 81.5842 35.3411C81.5842 35.3411 82.39 35.0717 82.39 35.2877V35.5013C82.39 35.5013 81.4774 35.715 81.0478 36.0912C80.7177 36.4372 80.4463 36.8349 80.2443 37.2685Z" fill="#263238"/>
<path d="M80.2443 37.3846C80.2229 37.3845 80.2019 37.3783 80.1839 37.3668C80.1658 37.3553 80.1513 37.3389 80.1422 37.3196C80.1236 37.2824 79.6916 36.4093 79.9215 35.8311C80.1189 35.3364 81.7003 34.1475 82.1346 34.252C82.1846 34.2647 82.2282 34.2954 82.2569 34.3383C82.2856 34.3811 82.2975 34.4331 82.2902 34.4842C82.2625 34.7106 82.1688 34.9238 82.0208 35.0973C82.1565 35.0603 82.3007 35.071 82.4295 35.1274C82.4532 35.1447 82.4723 35.1675 82.4852 35.1938C82.4982 35.2201 82.5045 35.2491 82.5038 35.2784V35.492C82.504 35.5182 82.4955 35.5436 82.4794 35.5643C82.4634 35.5849 82.4409 35.5995 82.4156 35.6058C82.4156 35.6058 81.5262 35.8171 81.1244 36.1701C80.8046 36.5094 80.5433 36.8994 80.3511 37.3242C80.3411 37.3436 80.3262 37.3599 80.3078 37.3718C80.2895 37.3836 80.2684 37.3904 80.2467 37.3916L80.2443 37.3846ZM82.051 34.4726C81.7398 34.4726 80.314 35.4781 80.1375 35.917C80.0075 36.2421 80.1375 36.7181 80.2536 36.9945C80.4387 36.6267 80.6817 36.2911 80.9735 36.0006C81.3635 35.7205 81.8044 35.5194 82.2716 35.4084V35.3179C82.0492 35.3254 81.8295 35.3693 81.6214 35.4479C81.5946 35.4556 81.566 35.4534 81.5408 35.4417C81.5155 35.4301 81.4953 35.4097 81.4837 35.3844C81.4722 35.3591 81.4702 35.3305 81.4779 35.3038C81.4857 35.2771 81.5028 35.2541 81.5262 35.2389C81.6621 35.1544 81.7793 35.0431 81.8708 34.9117C81.9622 34.7803 82.0259 34.6317 82.0579 34.4749L82.051 34.4726Z" fill="#263238"/>
<path d="M78.9904 37.8467C79.0789 37.8467 79.1506 37.775 79.1506 37.6865C79.1506 37.598 79.0789 37.5263 78.9904 37.5263C78.9019 37.5263 78.8301 37.598 78.8301 37.6865C78.8301 37.775 78.9019 37.8467 78.9904 37.8467Z" fill="#263238"/>
<path d="M81.143 39.3236C81.0478 39.6487 80.5346 39.7881 80.0028 39.6255C79.4711 39.4629 79.1134 39.0751 79.2087 38.75C79.3039 38.4249 79.8171 38.2856 80.3512 38.4482C80.8853 38.6107 81.2405 38.9985 81.143 39.3236Z" fill="white"/>
<path d="M80.4417 39.7486C80.2844 39.749 80.1279 39.7263 79.9773 39.6812C79.7266 39.6125 79.4994 39.4769 79.3201 39.2888C79.2387 39.224 79.1785 39.1365 79.1471 39.0373C79.1158 38.9381 79.1148 38.8318 79.1442 38.732C79.1736 38.6323 79.2322 38.5436 79.3123 38.4773C79.3925 38.411 79.4906 38.3701 79.5941 38.3599C79.8482 38.306 80.1117 38.3163 80.3607 38.3902C80.6097 38.464 80.8363 38.5989 81.0199 38.7825C81.1014 38.8474 81.1616 38.9352 81.1929 39.0346C81.2241 39.134 81.2249 39.2404 81.1952 39.3402C81.1655 39.4401 81.1066 39.5288 81.0262 39.5949C80.9457 39.661 80.8473 39.7016 80.7436 39.7114C80.6449 39.7366 80.5435 39.7491 80.4417 39.7486ZM79.9099 38.4389C79.8159 38.4383 79.7222 38.45 79.6313 38.4737C79.55 38.4866 79.4736 38.5204 79.4093 38.5716C79.345 38.6229 79.295 38.69 79.2644 38.7663C79.2477 38.8468 79.2526 38.9302 79.2788 39.0081C79.3049 39.0861 79.3512 39.1557 79.413 39.2098C79.5821 39.3779 79.7902 39.5015 80.0188 39.5696C80.2473 39.6377 80.4891 39.6481 80.7227 39.6C80.8039 39.5878 80.8804 39.5543 80.9445 39.5029C81.0085 39.4515 81.0578 39.384 81.0873 39.3074C81.1047 39.2267 81.1003 39.143 81.0746 39.0646C81.0489 38.9862 81.0027 38.9161 80.941 38.8615C80.7738 38.6912 80.5648 38.5679 80.3349 38.5039C80.197 38.4624 80.0539 38.4405 79.9099 38.4389Z" fill="#263238"/>
<path d="M28.5365 25.0307C28.5365 25.0307 27.466 24.7613 27.1432 24.8704C26.8205 24.9796 27.3569 25.3558 27.3569 25.3558C27.1655 25.4874 27.0169 25.6723 26.9296 25.8875C26.7671 26.2637 27.4637 26.1012 27.4637 26.1012C27.4061 26.1685 27.3745 26.2541 27.3745 26.3427C27.3745 26.4312 27.4061 26.5169 27.4637 26.5842C27.6773 26.8002 28.641 25.7273 28.641 25.7273C28.641 25.7273 29.3377 26.1569 29.9809 26.1012C30.6242 26.0454 31.0004 25.8875 31.43 25.2443C31.6501 24.9008 31.9011 24.5783 32.18 24.2806L32.6096 24.118L31.9664 23.7442C31.9664 23.7442 31.43 23.2612 30.8935 23.3146C30.6297 23.3228 30.3721 23.3962 30.1435 23.5282C30.1435 23.5282 29.8207 22.6713 29.3377 22.3509C28.8547 22.0304 27.3546 21.6008 26.8739 21.3314C26.3932 21.0621 26.4977 21.4917 26.6579 21.761C26.8181 22.0304 27.3012 22.2441 27.5171 22.3509C27.7331 22.4577 26.3909 22.5111 26.6045 22.7782C26.8181 23.0452 27.6239 23.1543 27.6239 23.1543C27.6239 23.1543 26.8739 23.4214 27.0341 23.6374C27.1943 23.8533 27.8376 23.851 27.8376 23.851C27.8376 23.851 27.6239 24.3874 27.9444 24.3874H28.2672C28.2672 24.3874 28.1093 25.1375 28.5365 25.0307Z" fill="#92E3A9"/>
<path d="M27.545 26.7282C27.4866 26.7286 27.4303 26.707 27.3871 26.6678C27.3324 26.6147 27.2928 26.548 27.2724 26.4745C27.252 26.4011 27.2515 26.3235 27.271 26.2498C27.1968 26.264 27.1205 26.2615 27.0474 26.2426C26.9743 26.2238 26.9064 26.1889 26.8483 26.1407C26.8152 26.0986 26.7955 26.0475 26.7918 25.9941C26.7881 25.9407 26.8005 25.8874 26.8274 25.8411C26.9054 25.6563 27.0226 25.4906 27.1711 25.3558C27.048 25.249 26.9087 25.0934 26.9389 24.9471C26.9466 24.9015 26.9677 24.8592 26.9996 24.8257C27.0314 24.7922 27.0726 24.769 27.1177 24.759C27.4615 24.7149 27.8105 24.7362 28.1464 24.8217C28.1325 24.7161 28.1325 24.6091 28.1464 24.5035H27.9607C27.9153 24.5055 27.8701 24.4959 27.8295 24.4756C27.7889 24.4553 27.7541 24.4249 27.7284 24.3874C27.6962 24.3218 27.6773 24.2505 27.6729 24.1775C27.6685 24.1046 27.6787 24.0315 27.7029 23.9625C27.4707 23.9462 27.1038 23.8951 26.9621 23.707C26.9412 23.6787 26.927 23.6461 26.9206 23.6115C26.9141 23.5769 26.9156 23.5413 26.925 23.5073C26.9974 23.3688 27.1155 23.2597 27.2594 23.1985C26.99 23.1541 26.7387 23.0341 26.5348 22.8525C26.5124 22.8264 26.4971 22.7949 26.4906 22.761C26.4841 22.7272 26.4865 22.6923 26.4977 22.6597C26.5557 22.5018 26.8158 22.4391 27.2083 22.3602L27.2687 22.3462C26.9952 22.233 26.7553 22.0515 26.572 21.8191C26.5279 21.7471 26.3166 21.3686 26.4838 21.1944C26.651 21.0203 26.8646 21.1944 26.9482 21.2293C27.2879 21.3917 27.6378 21.532 27.9955 21.6496C28.4881 21.8073 28.9653 22.0094 29.4213 22.2534C29.8207 22.5204 30.118 23.1079 30.2201 23.3657C30.4362 23.2729 30.6661 23.2164 30.9005 23.1985C31.4462 23.1451 31.9734 23.5793 32.0616 23.649L32.6956 24.0182C32.7143 24.0298 32.7294 24.0463 32.7393 24.066C32.7491 24.0857 32.7533 24.1077 32.7513 24.1297C32.7495 24.1513 32.7416 24.172 32.7284 24.1893C32.7152 24.2066 32.6974 24.2197 32.677 24.2272L32.2729 24.3805C32.0073 24.6693 31.7665 24.98 31.5531 25.3093C31.0886 26.006 30.6706 26.1639 30.0204 26.2173C29.5546 26.226 29.0953 26.1072 28.6921 25.8736C28.4599 26.1058 27.8794 26.7212 27.5729 26.7282H27.545ZM27.4684 25.9851C27.4878 25.9851 27.5069 25.99 27.5239 25.9993C27.541 26.0087 27.5554 26.0221 27.5659 26.0385C27.5796 26.0583 27.5869 26.0818 27.5869 26.1058C27.5869 26.1299 27.5796 26.1534 27.5659 26.1732C27.552 26.1917 27.4242 26.3682 27.5659 26.5029C27.675 26.5215 28.1488 26.1244 28.576 25.6484C28.595 25.629 28.6199 25.6164 28.6468 25.6126C28.6737 25.6089 28.701 25.6141 28.7247 25.6275C29.1079 25.8578 29.5455 25.982 29.9926 25.9874C30.5824 25.9363 30.9377 25.8039 31.3533 25.1793C31.5787 24.8301 31.8344 24.5014 32.1173 24.197C32.1296 24.186 32.1438 24.1774 32.1591 24.1715L32.3588 24.0972L31.9083 23.8556L31.8898 23.8417C31.8898 23.8417 31.3835 23.3935 30.9075 23.4423C30.6633 23.4503 30.4244 23.5163 30.2108 23.635C30.1963 23.6456 30.1795 23.6526 30.1617 23.6555C30.1439 23.6583 30.1258 23.6569 30.1087 23.6513C30.0915 23.6468 30.0756 23.6381 30.0627 23.6259C30.0497 23.6137 30.04 23.5985 30.0344 23.5816C30.0344 23.5816 29.7185 22.7549 29.275 22.4577C28.8334 22.2259 28.3727 22.0324 27.898 21.8795C27.5287 21.757 27.1673 21.612 26.8158 21.4452C26.6742 21.3663 26.6277 21.3756 26.6254 21.3756C26.6489 21.4949 26.6938 21.6089 26.7578 21.7123C26.8855 21.9236 27.2826 22.1187 27.4939 22.2208L27.5682 22.258C27.5967 22.2687 27.6207 22.2888 27.6363 22.315C27.6519 22.3411 27.6582 22.3718 27.6541 22.402C27.6402 22.5181 27.5287 22.539 27.2338 22.5994C27.0566 22.6265 26.8829 22.6732 26.716 22.7387C26.8785 22.8989 27.3592 23.0127 27.6448 23.0499C27.671 23.0537 27.6951 23.066 27.7135 23.0849C27.732 23.1038 27.7437 23.1282 27.747 23.1544C27.7492 23.1801 27.7428 23.2058 27.729 23.2276C27.7152 23.2494 27.6946 23.2661 27.6704 23.2751C27.4675 23.3304 27.2826 23.4376 27.134 23.5863C27.2199 23.6931 27.5984 23.7465 27.8445 23.7465C27.8637 23.7465 27.8826 23.7511 27.8996 23.76C27.9166 23.7689 27.9312 23.7818 27.9421 23.7976C27.9525 23.8136 27.959 23.8318 27.961 23.8508C27.963 23.8697 27.9605 23.8889 27.9537 23.9067C27.8987 24.0191 27.8823 24.1464 27.9072 24.269C27.9072 24.269 27.9072 24.2829 27.9514 24.2829H28.2742C28.2913 24.2832 28.3083 24.287 28.3239 24.2942C28.3395 24.3014 28.3534 24.3118 28.3647 24.3247C28.3752 24.3384 28.3827 24.3542 28.3867 24.371C28.3907 24.3878 28.3911 24.4053 28.3879 24.4223C28.3486 24.5746 28.3486 24.7344 28.3879 24.8867L28.5644 24.9285C28.5898 24.9348 28.6123 24.9494 28.6283 24.9701C28.6443 24.9907 28.6529 25.0161 28.6527 25.0423C28.6532 25.0682 28.6447 25.0936 28.6286 25.1139C28.6125 25.1343 28.5898 25.1483 28.5644 25.1537C28.5132 25.1711 28.4583 25.1751 28.4051 25.1653C28.3519 25.1556 28.302 25.1324 28.2602 25.098C27.8608 25.0121 27.3522 24.9331 27.1804 24.9912C27.1694 24.9936 27.1591 24.9983 27.1502 25.0051C27.2246 25.1107 27.3174 25.202 27.4242 25.2745C27.4404 25.2854 27.4534 25.3004 27.462 25.3179C27.4705 25.3354 27.4743 25.3549 27.473 25.3743C27.4719 25.3938 27.466 25.4126 27.4559 25.4292C27.4458 25.4458 27.4317 25.4597 27.415 25.4696C27.2467 25.5847 27.1153 25.746 27.0364 25.934C27.026 25.9515 27.0211 25.9717 27.0225 25.992C27.1568 26.0357 27.3015 26.0357 27.4358 25.992L27.4684 25.9851Z" fill="#263238"/>
<path d="M30.1459 23.5282C30.1459 23.5282 30.5731 22.6713 30.3595 22.1349C30.1459 21.5985 28.1627 20.2052 28.2161 20.7416C28.2495 20.9179 28.3191 21.0853 28.4207 21.2332C28.5222 21.3812 28.6534 21.5063 28.806 21.6008C28.806 21.6008 28.0002 21.3314 28.0002 21.5451V21.7657C28.0002 21.7657 28.9128 21.9793 29.3401 22.3555C29.671 22.6997 29.9432 23.0959 30.1459 23.5282Z" fill="#263238"/>
<path d="M30.1458 23.6443C30.1241 23.6444 30.1027 23.6383 30.0843 23.6268C30.0658 23.6153 30.0509 23.5988 30.0413 23.5793C29.8475 23.1589 29.5863 22.773 29.2681 22.4368C28.864 22.0861 27.9862 21.8748 27.9769 21.8725C27.9513 21.8672 27.9283 21.8532 27.9118 21.8329C27.8953 21.8126 27.8863 21.7872 27.8864 21.761V21.5451C27.8861 21.5159 27.8929 21.4872 27.9062 21.4613C27.9196 21.4354 27.9391 21.4131 27.963 21.3965C28.0915 21.3389 28.2361 21.3282 28.3717 21.3663C28.2236 21.1928 28.13 20.9796 28.1023 20.7532C28.095 20.7021 28.1069 20.6502 28.1356 20.6073C28.1643 20.5644 28.2079 20.5337 28.2579 20.521C28.6945 20.4119 30.2712 21.6055 30.4686 22.1001C30.7008 22.6783 30.2689 23.5514 30.2503 23.5886C30.2399 23.6068 30.2246 23.6216 30.2061 23.6315C30.1876 23.6413 30.1667 23.6458 30.1458 23.6443ZM28.1163 21.6705C28.5841 21.7814 29.0259 21.9825 29.4167 22.2626C29.7078 22.5528 29.9509 22.8875 30.1365 23.2542C30.241 22.9779 30.3827 22.5041 30.2527 22.179C30.0738 21.7355 28.6271 20.723 28.3322 20.7346C28.3655 20.8913 28.4297 21.0398 28.521 21.1713C28.6123 21.3029 28.7289 21.415 28.864 21.501C28.8886 21.5152 28.907 21.538 28.9156 21.5651C28.9242 21.5922 28.9224 21.6215 28.9104 21.6473C28.8991 21.6737 28.8782 21.6948 28.8519 21.7064C28.8257 21.7181 28.796 21.7193 28.7688 21.71C28.5598 21.6315 28.3394 21.5876 28.1163 21.5799V21.6705Z" fill="#263238"/>
<path d="M31.2396 23.9462C31.2396 23.9887 31.2564 24.0295 31.2865 24.0595C31.3165 24.0896 31.3573 24.1064 31.3998 24.1064C31.4423 24.1064 31.483 24.0896 31.5131 24.0595C31.5431 24.0295 31.56 23.9887 31.56 23.9462C31.56 23.9037 31.5431 23.863 31.5131 23.8329C31.483 23.8029 31.4423 23.786 31.3998 23.786C31.3573 23.786 31.3165 23.8029 31.2865 23.8329C31.2564 23.863 31.2396 23.9037 31.2396 23.9462Z" fill="#263238"/>
<path d="M29.2472 25.5857C29.3424 25.9108 29.8533 26.0501 30.3874 25.8875C30.9215 25.725 31.2768 25.3372 31.1816 25.0121C31.0864 24.687 30.5732 24.5477 30.0391 24.7102C29.505 24.8728 29.1497 25.2606 29.2472 25.5857Z" fill="white"/>
<path d="M29.9531 26.0106C29.5746 26.0106 29.2565 25.8597 29.1914 25.6019C29.0846 25.2466 29.4585 24.8217 30.0228 24.6545C30.5871 24.4873 31.1305 24.6405 31.2373 24.9935C31.2593 25.0935 31.2549 25.1976 31.2243 25.2953C31.1938 25.3931 31.1382 25.4812 31.0631 25.5508C30.882 25.7379 30.6544 25.8734 30.4036 25.9433C30.2573 25.9864 30.1057 26.009 29.9531 26.0106ZM29.3029 25.5694C29.3888 25.862 29.8695 25.9804 30.3711 25.8318C30.6018 25.7685 30.8112 25.6442 30.9772 25.4719C31.039 25.4177 31.0853 25.3481 31.1114 25.2702C31.1375 25.1923 31.1425 25.1088 31.1258 25.0283C31.0376 24.7334 30.5569 24.615 30.0553 24.7659C29.5537 24.9169 29.2147 25.2745 29.3029 25.5694Z" fill="#263238"/>
<path d="M25.6594 64.958C24.1302 62.7194 22.0859 60.8806 19.6984 59.5962C15.8575 57.6037 14.2181 55.6369 16.2151 55.753C18.6325 55.8969 24.1105 57.8174 26.5999 64.5772C27.675 67.4915 25.671 64.9604 25.671 64.9604" fill="#92E3A9"/>
<path d="M26.7973 66.0843C26.4652 66.0843 25.8963 65.4364 25.5665 65.0231C25.5456 64.9906 23.4185 61.6559 19.652 59.703C16.8654 58.2609 15.0657 56.7445 15.2654 56.0154C15.342 55.7344 15.6671 55.6113 16.2268 55.6438C18.7812 55.7924 24.2475 57.8452 26.7137 64.5401C27.1526 65.7336 27.0667 65.9798 26.9064 66.0704C26.8719 66.0844 26.8343 66.0891 26.7973 66.0843ZM25.7523 64.8837C26.1819 65.4225 26.6672 65.8846 26.7903 65.8544C26.7903 65.8544 26.8855 65.6849 26.4884 64.6074C24.0641 58.0264 18.7022 56.0154 16.2059 55.8621C15.7809 55.8389 15.5255 55.9109 15.4837 56.0641C15.3443 56.5727 16.935 58.024 19.7518 59.4847C23.5021 61.4307 25.6501 64.7258 25.7523 64.8837Z" fill="#263238"/>
<path d="M25.5317 64.1848C25.5102 64.185 25.489 64.1793 25.4706 64.1682C25.4521 64.1571 25.4371 64.1412 25.4272 64.1221C25.4087 64.0826 23.4813 60.2928 19.9307 58.4815C19.9169 58.4749 19.9046 58.4655 19.8946 58.454C19.8845 58.4425 19.8768 58.4291 19.8721 58.4146C19.8673 58.4 19.8655 58.3847 19.8668 58.3695C19.8681 58.3542 19.8724 58.3394 19.8796 58.3259C19.8935 58.2986 19.9177 58.2779 19.9468 58.2683C19.976 58.2587 20.0077 58.2611 20.0352 58.2748C23.6554 60.121 25.6084 63.9781 25.6339 64.0176C25.641 64.0311 25.6454 64.0459 25.6467 64.0611C25.648 64.0763 25.6462 64.0917 25.6414 64.1062C25.6366 64.1207 25.629 64.1341 25.6189 64.1456C25.6089 64.1571 25.5966 64.1665 25.5828 64.1731C25.5671 64.1814 25.5495 64.1854 25.5317 64.1848Z" fill="#263238"/>
<path d="M27.9677 67.2802C27.232 64.9436 27.0672 62.4647 27.487 60.0513C28.2161 56.2081 27.7331 53.9463 26.7044 55.4279C25.4551 57.2252 23.7599 62.1923 27.1688 67.7354C28.6411 70.1272 27.9653 67.2709 27.9653 67.2709" fill="#92E3A9"/>
<path d="M27.984 68.8082C27.8261 68.8082 27.5822 68.6224 27.0737 67.7957C23.6903 62.2992 25.2902 57.2601 26.6092 55.3605C26.9018 54.9402 27.1758 54.78 27.422 54.8821C28.0583 55.1492 28.1303 57.2833 27.6008 60.0722C27.1855 62.4648 27.3447 64.9218 28.0652 67.2407C28.0662 67.2453 28.0662 67.2501 28.0652 67.2547C28.2162 67.8909 28.3369 68.6735 28.0513 68.7919C28.0298 68.8007 28.0071 68.8062 27.984 68.8082ZM27.2873 55.0865C27.1619 55.0865 26.9924 55.2305 26.8089 55.4952C25.5201 57.3529 23.9596 62.2806 27.2734 67.6727C27.8052 68.5388 27.97 68.5737 27.9909 68.576C28.0536 68.4993 27.9909 67.9072 27.8586 67.3127C27.1233 64.957 26.9578 62.4603 27.3756 60.0281C27.9654 56.9233 27.7007 55.2514 27.3338 55.0981C27.3166 55.0893 27.2973 55.0853 27.278 55.0865H27.2873Z" fill="#263238"/>
<path d="M27.415 66.8158C27.3929 66.816 27.3712 66.81 27.3523 66.7985C27.3334 66.787 27.3181 66.7705 27.3081 66.7508C27.2919 66.7136 25.6432 63.163 26.3537 59.552C26.3596 59.5212 26.3774 59.494 26.4033 59.4764C26.4293 59.4588 26.4611 59.4521 26.4919 59.458C26.5227 59.4638 26.5499 59.4817 26.5675 59.5076C26.5852 59.5335 26.5918 59.5654 26.586 59.5962C25.8893 63.1282 27.5148 66.6114 27.5148 66.6463C27.5215 66.6601 27.5253 66.6752 27.5261 66.6905C27.5269 66.7059 27.5247 66.7212 27.5195 66.7357C27.5143 66.7502 27.5063 66.7635 27.4959 66.7748C27.4855 66.7862 27.473 66.7954 27.4591 66.8018C27.4454 66.8093 27.4304 66.814 27.415 66.8158Z" fill="#263238"/>
<path d="M25.815 63.2559C25.079 60.9186 24.9142 58.4388 25.3343 56.0247C26.0635 52.1838 25.5805 49.922 24.5517 51.4035C23.3024 53.2009 21.6072 58.1657 25.0162 63.711C26.4884 66.1029 25.8127 63.2582 25.8127 63.2582" fill="#92E3A9"/>
<path d="M25.8313 64.7839C25.6733 64.7839 25.4295 64.5981 24.921 63.7714C21.5376 58.2748 23.1375 53.2334 24.4565 51.3362C24.7491 50.9159 25.0231 50.7557 25.2693 50.8578C25.9032 51.1249 25.9659 53.259 25.4481 56.0479C25.0328 58.4404 25.192 60.8974 25.9125 63.2164V63.228C26.0635 63.8643 26.1842 64.6492 25.8986 64.7676C25.8771 64.7764 25.8544 64.7819 25.8313 64.7839ZM25.1346 51.0622C25.0092 51.0622 24.8397 51.2062 24.6562 51.4686C23.3674 53.3263 21.8069 58.2539 25.1207 63.6483C25.6524 64.5122 25.8173 64.5493 25.8382 64.5493C25.9009 64.4727 25.8382 63.8806 25.7059 63.2884C24.9706 60.9326 24.8051 58.436 25.2228 56.0038C25.8127 52.899 25.5456 51.2247 25.181 51.0715C25.1633 51.0645 25.1443 51.0614 25.1253 51.0622H25.1346Z" fill="#263238"/>
<path d="M25.5317 64.1848C25.5085 64.1848 25.4857 64.178 25.4663 64.1652C25.4469 64.1524 25.4317 64.1342 25.4226 64.1128C25.404 64.0617 23.4929 59.1317 24.2011 55.5207C24.2073 55.4904 24.2251 55.4638 24.2507 55.4464C24.2763 55.429 24.3077 55.4224 24.3381 55.4279C24.3531 55.4309 24.3673 55.4369 24.3799 55.4454C24.3926 55.4539 24.4034 55.4649 24.4118 55.4776C24.4202 55.4903 24.426 55.5046 24.4289 55.5196C24.4318 55.5345 24.4317 55.5499 24.4287 55.5649C23.732 59.1015 25.62 63.9688 25.6385 64.0176C25.6442 64.0317 25.647 64.0469 25.6468 64.0622C25.6466 64.0774 25.6434 64.0925 25.6373 64.1065C25.6313 64.1205 25.6225 64.1332 25.6116 64.1439C25.6007 64.1545 25.5877 64.1629 25.5735 64.1685C25.5606 64.1763 25.5465 64.1818 25.5317 64.1848Z" fill="#263238"/>
<path d="M74.0349 60.7526C75.5639 58.5146 77.6073 56.6759 79.9936 55.3907C83.8368 53.3983 85.4739 51.4314 83.4768 51.5498C81.0595 51.6915 75.5815 53.6119 73.0921 60.3741C72.0193 63.2907 74.0326 60.7572 74.0326 60.7572" fill="#92E3A9"/>
<path d="M72.8947 61.8858C72.8589 61.8871 72.8235 61.8782 72.7925 61.8603C72.6323 61.772 72.5463 61.5236 72.9852 60.33C75.4514 53.6351 80.9247 51.5823 83.4721 51.4337C84.0318 51.4012 84.3569 51.5243 84.4335 51.8053C84.6332 52.5344 82.8312 54.0508 80.0469 55.4929C76.2804 57.4481 74.1533 60.7805 74.1324 60.8153C73.7957 61.2426 73.2267 61.8858 72.8947 61.8858ZM83.644 51.6683C83.5952 51.6683 83.5418 51.6683 83.4861 51.6683C80.9897 51.8146 75.6278 53.8302 73.2035 60.4136C72.8064 61.4887 72.8993 61.649 72.9109 61.6652C73.0247 61.6908 73.51 61.2263 73.9396 60.6876C74.0418 60.5273 76.1898 57.2345 79.9401 55.2908C82.7569 53.8302 84.3522 52.3765 84.2083 51.868C84.1734 51.7217 83.9737 51.6613 83.644 51.6613V51.6683Z" fill="#263238"/>
<path d="M74.1626 59.9886C74.1438 59.9887 74.1254 59.9839 74.1092 59.9747C74.0818 59.9607 74.0611 59.9366 74.0515 59.9074C74.0419 59.8783 74.0443 59.8465 74.0581 59.8191C74.0766 59.7819 76.0366 55.9225 79.6568 54.0787C79.6702 54.0715 79.6849 54.067 79.7 54.0655C79.7151 54.0641 79.7304 54.0657 79.7449 54.0702C79.7594 54.0748 79.7729 54.0822 79.7844 54.092C79.796 54.1018 79.8055 54.1139 79.8124 54.1274C79.8265 54.1549 79.8292 54.1868 79.8201 54.2163C79.811 54.2458 79.7907 54.2706 79.7636 54.2854C76.213 56.0943 74.2856 59.8864 74.2647 59.9236C74.2558 59.9431 74.2414 59.9596 74.2233 59.9712C74.2051 59.9827 74.1841 59.9888 74.1626 59.9886Z" fill="#263238"/>
<path d="M71.7243 63.084C72.4611 60.7469 72.626 58.267 72.205 55.8528C71.4758 52.0096 71.9589 49.7478 72.9876 51.2294C74.2392 53.0291 75.9321 57.9939 72.5231 63.5369C71.0509 65.9287 71.7266 63.084 71.7266 63.084" fill="#92E3A9"/>
<path d="M71.7081 64.612C71.6792 64.612 71.6507 64.6056 71.6245 64.5935C71.3388 64.475 71.4596 63.6925 71.6105 63.0562C71.6105 63.0562 71.6105 63.0562 71.6105 63.0446C72.3344 60.7256 72.4976 58.268 72.0866 55.8737C71.5571 53.0871 71.6221 50.9507 72.2654 50.686C72.5146 50.5823 72.7863 50.7417 73.0805 51.1644C74.3971 53.0616 75.9971 58.1007 72.616 63.5973C72.1098 64.4263 71.866 64.612 71.7081 64.612ZM71.8358 63.1166C71.6965 63.7087 71.643 64.3009 71.722 64.3845C71.722 64.3845 71.8892 64.3403 72.4186 63.4765C75.7393 58.0821 74.1788 53.1498 72.8831 51.2967C72.6694 50.9902 72.4767 50.8462 72.349 50.8996C71.9844 51.0529 71.7174 52.7249 72.3072 55.8296C72.7285 58.2617 72.5669 60.759 71.8358 63.1166Z" fill="#263238"/>
<path d="M72.2793 62.6173C72.2616 62.6171 72.2442 62.6131 72.2282 62.6057C72.2004 62.5921 72.1791 62.5683 72.1687 62.5392C72.1583 62.5102 72.1596 62.4782 72.1724 62.4501C72.1887 62.4153 73.798 58.932 73.1013 55.4023C73.0979 55.3873 73.0976 55.3719 73.1004 55.3568C73.1031 55.3417 73.1089 55.3273 73.1174 55.3145C73.1258 55.3017 73.1368 55.2907 73.1496 55.2823C73.1624 55.2738 73.1768 55.2681 73.1919 55.2653C73.2068 55.2623 73.2222 55.2622 73.2372 55.2651C73.2522 55.268 73.2664 55.2738 73.2791 55.2822C73.2919 55.2906 73.3028 55.3014 73.3113 55.3141C73.3199 55.3267 73.3258 55.3409 73.3289 55.3559C74.0395 58.9645 72.4 62.5151 72.3745 62.5546C72.3652 62.5722 72.3515 62.5872 72.3349 62.5982C72.3183 62.6091 72.2991 62.6157 72.2793 62.6173Z" fill="#263238"/>
<path d="M73.8769 59.0574C74.6139 56.7211 74.7787 54.2419 74.3576 51.8285C73.6284 47.9853 74.1114 45.7235 75.1425 47.2051C76.3918 49.0024 78.0847 53.9695 74.678 59.5126C73.2058 61.9044 73.8815 59.0481 73.8815 59.0481" fill="#92E3A9"/>
<path d="M73.8607 60.5854C73.832 60.5861 73.8035 60.5805 73.7771 60.5691C73.4938 60.4507 73.6123 59.6681 73.7632 59.0319C73.7632 59.0319 73.7632 59.0319 73.7632 59.0179C74.4876 56.6999 74.6508 54.2429 74.2392 51.8494C73.7098 49.0628 73.7748 46.9264 74.4181 46.6593C74.6642 46.5572 74.9382 46.7174 75.2331 47.14C76.5498 49.0372 78.1498 54.0764 74.7687 59.5729C74.2625 60.3996 74.0186 60.5854 73.8607 60.5854ZM73.9885 59.0899C73.8491 59.6844 73.7957 60.2742 73.8747 60.3601C73.8747 60.3601 74.0419 60.316 74.5713 59.4522C77.892 54.0578 76.3315 49.1255 75.0358 47.2724C74.8221 46.9659 74.6294 46.8219 74.5016 46.8753C74.1371 47.0286 73.87 48.7005 74.4599 51.8053C74.8814 54.2366 74.7198 56.7332 73.9885 59.0899Z" fill="#263238"/>
<path d="M74.1626 59.9886C74.1481 59.9919 74.133 59.9919 74.1185 59.9886C74.0904 59.9772 74.0678 59.9553 74.0557 59.9275C74.0435 59.8998 74.0427 59.8683 74.0534 59.84C74.072 59.7912 75.9599 54.9216 75.2633 51.385C75.2599 51.3701 75.2596 51.3548 75.2624 51.3398C75.2652 51.3249 75.271 51.3107 75.2795 51.2981C75.288 51.2854 75.2989 51.2747 75.3117 51.2665C75.3245 51.2583 75.3389 51.2527 75.3539 51.2503C75.3688 51.2472 75.3842 51.2471 75.3992 51.25C75.4141 51.2529 75.4284 51.2588 75.4411 51.2672C75.4538 51.2756 75.4648 51.2864 75.4733 51.2991C75.4819 51.3117 75.4878 51.3259 75.4909 51.3408C76.2014 54.9425 74.288 59.8748 74.2694 59.9329C74.2586 59.9512 74.2429 59.9662 74.224 59.976C74.2051 59.9859 74.1838 59.9902 74.1626 59.9886Z" fill="#263238"/>
<path d="M75.0009 48.7354H52.9264L40.5771 29.0991H62.6516L75.0009 48.7354Z" fill="#263238"/>
<path d="M75.0009 48.8515H52.9263C52.9068 48.8519 52.8876 48.8472 52.8704 48.8378C52.8533 48.8284 52.839 48.8147 52.8288 48.7981L40.4795 29.1595C40.4686 29.1416 40.4629 29.1212 40.4629 29.1003C40.4629 29.0794 40.4686 29.0589 40.4795 29.0411C40.4902 29.0235 40.5052 29.0089 40.5231 28.9988C40.5409 28.9886 40.5611 28.9832 40.5817 28.983H62.6562C62.6757 28.9826 62.695 28.9873 62.7121 28.9967C62.7292 29.006 62.7436 29.0197 62.7538 29.0364L75.1031 48.675C75.1139 48.6928 75.1197 48.7133 75.1197 48.7342C75.1197 48.7551 75.1139 48.7756 75.1031 48.7934C75.0924 48.811 75.0774 48.8256 75.0595 48.8357C75.0416 48.8459 75.0214 48.8513 75.0009 48.8515ZM52.9914 48.6193H74.7919L62.5866 29.2152H40.7814L52.9914 48.6193Z" fill="#263238"/>
<path d="M49.8541 48.0619H27.2292V68.0465H49.8541V48.0619Z" fill="#C7C7C7"/>
<path d="M49.8541 68.1626H27.2292C27.1984 68.1626 27.1689 68.1504 27.1471 68.1286C27.1253 68.1069 27.1131 68.0773 27.1131 68.0465V48.0619C27.1131 48.0311 27.1253 48.0016 27.1471 47.9798C27.1689 47.9581 27.1984 47.9458 27.2292 47.9458H49.8541C49.8849 47.9458 49.9144 47.9581 49.9362 47.9798C49.958 48.0016 49.9702 48.0311 49.9702 48.0619V68.0465C49.9702 68.0773 49.958 68.1069 49.9362 68.1286C49.9144 68.1504 49.8849 68.1626 49.8541 68.1626ZM27.3453 67.9304H49.738V48.178H27.3453V67.9304Z" fill="#263238"/>
<path d="M72.479 68.0465H49.8541V48.0619L61.3558 29.7725L72.479 48.0619V68.0465Z" fill="white"/>
<path d="M72.479 68.1626H49.8541C49.8234 68.1626 49.7938 68.1504 49.772 68.1286C49.7503 68.1069 49.738 68.0773 49.738 68.0465V48.0619C49.7381 48.0397 49.7445 48.0179 49.7566 47.9992L61.2583 29.7122C61.2684 29.6952 61.2826 29.6812 61.2997 29.6714C61.3168 29.6616 61.3362 29.6565 61.3559 29.6564C61.3755 29.6565 61.3949 29.6616 61.412 29.6714C61.4291 29.6812 61.4433 29.6952 61.4534 29.7122L72.5789 48.0062C72.59 48.0244 72.5956 48.0453 72.5951 48.0666V68.0465C72.5951 68.0773 72.5829 68.1069 72.5611 68.1286C72.5394 68.1504 72.5098 68.1626 72.479 68.1626ZM49.9703 67.9304H72.3629V48.0945L61.3535 29.9931L49.9749 48.0945L49.9703 67.9304Z" fill="#263238"/>
<path d="M54.7562 51.6427H52.4944V58.4304H54.7562V51.6427Z" fill="#C7C7C7"/>
<path d="M54.7562 58.5465H52.4944C52.4636 58.5465 52.4341 58.5343 52.4123 58.5125C52.3905 58.4908 52.3783 58.4612 52.3783 58.4304V51.6427C52.3783 51.6119 52.3905 51.5824 52.4123 51.5606C52.4341 51.5388 52.4636 51.5266 52.4944 51.5266H54.7562C54.787 51.5266 54.8165 51.5388 54.8383 51.5606C54.8601 51.5824 54.8723 51.6119 54.8723 51.6427V58.4304C54.8723 58.4612 54.8601 58.4908 54.8383 58.5125C54.8165 58.5343 54.787 58.5465 54.7562 58.5465ZM52.6105 58.3143H54.6401V51.7588H52.6105V58.3143Z" fill="#263238"/>
<path d="M57.018 51.6427H54.7562V58.4304H57.018V51.6427Z" fill="#263238"/>
<path d="M57.0203 58.5465H54.7562C54.7254 58.5465 54.6959 58.5343 54.6741 58.5125C54.6523 58.4908 54.6401 58.4612 54.6401 58.4304V51.6427C54.6407 51.6121 54.6531 51.5829 54.6747 51.5613C54.6964 51.5396 54.7256 51.5272 54.7562 51.5266H57.0203C57.0509 51.5272 57.0801 51.5396 57.1017 51.5613C57.1234 51.5829 57.1358 51.6121 57.1364 51.6427V58.4304C57.1364 58.4612 57.1242 58.4908 57.1024 58.5125C57.0806 58.5343 57.0511 58.5465 57.0203 58.5465ZM54.8723 58.3143H56.9042V51.7588H54.8723V58.3143Z" fill="#263238"/>
<path d="M59.2821 51.6427H57.0203V58.4304H59.2821V51.6427Z" fill="#C7C7C7"/>
<path d="M59.2821 58.5465H57.0203C56.9896 58.5465 56.96 58.5343 56.9382 58.5125C56.9165 58.4908 56.9042 58.4612 56.9042 58.4304V51.6427C56.9042 51.6119 56.9165 51.5824 56.9382 51.5606C56.96 51.5388 56.9896 51.5266 57.0203 51.5266H59.2821C59.3129 51.5266 59.3425 51.5388 59.3642 51.5606C59.386 51.5824 59.3983 51.6119 59.3983 51.6427V58.4304C59.3983 58.4612 59.386 58.4908 59.3642 58.5125C59.3425 58.5343 59.3129 58.5465 59.2821 58.5465ZM57.1365 58.3143H59.166V51.7588H57.1365V58.3143Z" fill="#263238"/>
<path d="M44.3877 51.6427H42.5021V58.4304H44.3877V51.6427Z" fill="#919191"/>
<path d="M44.3878 58.5465H42.5022C42.4714 58.5465 42.4418 58.5343 42.4201 58.5125C42.3983 58.4908 42.386 58.4612 42.386 58.4304V51.6427C42.386 51.6119 42.3983 51.5824 42.4201 51.5606C42.4418 51.5388 42.4714 51.5266 42.5022 51.5266H44.3878C44.4186 51.5266 44.4481 51.5388 44.4699 51.5606C44.4916 51.5824 44.5039 51.6119 44.5039 51.6427V58.4304C44.5039 58.4612 44.4916 58.4908 44.4699 58.5125C44.4481 58.5343 44.4186 58.5465 44.3878 58.5465ZM42.6183 58.3143H44.2647V51.7588H42.6113L42.6183 58.3143Z" fill="#263238"/>
<path d="M46.2733 51.6427H44.3877V58.4304H46.2733V51.6427Z" fill="#263238"/>
<path d="M46.2733 58.5465H44.3877C44.3569 58.5465 44.3274 58.5343 44.3056 58.5125C44.2838 58.4908 44.2716 58.4612 44.2716 58.4304V51.6427C44.2716 51.6119 44.2838 51.5824 44.3056 51.5606C44.3274 51.5388 44.3569 51.5266 44.3877 51.5266H46.2733C46.3039 51.5272 46.3331 51.5396 46.3548 51.5613C46.3764 51.5829 46.3888 51.6121 46.3894 51.6427V58.4304C46.3894 58.4612 46.3772 58.4908 46.3554 58.5125C46.3336 58.5343 46.3041 58.5465 46.2733 58.5465ZM44.5038 58.3143H46.1572V51.7588H44.4969L44.5038 58.3143Z" fill="#263238"/>
<path d="M48.1589 51.6427H46.2733V58.4304H48.1589V51.6427Z" fill="#919191"/>
<path d="M48.1589 58.5465H46.2733C46.2425 58.5465 46.213 58.5343 46.1912 58.5125C46.1695 58.4908 46.1572 58.4612 46.1572 58.4304V51.6427C46.1572 51.6119 46.1695 51.5824 46.1912 51.5606C46.213 51.5388 46.2425 51.5266 46.2733 51.5266H48.1589C48.1895 51.5272 48.2187 51.5396 48.2404 51.5613C48.262 51.5829 48.2745 51.6121 48.275 51.6427V58.4304C48.275 58.4612 48.2628 58.4908 48.241 58.5125C48.2193 58.5343 48.1897 58.5465 48.1589 58.5465ZM46.3894 58.3143H48.0428V51.7588H46.3894V58.3143Z" fill="#263238"/>
<path d="M30.4361 51.6427H28.5505V58.4304H30.4361V51.6427Z" fill="#919191"/>
<path d="M30.4361 58.5465H28.5505C28.5197 58.5465 28.4902 58.5343 28.4684 58.5125C28.4466 58.4908 28.4344 58.4612 28.4344 58.4304V51.6427C28.4344 51.6119 28.4466 51.5824 28.4684 51.5606C28.4902 51.5388 28.5197 51.5266 28.5505 51.5266H30.4361C30.4667 51.5272 30.4959 51.5396 30.5175 51.5613C30.5392 51.5829 30.5516 51.6121 30.5522 51.6427V58.4304C30.5522 58.4612 30.54 58.4908 30.5182 58.5125C30.4964 58.5343 30.4669 58.5465 30.4361 58.5465ZM28.6666 58.3143H30.3316V51.7588H28.6782L28.6666 58.3143Z" fill="#263238"/>
<path d="M32.3218 51.6427H30.4362V58.4304H32.3218V51.6427Z" fill="#263238"/>
<path d="M32.3217 58.5465H30.4361C30.4053 58.5465 30.3758 58.5343 30.354 58.5125C30.3322 58.4908 30.32 58.4612 30.32 58.4304V51.6427C30.32 51.6119 30.3322 51.5824 30.354 51.5606C30.3758 51.5388 30.4053 51.5266 30.4361 51.5266H32.3217C32.3523 51.5272 32.3815 51.5396 32.4032 51.5613C32.4248 51.5829 32.4372 51.6121 32.4378 51.6427V58.4304C32.4378 58.4612 32.4256 58.4908 32.4038 58.5125C32.382 58.5343 32.3525 58.5465 32.3217 58.5465ZM30.5522 58.3143H32.2056V51.7588H30.5638L30.5522 58.3143Z" fill="#263238"/>
<path d="M34.2073 51.6427H32.3217V58.4304H34.2073V51.6427Z" fill="#919191"/>
<path d="M34.2073 58.5465H32.3217C32.2909 58.5465 32.2614 58.5343 32.2396 58.5125C32.2179 58.4908 32.2056 58.4612 32.2056 58.4304V51.6427C32.2056 51.6119 32.2179 51.5824 32.2396 51.5606C32.2614 51.5388 32.2909 51.5266 32.3217 51.5266H34.2073C34.2379 51.5272 34.2671 51.5396 34.2888 51.5613C34.3104 51.5829 34.3229 51.6121 34.3234 51.6427V58.4304C34.3234 58.4612 34.3112 58.4908 34.2894 58.5125C34.2677 58.5343 34.2381 58.5465 34.2073 58.5465ZM32.4378 58.3143H34.0912V51.7588H32.4378V58.3143Z" fill="#263238"/>
<path d="M66.2579 51.6427H63.9961V58.4304H66.2579V51.6427Z" fill="#C7C7C7"/>
<path d="M66.2579 58.5465H64.0031C63.9723 58.5465 63.9427 58.5343 63.921 58.5125C63.8992 58.4908 63.887 58.4612 63.887 58.4304V51.6427C63.887 51.6119 63.8992 51.5824 63.921 51.5606C63.9427 51.5388 63.9723 51.5266 64.0031 51.5266H66.2649C66.2957 51.5266 66.3252 51.5388 66.347 51.5606C66.3687 51.5824 66.381 51.6119 66.381 51.6427V58.4304C66.381 58.4463 66.3778 58.462 66.3715 58.4765C66.3653 58.4911 66.3561 58.5042 66.3445 58.5151C66.333 58.526 66.3194 58.5344 66.3045 58.5398C66.2896 58.5452 66.2737 58.5475 66.2579 58.5465ZM64.1122 58.3143H66.1418V51.7588H64.1122V58.3143Z" fill="#263238"/>
<path d="M68.5197 51.6427H66.2579V58.4304H68.5197V51.6427Z" fill="#263238"/>
<path d="M68.5197 58.5465H66.2579C66.2271 58.5465 66.1976 58.5343 66.1758 58.5125C66.154 58.4908 66.1418 58.4612 66.1418 58.4304V51.6427C66.1418 51.6119 66.154 51.5824 66.1758 51.5606C66.1976 51.5388 66.2271 51.5266 66.2579 51.5266H68.5197C68.5505 51.5266 68.58 51.5388 68.6018 51.5606C68.6236 51.5824 68.6358 51.6119 68.6358 51.6427V58.4304C68.6358 58.4612 68.6236 58.4908 68.6018 58.5125C68.58 58.5343 68.5505 58.5465 68.5197 58.5465ZM66.374 58.3143H68.4152V51.7588H66.3856L66.374 58.3143Z" fill="#263238"/>
<path d="M70.7815 51.6427H68.5197V58.4304H70.7815V51.6427Z" fill="#C7C7C7"/>
<path d="M70.7838 58.5465H68.5197C68.4889 58.5465 68.4593 58.5343 68.4376 58.5125C68.4158 58.4908 68.4036 58.4612 68.4036 58.4304V51.6427C68.4042 51.6121 68.4166 51.5829 68.4382 51.5613C68.4599 51.5396 68.4891 51.5272 68.5197 51.5266H70.7838C70.8144 51.5272 70.8436 51.5396 70.8652 51.5613C70.8869 51.5829 70.8993 51.6121 70.8999 51.6427V58.4304C70.8999 58.4612 70.8877 58.4908 70.8659 58.5125C70.8441 58.5343 70.8146 58.5465 70.7838 58.5465ZM68.6358 58.3143H70.6677V51.7588H68.6474L68.6358 58.3143Z" fill="#263238"/>
<path d="M60.9796 40.5195H59.4702V44.6669H60.9796V40.5195Z" fill="#C7C7C7"/>
<path d="M60.9843 44.783H59.4749C59.4441 44.783 59.4145 44.7708 59.3928 44.749C59.371 44.7273 59.3588 44.6977 59.3588 44.6669V40.5195C59.3588 40.4887 59.371 40.4592 59.3928 40.4374C59.4145 40.4157 59.4441 40.4034 59.4749 40.4034H60.9843C61.0151 40.4034 61.0446 40.4157 61.0664 40.4374C61.0882 40.4592 61.1004 40.4887 61.1004 40.5195V44.6669C61.1004 44.6977 61.0882 44.7273 61.0664 44.749C61.0446 44.7708 61.0151 44.783 60.9843 44.783ZM59.591 44.5508H60.8682V40.6356H59.591V44.5508Z" fill="#263238"/>
<path d="M62.489 40.5195H60.9796V44.6669H62.489V40.5195Z" fill="#263238"/>
<path d="M62.4867 44.783H60.9843C60.9535 44.783 60.9239 44.7708 60.9022 44.749C60.8804 44.7273 60.8682 44.6977 60.8682 44.6669V40.5195C60.8682 40.4887 60.8804 40.4592 60.9022 40.4374C60.9239 40.4157 60.9535 40.4034 60.9843 40.4034H62.4914C62.5222 40.4034 62.5517 40.4157 62.5735 40.4374C62.5952 40.4592 62.6075 40.4887 62.6075 40.5195V44.6669C62.6075 44.6826 62.6043 44.6981 62.5982 44.7125C62.5921 44.7269 62.5831 44.7399 62.5718 44.7507C62.5606 44.7616 62.5472 44.77 62.5326 44.7756C62.5179 44.7811 62.5024 44.7837 62.4867 44.783ZM61.0934 44.5508H62.3776V40.6356H61.1027L61.0934 44.5508Z" fill="#263238"/>
<path d="M63.9961 40.5195H62.4867V44.6669H63.9961V40.5195Z" fill="#C7C7C7"/>
<path d="M64.0031 44.783H62.4937C62.4629 44.783 62.4333 44.7708 62.4116 44.749C62.3898 44.7273 62.3776 44.6977 62.3776 44.6669V40.5195C62.3776 40.4887 62.3898 40.4592 62.4116 40.4374C62.4333 40.4157 62.4629 40.4034 62.4937 40.4034H64.0031C64.0339 40.4034 64.0634 40.4157 64.0852 40.4374C64.107 40.4592 64.1192 40.4887 64.1192 40.5195V44.6669C64.1192 44.6977 64.107 44.7273 64.0852 44.749C64.0634 44.7708 64.0339 44.783 64.0031 44.783ZM62.6098 44.5508H63.887V40.6356H62.6098V44.5508Z" fill="#263238"/>
<path d="M25.9706 48.7354H50.2651L62.6144 29.0991H38.3199L25.9706 48.7354Z" fill="#8E1EFF"/>
<path d="M50.2651 48.8515H25.9706C25.95 48.8513 25.9299 48.8459 25.912 48.8357C25.8941 48.8256 25.8791 48.811 25.8684 48.7934C25.8582 48.7753 25.8529 48.7549 25.8529 48.7342C25.8529 48.7135 25.8582 48.6931 25.8684 48.675L38.227 29.0364C38.2372 29.0197 38.2515 29.006 38.2686 28.9967C38.2858 28.9873 38.305 28.9826 38.3245 28.983H62.6098C62.6304 28.9829 62.6507 28.9883 62.6686 28.9985C62.6865 29.0086 62.7015 29.0233 62.712 29.0411C62.7221 29.0591 62.7275 29.0795 62.7275 29.1003C62.7275 29.121 62.7221 29.1414 62.712 29.1595L50.3627 48.7981C50.352 48.8143 50.3376 48.8276 50.3206 48.8369C50.3036 48.8462 50.2845 48.8512 50.2651 48.8515ZM26.1819 48.6193H50.2024L62.4054 29.2152H38.3849L26.1819 48.6193Z" fill="#263238"/>
<path d="M44.9381 37.9675H35.3452V44.3163H44.9381V37.9675Z" fill="#C7C7C7"/>
<path d="M44.9404 44.4347H35.3452C35.3146 44.4341 35.2854 44.4217 35.2637 44.4C35.2421 44.3784 35.2297 44.3492 35.2291 44.3186V37.9675C35.2297 37.9369 35.2421 37.9077 35.2637 37.886C35.2854 37.8644 35.3146 37.852 35.3452 37.8514H44.9404C44.971 37.852 45.0002 37.8644 45.0218 37.886C45.0435 37.9077 45.0559 37.9369 45.0565 37.9675V44.3186C45.0559 44.3492 45.0435 44.3784 45.0218 44.4C45.0002 44.4217 44.971 44.4341 44.9404 44.4347ZM35.4613 44.2025H44.8243V38.0836H35.4613V44.2025Z" fill="#263238"/>
<path d="M44.9404 37.9698L51.5702 33.416L44.9404 44.3186V37.9698Z" fill="white"/>
<path d="M44.9404 44.4347H44.9079C44.8838 44.4277 44.8626 44.413 44.8475 44.3929C44.8324 44.3728 44.8243 44.3484 44.8243 44.3232V37.9675C44.8245 37.9489 44.8291 37.9307 44.8375 37.9142C44.846 37.8977 44.8581 37.8833 44.873 37.8723L51.5028 33.3208C51.5235 33.304 51.5494 33.2949 51.576 33.2949C51.6026 33.2949 51.6284 33.304 51.6491 33.3208C51.668 33.3397 51.68 33.3643 51.6834 33.3908C51.6867 33.4173 51.6812 33.4441 51.6677 33.4671L45.0379 44.3697C45.0291 44.3884 45.0154 44.4043 44.9982 44.4157C44.981 44.4272 44.961 44.4337 44.9404 44.4347ZM45.0565 38.0302V43.9029L51.1893 33.8177L45.0565 38.0302Z" fill="#263238"/>
<path d="M34.5765 38.1834H44.6246L51.5702 33.416H41.5221L34.5765 38.1834Z" fill="#8E1EFF"/>
<path d="M44.6246 38.2995H34.5766C34.5517 38.2997 34.5275 38.2919 34.5075 38.2772C34.4874 38.2626 34.4726 38.2419 34.4651 38.2183C34.4583 38.1945 34.4591 38.1691 34.4674 38.1458C34.4757 38.1224 34.4912 38.1023 34.5115 38.0882L41.4572 33.3208C41.476 33.3071 41.4988 33.2997 41.5222 33.2999H51.5702C51.5948 33.3002 51.6186 33.3083 51.6383 33.323C51.658 33.3378 51.6725 33.3584 51.6798 33.3819C51.687 33.4054 51.6866 33.4305 51.6786 33.4538C51.6706 33.477 51.6554 33.4972 51.6352 33.5112L44.6919 38.281C44.6714 38.2928 44.6483 38.2992 44.6246 38.2995ZM34.9504 38.0673H44.5898L51.194 33.5321H41.5593L34.9504 38.0673Z" fill="#263238"/>
<path d="M39.2047 39.3166H37.6953V43.464H39.2047V39.3166Z" fill="#919191"/>
<path d="M39.2024 43.5802H37.6953C37.6645 43.5802 37.6349 43.5679 37.6132 43.5461C37.5914 43.5244 37.5792 43.4948 37.5792 43.464V39.3166C37.5792 39.2859 37.5914 39.2563 37.6132 39.2345C37.6349 39.2128 37.6645 39.2005 37.6953 39.2005H39.2024C39.2332 39.2005 39.2627 39.2128 39.2845 39.2345C39.3062 39.2563 39.3185 39.2859 39.3185 39.3166V43.464C39.3185 43.4948 39.3062 43.5244 39.2845 43.5461C39.2627 43.5679 39.2332 43.5802 39.2024 43.5802ZM37.8091 43.3479H39.0839V39.4328H37.8091V43.3479Z" fill="#263238"/>
<path d="M40.7117 39.3166H39.2023V43.464H40.7117V39.3166Z" fill="#263238"/>
<path d="M40.7117 43.5802H39.2023C39.1715 43.5802 39.142 43.5679 39.1202 43.5461C39.0984 43.5244 39.0862 43.4948 39.0862 43.464V39.3166C39.0862 39.2859 39.0984 39.2563 39.1202 39.2345C39.142 39.2128 39.1715 39.2005 39.2023 39.2005H40.7117C40.7425 39.2005 40.772 39.2128 40.7938 39.2345C40.8156 39.2563 40.8278 39.2859 40.8278 39.3166V43.464C40.8278 43.4948 40.8156 43.5244 40.7938 43.5461C40.772 43.5679 40.7425 43.5802 40.7117 43.5802ZM39.3184 43.3479H40.5956V39.4328H39.3184V43.3479Z" fill="#263238"/>
<path d="M42.2211 39.3166H40.7117V43.464H42.2211V39.3166Z" fill="#919191"/>
<path d="M42.2188 43.5802H40.7118C40.681 43.5802 40.6514 43.5679 40.6297 43.5461C40.6079 43.5244 40.5956 43.4948 40.5956 43.464V39.3166C40.5956 39.2859 40.6079 39.2563 40.6297 39.2345C40.6514 39.2128 40.681 39.2005 40.7118 39.2005H42.2188C42.2496 39.2005 42.2792 39.2128 42.3009 39.2345C42.3227 39.2563 42.3349 39.2859 42.3349 39.3166V43.464C42.3349 43.4948 42.3227 43.5244 42.3009 43.5461C42.2792 43.5679 42.2496 43.5802 42.2188 43.5802ZM40.8255 43.3479H42.1004V39.4328H40.8279L40.8255 43.3479Z" fill="#263238"/>
<path d="M56.7672 26.1198H55.9219V32.2805L56.7672 30.9197V26.1198Z" fill="white"/>
<path d="M55.922 32.3966H55.8918C55.867 32.3895 55.8453 32.3746 55.8298 32.3541C55.8143 32.3335 55.8059 32.3085 55.8058 32.2828V26.1198C55.8058 26.089 55.8181 26.0594 55.8399 26.0377C55.8616 26.0159 55.8912 26.0037 55.922 26.0037H56.7672C56.798 26.0037 56.8275 26.0159 56.8493 26.0377C56.8711 26.0594 56.8833 26.089 56.8833 26.1198V30.9197C56.8828 30.9411 56.8764 30.962 56.8648 30.9801L56.0218 32.3432C56.0111 32.3599 55.9963 32.3735 55.9788 32.3829C55.9614 32.3922 55.9418 32.3969 55.922 32.3966ZM56.0381 26.2359V31.8741L56.6511 30.8872V26.2428L56.0381 26.2359Z" fill="#263238"/>
<path d="M55.9614 26.1198H53.4674V32.2805H55.9614V26.1198Z" fill="#C7C7C7"/>
<path d="M55.9614 32.3966H53.4674C53.4366 32.3966 53.407 32.3844 53.3853 32.3626C53.3635 32.3408 53.3513 32.3113 53.3513 32.2805V26.1198C53.3513 26.089 53.3635 26.0594 53.3853 26.0377C53.407 26.0159 53.4366 26.0037 53.4674 26.0037H55.9614C55.9922 26.0037 56.0217 26.0159 56.0435 26.0377C56.0653 26.0594 56.0775 26.089 56.0775 26.1198V32.2805C56.0775 32.3113 56.0653 32.3408 56.0435 32.3626C56.0217 32.3844 55.9922 32.3966 55.9614 32.3966ZM53.5835 32.1644H55.8453V26.2359H53.5835V32.1644Z" fill="#263238"/>
<path d="M41.4478 52.7852H35.6401V68.0465H41.4478V52.7852Z" fill="#263238"/>
<path d="M41.4455 68.1626H35.6401C35.6093 68.1626 35.5798 68.1504 35.558 68.1286C35.5362 68.1069 35.524 68.0773 35.524 68.0465V52.7852C35.524 52.7544 35.5362 52.7249 35.558 52.7031C35.5798 52.6814 35.6093 52.6691 35.6401 52.6691H41.4455C41.4763 52.6691 41.5058 52.6814 41.5276 52.7031C41.5494 52.7249 41.5616 52.7544 41.5616 52.7852V68.0465C41.5616 68.0773 41.5494 68.1069 41.5276 68.1286C41.5058 68.1504 41.4763 68.1626 41.4455 68.1626ZM35.7562 67.9304H41.3294V52.9013H35.7562V67.9304Z" fill="#263238"/>
<path d="M41.139 60.3973C41.139 60.2958 41.1089 60.1966 41.0525 60.1122C40.9961 60.0278 40.916 59.962 40.8222 59.9232C40.7284 59.8843 40.6252 59.8742 40.5257 59.894C40.4261 59.9138 40.3347 59.9626 40.2629 60.0344C40.1912 60.1062 40.1423 60.1976 40.1225 60.2972C40.1027 60.3967 40.1128 60.4999 40.1517 60.5937C40.1905 60.6875 40.2563 60.7676 40.3407 60.824C40.4251 60.8804 40.5243 60.9105 40.6258 60.9105C40.7619 60.9105 40.8925 60.8564 40.9887 60.7602C41.0849 60.6639 41.139 60.5334 41.139 60.3973Z" fill="white"/>
<path d="M40.6258 61.0266C40.5007 61.0271 40.3783 60.9903 40.274 60.9211C40.1698 60.8519 40.0885 60.7533 40.0404 60.6378C39.9923 60.5223 39.9796 60.3951 40.0039 60.2723C40.0282 60.1496 40.0884 60.0368 40.1769 59.9484C40.2654 59.8599 40.3781 59.7997 40.5009 59.7754C40.6236 59.7511 40.7508 59.7638 40.8663 59.8119C40.9818 59.86 41.0804 59.9413 41.1497 60.0455C41.2189 60.1497 41.2556 60.2722 41.2551 60.3973C41.2551 60.4799 41.2389 60.5618 41.2072 60.6381C41.1756 60.7145 41.1293 60.7838 41.0708 60.8423C41.0124 60.9007 40.943 60.9471 40.8667 60.9787C40.7903 61.0103 40.7085 61.0266 40.6258 61.0266ZM40.6258 59.9979C40.5467 59.9974 40.4693 60.0205 40.4033 60.0641C40.3373 60.1077 40.2858 60.1699 40.2552 60.2428C40.2246 60.3158 40.2163 60.3962 40.2315 60.4738C40.2466 60.5514 40.2845 60.6228 40.3403 60.6789C40.396 60.735 40.4672 60.7733 40.5447 60.7889C40.6223 60.8045 40.7027 60.7967 40.7758 60.7665C40.8489 60.7364 40.9115 60.6852 40.9554 60.6194C40.9994 60.5537 41.0229 60.4764 41.0229 60.3973C41.0232 60.345 41.0132 60.2931 40.9934 60.2446C40.9735 60.1962 40.9443 60.1521 40.9074 60.115C40.8705 60.0779 40.8267 60.0484 40.7783 60.0283C40.73 60.0082 40.6782 59.9979 40.6258 59.9979Z" fill="#263238"/>
<path d="M26.0333 64.8535C26.0333 64.8535 21.1683 62.1923 16.6308 61.707C12.0933 61.2217 9.45996 63.3325 9.48318 64.2475C9.50641 65.1624 12.6576 65.2367 13.2567 65.39C13.8558 65.5432 17.5063 64.5331 22.896 65.8149C28.2858 67.0968 28.9778 67.3592 28.9778 67.3592L26.0333 64.8535Z" fill="white"/>
<path d="M28.9755 67.466C28.9616 67.4682 28.9475 67.4682 28.9337 67.466C28.9035 67.466 28.1581 67.1827 22.8682 65.9241C20.0609 65.2646 17.1591 65.1074 14.297 65.4596C13.9429 65.5214 13.5824 65.5378 13.2242 65.5084C12.9738 65.4605 12.7211 65.4257 12.4672 65.4039C11.2411 65.2692 9.38565 65.0625 9.36475 64.2591C9.36475 63.9525 9.58071 63.5787 9.99173 63.2002C11.0832 62.1714 13.4053 61.2426 16.6308 61.5839C21.1428 62.0739 26.031 64.7258 26.0797 64.7514L26.0983 64.7653L29.0405 67.2616C29.0585 67.277 29.0713 67.2975 29.0773 67.3203C29.0833 67.3432 29.0822 67.3673 29.0742 67.3896C29.0661 67.4118 29.0514 67.431 29.0321 67.4447C29.0128 67.4583 28.9898 67.4658 28.9662 67.466H28.9755ZM17.3275 65.0324C19.2123 65.0336 21.0904 65.2549 22.9239 65.6919C26.2492 66.4837 27.7865 66.8854 28.4785 67.0852L25.9659 64.958C25.7151 64.821 20.9826 62.2968 16.6146 61.8208C13.4564 61.4771 11.2039 62.392 10.1473 63.3604C9.79667 63.6832 9.59232 64.0129 9.59696 64.2428C9.6109 64.8443 11.4872 65.0533 12.4927 65.1717C12.7576 65.1945 13.0211 65.2309 13.2822 65.2808C13.6138 65.2989 13.9464 65.2802 14.2738 65.2251C15.2875 65.1065 16.3069 65.0422 17.3275 65.0324Z" fill="#263238"/>
<path d="M23.999 64.7932C23.999 64.7932 18.9228 62.5616 14.3574 62.4594C9.79201 62.3572 7.35373 64.691 7.45591 65.6059C7.55808 66.5209 10.7069 66.3165 11.313 66.4164C11.9191 66.5162 15.4697 65.1903 20.9547 66.0123C26.4396 66.8344 27.1456 67.0271 27.1456 67.0271L23.999 64.7932Z" fill="white"/>
<path d="M27.1432 67.1432H27.1131C27.0829 67.1432 26.3166 66.9272 20.9361 66.1307C18.0827 65.7122 15.1778 65.8018 12.3557 66.3955C12.0086 66.4874 11.6512 66.535 11.2921 66.5371C11.1574 66.5139 10.8672 66.5069 10.5281 66.4976C9.29505 66.4675 7.42803 66.421 7.33979 65.6222C7.30728 65.3203 7.49537 64.9255 7.87156 64.5145C8.87474 63.4208 11.104 62.2713 14.3597 62.3479C18.8972 62.4478 23.9944 64.6701 24.0455 64.691L24.0664 64.7026L27.2106 66.9365C27.233 66.9521 27.2493 66.975 27.2565 67.0013C27.2638 67.0277 27.2615 67.0557 27.2501 67.0805C27.2396 67.0996 27.2241 67.1156 27.2053 67.1266C27.1865 67.1376 27.1651 67.1434 27.1432 67.1432ZM17.3901 65.6315C18.5884 65.6283 19.7852 65.7137 20.9709 65.8869C24.352 66.3885 25.9171 66.6579 26.6254 66.7902L23.941 64.8861C23.6786 64.7723 18.7463 62.6637 14.3551 62.5639C11.1783 62.4873 9.01407 63.5973 8.0434 64.6538C7.72295 65.0045 7.54646 65.3505 7.57897 65.5827C7.64399 66.1795 9.52959 66.2283 10.5421 66.2515C10.8081 66.2513 11.074 66.2653 11.3386 66.2933C11.67 66.2816 11.9992 66.2349 12.3208 66.154C13.992 65.8105 15.6934 65.6355 17.3994 65.6315H17.3901Z" fill="#263238"/>
<path d="M88.8665 62.9145L81.8187 61.0104C81.8187 61.0104 76.8284 57.0487 70.8093 57.4876C64.7903 57.9265 59.3587 60.2742 57.5962 61.5979C55.8337 62.9215 53.6322 64.2405 53.1841 64.5354C52.7359 64.8303 46.7238 63.2141 43.4936 64.5354C40.2635 65.8567 37.7695 68.4994 37.7695 68.4994C37.7695 68.4994 24.1151 64.3868 20.7387 63.8016C17.3623 63.2164 13.3983 63.5067 10.6094 65.5618C7.82048 67.6169 8.41728 68.9336 9.8965 69.2285C11.3757 69.5234 11.659 68.0535 19.7332 70.2549C27.8074 72.4563 37.6302 78.1944 41.5941 80.3842C45.5581 82.574 52.16 85.6695 56.5721 84.3482C60.9842 83.0268 73.0131 78.4754 75.802 78.4754C78.5909 78.4754 87.5475 79.0629 87.5475 79.0629L88.8665 62.9145Z" fill="white"/>
<path d="M54.2035 84.7824C50.207 84.7824 45.2724 82.5601 41.5384 80.4864L40.4214 79.8617C36.0882 77.4327 27.0806 72.389 19.6914 70.3664C13.9092 68.7896 12.1281 69.1054 11.0622 69.2935C10.6693 69.3898 10.2611 69.4063 9.86167 69.3423C9.14876 69.1983 8.67736 68.8291 8.5659 68.3275C8.44282 67.7795 8.68897 66.8367 10.5514 65.4643C13.0338 63.6344 16.7585 62.9842 20.7689 63.6809C23.9921 64.2428 36.6967 68.0489 37.744 68.3623C38.1155 67.9838 40.4934 65.6361 43.4588 64.4147C45.7183 63.4858 49.3037 63.9827 51.4448 64.2753C52.2134 64.3821 53.0076 64.489 53.1283 64.4263C53.2491 64.3636 53.4093 64.2451 53.6555 64.0919C54.5309 63.5415 56.1564 62.5221 57.5265 61.4934C59.4098 60.0815 64.9319 57.7895 70.8 57.3599C76.6055 56.9373 81.5238 60.6249 81.8721 60.8942L88.8967 62.7961C88.9227 62.8031 88.9453 62.8191 88.9606 62.8412C88.9759 62.8633 88.9829 62.8901 88.9803 62.9169L87.659 79.0652C87.6581 79.0804 87.6542 79.0952 87.6475 79.1088C87.6408 79.1225 87.6314 79.1346 87.62 79.1446C87.6085 79.1545 87.5952 79.1621 87.5807 79.1668C87.5663 79.1715 87.551 79.1733 87.5359 79.172C87.4477 79.172 78.5538 78.5845 75.7997 78.5845C73.8885 78.5845 67.4863 80.779 62.3427 82.5322C59.9903 83.3403 57.9584 84.037 56.6023 84.4434C55.8234 84.6723 55.0153 84.7865 54.2035 84.7824ZM12.7272 68.9057C14.0369 68.9057 16.1106 69.1542 19.7518 70.1481C27.1618 72.1684 36.1927 77.2307 40.5352 79.669C40.9439 79.9012 41.3178 80.1079 41.6522 80.2913C46.1409 82.7877 52.3667 85.4976 56.5349 84.239C57.8865 83.835 59.9184 83.1383 62.2684 82.3325C67.4282 80.563 73.849 78.3616 75.7997 78.3616C78.3912 78.3616 86.3864 78.8748 87.4384 78.9421L88.7411 63.0051L81.7885 61.1218C81.7734 61.1177 81.7591 61.1106 81.7467 61.1009C81.698 61.0614 76.7239 57.1672 70.8163 57.6014C64.9969 58.0264 59.5282 60.2928 57.6658 61.6884C56.2888 62.7218 54.647 63.7459 53.7785 64.2962C53.5347 64.4495 53.3536 64.5633 53.256 64.6283C53.0912 64.7398 52.6012 64.6794 51.4146 64.5145C49.2944 64.2242 45.7485 63.7389 43.5471 64.6399C40.3773 65.9357 37.8879 68.5504 37.8624 68.576C37.8476 68.5918 37.8285 68.603 37.8076 68.6083C37.7866 68.6137 37.7645 68.6129 37.744 68.6062C37.6069 68.5667 24.0594 64.4913 20.7294 63.9131C16.7817 63.2164 13.122 63.8597 10.6884 65.6524C8.83062 67.0201 8.70523 67.8863 8.79115 68.2787C8.87707 68.6712 9.29041 68.9917 9.90811 69.1171C10.2793 69.1748 10.6584 69.1575 11.0228 69.066C11.5844 68.9576 12.1552 68.9039 12.7272 68.9057Z" fill="#263238"/>
<path d="M85.0326 72.6258L78.9764 78.4406L87.5452 79.0629L85.0326 72.6258Z" fill="#263238"/>
<path d="M87.5452 79.179L78.9787 78.5567C78.9562 78.555 78.9345 78.5469 78.9164 78.5333C78.8983 78.5197 78.8845 78.5012 78.8766 78.48C78.8697 78.4587 78.8689 78.436 78.8742 78.4142C78.8795 78.3925 78.8908 78.3727 78.9067 78.357L84.963 72.5515C84.977 72.539 84.9938 72.5299 85.012 72.5251C85.0303 72.5203 85.0494 72.52 85.0678 72.5241C85.0862 72.5282 85.1033 72.5366 85.1178 72.5486C85.1323 72.5607 85.1437 72.576 85.1511 72.5933L87.6613 79.0304C87.6684 79.0487 87.6708 79.0684 87.6684 79.0879C87.666 79.1073 87.6588 79.1259 87.6474 79.1419C87.6346 79.1558 87.6186 79.1664 87.6008 79.1729C87.583 79.1793 87.564 79.1814 87.5452 79.179ZM79.2458 78.343L87.3734 78.9352L84.9885 72.8302L79.2458 78.343Z" fill="#263238"/>
<path d="M38.645 73.7451C37.6813 73.7451 37.0799 73.4572 36.8755 72.6351C36.7081 71.9154 36.6937 71.1685 36.8333 70.4428C36.9729 69.7172 37.2634 69.029 37.686 68.4227C37.7054 68.4005 37.7326 68.3865 37.7621 68.3837C37.7915 68.3808 37.8209 68.3893 37.8443 68.4073C37.8677 68.4254 37.8833 68.4517 37.888 68.4809C37.8926 68.51 37.886 68.5399 37.8694 68.5644C37.8578 68.5806 36.5481 70.3408 37.1008 72.5794C37.4212 73.8682 38.847 73.6406 42.04 73.002C43.0687 72.7954 43.4078 72.6189 43.705 72.461C44.2902 72.1544 44.6757 71.9501 49.3688 71.8828C54.5077 71.8108 59.8186 71.6854 62.6609 71.618C63.7314 71.5948 64.3793 71.5786 64.4931 71.5786C64.5239 71.5786 64.5534 71.5908 64.5752 71.6126C64.597 71.6343 64.6092 71.6639 64.6092 71.6947C64.6092 71.7255 64.597 71.755 64.5752 71.7768C64.5534 71.7985 64.5239 71.8108 64.4931 71.8108C64.3816 71.8108 63.6989 71.827 62.6655 71.8502C59.8162 71.9176 54.5124 72.043 49.3734 72.115C44.7291 72.1823 44.3668 72.3751 43.8118 72.6677C43.2723 72.9504 42.689 73.1404 42.0865 73.2296C40.663 73.5129 39.5089 73.7451 38.645 73.7451Z" fill="#263238"/>
<path d="M37.7277 73.5896H37.7091C37.694 73.5873 37.6795 73.5821 37.6664 73.5742C37.6533 73.5663 37.6419 73.5559 37.6329 73.5436C37.6238 73.5313 37.6173 73.5173 37.6136 73.5025C37.6099 73.4877 37.6093 73.4723 37.6116 73.4572C37.6834 73.1241 37.8261 72.8105 38.0301 72.5376C38.2341 72.2647 38.4945 72.039 38.7935 71.8758C38.8679 71.8363 40.5236 70.9841 41.601 70.9841C41.9569 70.9981 42.3028 71.1052 42.6043 71.2947C42.9059 71.4841 43.1524 71.7494 43.3195 72.0639C43.3792 72.1545 43.411 72.2607 43.411 72.3693C43.411 72.4778 43.3792 72.584 43.3195 72.6746C43.3097 72.6864 43.2977 72.6961 43.2842 72.7032C43.2707 72.7103 43.2559 72.7147 43.2407 72.7161C43.21 72.7189 43.1795 72.7094 43.1557 72.6897C43.132 72.67 43.1171 72.6417 43.1143 72.611C43.1115 72.5803 43.1209 72.5497 43.1406 72.526C43.1987 72.4563 43.1894 72.324 43.1151 72.1637C42.9662 71.8894 42.749 71.6581 42.4846 71.4921C42.2202 71.3262 41.9175 71.2312 41.6057 71.2163C40.5839 71.2163 38.9259 72.0709 38.9097 72.0778C38.6432 72.2259 38.4108 72.4283 38.2276 72.6719C38.0444 72.9155 37.9144 73.1949 37.8461 73.492C37.8416 73.5199 37.8271 73.5452 37.8053 73.5631C37.7835 73.5811 37.7559 73.5905 37.7277 73.5896Z" fill="#263238"/>
<path d="M46.8515 71.8386C46.8207 71.8386 46.7912 71.8264 46.7694 71.8046C46.7476 71.7829 46.7354 71.7533 46.7354 71.7225V70.4732C46.7354 70.4424 46.7476 70.4129 46.7694 70.3911C46.7912 70.3693 46.8207 70.3571 46.8515 70.3571C46.8823 70.3571 46.9118 70.3693 46.9336 70.3911C46.9554 70.4129 46.9676 70.4424 46.9676 70.4732V71.7225C46.9676 71.7533 46.9554 71.7829 46.9336 71.8046C46.9118 71.8264 46.8823 71.8386 46.8515 71.8386Z" fill="#263238"/>
<path d="M47.5389 71.1513H47.5157C47.5004 71.1496 47.4856 71.1448 47.4722 71.1373C47.4587 71.1298 47.4469 71.1197 47.4374 71.1076C47.4279 71.0955 47.4209 71.0817 47.4168 71.0668C47.4127 71.052 47.4116 71.0365 47.4135 71.0212C47.4925 70.4539 47.472 69.8771 47.3531 69.3168C47.3453 69.2866 47.3497 69.2546 47.3654 69.2276C47.381 69.2007 47.4067 69.181 47.4367 69.1728C47.4663 69.1649 47.4978 69.1691 47.5243 69.1843C47.5508 69.1995 47.5702 69.2246 47.5784 69.2541C47.7059 69.8439 47.7279 70.4516 47.6434 71.0491C47.6403 71.0755 47.6283 71.1001 47.6093 71.1187C47.5902 71.1373 47.5654 71.1488 47.5389 71.1513Z" fill="#263238"/>
<path d="M85.5737 59.9956H95.0412V85.8343H85.5737C85.2972 85.8343 85.032 85.7245 84.8365 85.529C84.6409 85.3334 84.5311 85.0682 84.5311 84.7917V61.0382C84.5311 60.7617 84.6409 60.4965 84.8365 60.301C85.032 60.1054 85.2972 59.9956 85.5737 59.9956Z" fill="#4CA9C7"/>
<path d="M95.0412 85.9505H85.5737C85.2657 85.9505 84.9704 85.8281 84.7527 85.6104C84.5349 85.3926 84.4126 85.0973 84.4126 84.7894V61.0382C84.4126 60.7303 84.5349 60.435 84.7527 60.2172C84.9704 59.9995 85.2657 59.8771 85.5737 59.8771H95.0412C95.072 59.8771 95.1015 59.8894 95.1233 59.9111C95.145 59.9329 95.1573 59.9625 95.1573 59.9932V85.8343C95.1573 85.8651 95.145 85.8947 95.1233 85.9164C95.1015 85.9382 95.072 85.9505 95.0412 85.9505ZM85.5737 60.1117C85.3273 60.1117 85.0911 60.2095 84.9169 60.3837C84.7427 60.5579 84.6448 60.7942 84.6448 61.0405V84.7917C84.6448 85.038 84.7427 85.2743 84.9169 85.4485C85.0911 85.6227 85.3273 85.7206 85.5737 85.7206H94.9251V60.1117H85.5737Z" fill="#263238"/>
<path d="M95.1202 58.6673H111.884V87.8523H95.1202C94.9102 87.8523 94.7087 87.7689 94.5602 87.6204C94.4117 87.4719 94.3283 87.2705 94.3283 87.0605V59.4615C94.328 59.3573 94.3483 59.2541 94.3879 59.1577C94.4276 59.0614 94.4859 58.9738 94.5594 58.9C94.633 58.8263 94.7204 58.7677 94.8166 58.7278C94.9128 58.6879 95.016 58.6673 95.1202 58.6673Z" fill="#4CA9C7"/>
<path d="M111.884 87.9684H95.1201C94.8791 87.9684 94.6479 87.8728 94.4773 87.7026C94.3066 87.5324 94.2105 87.3015 94.2098 87.0605V59.4615C94.2105 59.2204 94.3066 58.9895 94.4773 58.8193C94.6479 58.6491 94.8791 58.5535 95.1201 58.5535H111.884C111.915 58.5535 111.944 58.5657 111.966 58.5875C111.988 58.6093 112 58.6388 112 58.6696V87.8523C112 87.8831 111.988 87.9126 111.966 87.9344C111.944 87.9562 111.915 87.9684 111.884 87.9684ZM95.1201 58.7857C95.0312 58.7854 94.9431 58.8027 94.8608 58.8365C94.7786 58.8703 94.7038 58.92 94.6408 58.9828C94.5778 59.0456 94.5278 59.1202 94.4937 59.2023C94.4596 59.2845 94.4421 59.3725 94.4421 59.4615V87.0605C94.4421 87.1494 94.4596 87.2375 94.4937 87.3196C94.5278 87.4017 94.5778 87.4763 94.6408 87.5391C94.7038 87.6019 94.7786 87.6516 94.8608 87.6854C94.9431 87.7193 95.0312 87.7365 95.1201 87.7362H111.768V58.7857H95.1201Z" fill="#263238"/>
<path d="M93.8012 62.478H85.9871C85.9563 62.478 85.9267 62.4657 85.905 62.444C85.8832 62.4222 85.871 62.3927 85.871 62.3619C85.8716 62.3313 85.884 62.3021 85.9056 62.2804C85.9273 62.2588 85.9565 62.2463 85.9871 62.2458H93.8012C93.832 62.2458 93.8615 62.258 93.8833 62.2798C93.9051 62.3015 93.9173 62.3311 93.9173 62.3619C93.9173 62.3927 93.9051 62.4222 93.8833 62.444C93.8615 62.4657 93.832 62.478 93.8012 62.478Z" fill="#263238"/>
<path d="M93.6967 65.5456H85.7525C85.7217 65.5456 85.6922 65.5333 85.6704 65.5115C85.6486 65.4898 85.6364 65.4602 85.6364 65.4294C85.6364 65.3987 85.6486 65.3691 85.6704 65.3473C85.6922 65.3256 85.7217 65.3133 85.7525 65.3133H93.6967C93.7275 65.3133 93.757 65.3256 93.7788 65.3473C93.8005 65.3691 93.8128 65.3987 93.8128 65.4294C93.8122 65.4601 93.7998 65.4892 93.7781 65.5109C93.7565 65.5325 93.7273 65.545 93.6967 65.5456Z" fill="#263238"/>
<path d="M90.9077 71.1188H85.4738C85.443 71.1188 85.4135 71.1065 85.3917 71.0848C85.37 71.063 85.3577 71.0334 85.3577 71.0027C85.3577 70.9719 85.37 70.9423 85.3917 70.9206C85.4135 70.8988 85.443 70.8865 85.4738 70.8865H90.9077C90.9385 70.8865 90.968 70.8988 90.9898 70.9206C91.0116 70.9423 91.0238 70.9719 91.0238 71.0027C91.0238 71.0334 91.0116 71.063 90.9898 71.0848C90.968 71.1065 90.9385 71.1188 90.9077 71.1188Z" fill="#263238"/>
<path d="M93.6966 71.1188H91.883C91.8522 71.1188 91.8227 71.1065 91.8009 71.0848C91.7791 71.063 91.7669 71.0334 91.7669 71.0027C91.7675 70.972 91.7799 70.9429 91.8016 70.9212C91.8232 70.8996 91.8524 70.8871 91.883 70.8865H93.6966C93.7272 70.8871 93.7564 70.8996 93.7781 70.9212C93.7997 70.9429 93.8121 70.972 93.8127 71.0027C93.8127 71.0334 93.8005 71.063 93.7787 71.0848C93.757 71.1065 93.7274 71.1188 93.6966 71.1188Z" fill="#263238"/>
</svg>
