<svg width="310" height="220" viewBox="0 0 310 220" fill="none" xmlns="http://www.w3.org/2000/svg">
<path d="M261.551 31.7259C257.07 27.4345 252.09 23.6974 246.718 20.5952C229.2 10.3168 209.638 3.1347 189.431 0.786425C187.481 0.563908 185.521 0.379265 183.561 0.246701C138.039 -2.87328 107.337 24.1508 88.3988 50.1285C69.4612 76.1063 42.1673 60.175 14.2342 97.9367C-13.6989 135.698 1.45125 174.147 42.4892 193.894C83.5271 213.641 136.297 201.512 170.096 193.198C203.895 184.884 237.003 213.636 269.078 172.759C293.153 142.076 293.134 95.8962 279.897 60.7242C275.479 48.9923 269.637 39.5424 261.551 31.7259Z" fill="#92E3A9"/>
<path opacity="0.7" d="M261.551 31.7259C257.07 27.4345 252.09 23.6974 246.718 20.5952C229.2 10.3168 209.638 3.1347 189.431 0.786425C187.481 0.563908 185.521 0.379265 183.561 0.246701C138.039 -2.87328 107.337 24.1508 88.3988 50.1285C69.4612 76.1063 42.1673 60.175 14.2342 97.9367C-13.6989 135.698 1.45125 174.147 42.4892 193.894C83.5271 213.641 136.297 201.512 170.096 193.198C203.895 184.884 237.003 213.636 269.078 172.759C293.153 142.076 293.134 95.8962 279.897 60.7242C275.479 48.9923 269.637 39.5424 261.551 31.7259Z" fill="white"/>
<path opacity="0.3" d="M274.954 50.0149C274.954 50.0149 270.949 30.4191 257.584 31.7542C251.509 32.3602 247.443 35.4092 243.92 40.1389C239.399 46.2084 237.765 42.6813 231.308 44.6697C225.517 46.4546 226.408 51.3547 222.843 52.2448C219.277 53.1348 216.607 49.1248 211.707 50.0149C206.807 50.9049 204.132 55.8051 204.132 55.8051H293.22C292.983 54.1435 292.267 52.5869 291.16 51.3256C290.052 50.0644 288.601 49.1532 286.984 48.7034C281.189 46.8996 278.519 51.3547 274.954 50.0149Z" stroke="black" stroke-miterlimit="10"/>
<path opacity="0.3" d="M64.4948 48.7177C64.4948 48.7177 61.9619 36.3466 53.5299 37.1894C49.6903 37.5776 47.129 39.495 44.9038 42.4825C42.0631 46.3126 41.031 44.0874 36.9452 45.3231C33.2903 46.4499 33.8536 49.5415 31.6001 50.1049C29.3465 50.6683 27.6658 48.1353 24.5742 48.6845C21.4826 49.2337 19.7924 52.3395 19.7924 52.3395H76.0184C75.8726 51.2879 75.4224 50.3018 74.7234 49.5027C74.0244 48.7036 73.107 48.1263 72.0841 47.8418C68.4291 46.7482 66.7437 49.5604 64.4948 48.7177Z" stroke="black" stroke-miterlimit="10"/>
<path opacity="0.3" d="M206.925 174.535C206.925 174.535 204.7 163.669 197.291 164.413C193.924 164.749 191.671 166.439 189.716 169.062C187.206 172.423 186.311 170.482 182.723 171.571C179.513 172.561 180.005 175.278 178.031 175.771C176.057 176.263 174.575 174.042 171.876 174.535C169.178 175.027 167.682 177.745 167.682 177.745H217.062C216.933 176.821 216.537 175.956 215.923 175.254C215.309 174.553 214.504 174.046 213.605 173.796C210.372 172.807 208.89 175.278 206.925 174.535Z" stroke="black" stroke-miterlimit="10"/>
<path opacity="0.3" d="M89.0054 155.465C89.0054 155.465 86.7802 144.604 79.3708 145.342C76.0047 145.679 73.7511 147.369 71.7958 149.992C69.2913 153.353 68.3964 151.412 64.8078 152.501C61.5978 153.49 62.0902 156.208 60.1159 156.7C58.1417 157.193 56.6598 154.972 53.9612 155.465C51.2626 155.957 49.7665 158.675 49.7665 158.675H99.1465C99.0181 157.751 98.6225 156.885 98.0084 156.184C97.3944 155.482 96.5886 154.976 95.6904 154.726C92.4615 153.713 90.9796 156.184 89.0054 155.465Z" stroke="black" stroke-miterlimit="10"/>
<path d="M254.014 64.3318L263.748 71.5423L195.605 113.006L183.348 136.082L105.107 164.924L23.6463 218.669H71.5444L122.776 180.065L200.652 151.582L214.353 126.343L279.972 81.2763L293.674 91.7346L309.179 53.8735V49.5273L254.014 64.3318Z" fill="#263238" stroke="#263238" stroke-linecap="round" stroke-linejoin="round"/>
<path d="M254.014 59.9809L263.747 67.1914L195.605 108.655L183.348 131.731L105.107 160.573L18.8218 218.669H66.6962L122.775 175.718L200.652 147.236L214.353 121.997L279.972 76.9301L293.674 87.3837L309.179 49.5273L254.014 59.9809Z" fill="white" stroke="#263238" stroke-linecap="round" stroke-linejoin="round"/>
<path d="M195.813 142.653L197.409 143.988" stroke="#263238" stroke-linecap="round" stroke-linejoin="round"/>
<path d="M186.231 134.614L193.829 140.992" stroke="#263238" stroke-linecap="round" stroke-linejoin="round"/>
<path d="M198.488 109.74L203.535 113.343" stroke="#263238" stroke-linecap="round" stroke-linejoin="round"/>
<path d="M120.252 174.274L105.769 164.1" stroke="#263238" stroke-linecap="round" stroke-linejoin="round"/>
<path d="M254.014 64.3318V59.9808L263.748 67.1914L260.543 69.1798L254.014 64.3318Z" fill="white" stroke="#263238" stroke-linecap="round" stroke-linejoin="round"/>
<path d="M293.674 91.7346V87.3837L279.972 76.9301V81.2763L293.674 91.7346Z" fill="white" stroke="#263238" stroke-miterlimit="10"/>
<path d="M128.608 85.4994L125.768 90.8398C125.768 90.8398 126.454 91.7441 126.714 91.5973C126.975 91.4505 128.371 89.0312 128.371 89.0312L127.254 93.1644C127.254 93.1644 127.704 93.8793 127.983 93.5668C128.263 93.2543 129.28 90.2953 129.536 90.2527C129.792 90.2101 130.393 89.1401 130.393 89.1401L129.361 92.4968C129.361 92.4968 128.973 94.0734 129.659 93.9645C130.346 93.8556 130.393 92.3311 130.393 92.3311L131.851 90.0918L131.307 92.4968C131.307 92.4968 132.254 93.1691 132.4 92.5915C132.547 92.0139 133.063 89.7509 133.063 89.7509C133.063 89.7509 135.431 86.9102 135.705 86.593C135.98 86.2758 137.376 82.8481 137.376 82.8481L135.265 79.8749L128.608 85.4994Z" fill="white" stroke="#263238" stroke-linecap="round" stroke-linejoin="round"/>
<path d="M134.872 80.5377L129.247 82.0007C129.247 82.0007 127.538 86.1669 127.05 86.8866C126.563 87.6062 127.15 87.7435 128.026 87.3932C128.902 87.0428 130.421 85.0638 130.421 85.0638C130.421 85.0638 133.096 85.4615 133.982 84.0128" fill="white"/>
<path d="M134.872 80.5377L129.247 82.0007C129.247 82.0007 127.538 86.1669 127.05 86.8866C126.563 87.6062 127.15 87.7435 128.026 87.3932C128.902 87.0428 130.421 85.0638 130.421 85.0638C130.421 85.0638 133.096 85.4615 133.982 84.0128" stroke="#263238" stroke-linecap="round" stroke-linejoin="round"/>
<path d="M129.797 87.4595L132.211 88.8514" stroke="#263238" stroke-linecap="round" stroke-linejoin="round"/>
<path d="M169.395 34.3582L181.094 64.2134L182.126 67.447C182.126 67.447 170.863 72.153 168.524 72.5271C167.432 72.6759 166.353 72.9053 165.295 73.2135L153.511 43.6613L157.507 37.2982L167.08 33.3166L169.395 34.3582Z" fill="white" stroke="#263238" stroke-linecap="round" stroke-linejoin="round"/>
<path d="M169.462 50.0291L174.968 67.3618" stroke="#263238" stroke-linecap="round" stroke-linejoin="round"/>
<path d="M166.384 133.445C166.22 135 165.975 136.545 165.65 138.075C165.29 139.387 164.145 142.975 164.315 143.913C164.485 144.85 165.399 148.865 165.958 149.163C166.517 149.461 167.35 149.532 167.804 149.163C168.259 148.794 170.569 144.287 170.787 142.715C171.005 141.143 170.858 136.016 170.891 135.613C170.924 135.211 166.384 133.445 166.384 133.445Z" fill="#263238" stroke="#263238" stroke-linecap="round" stroke-linejoin="round"/>
<path d="M215.74 104.148C215.74 104.148 219.528 105.9 220.03 105.943C220.531 105.985 224.849 106.416 224.849 106.416C224.849 106.416 228.428 105.715 228.987 106.014C229.546 106.312 229.352 107.638 229.352 107.638C229.352 107.638 222.151 111.463 221.128 111.709C220.105 111.955 218.879 111.52 218.193 111.709L217.506 111.903L218.084 112.959L213.78 115.274C213.78 115.274 211.886 113.096 211.811 111.837C211.735 110.578 211.687 108.39 211.687 108.39L211.072 105.82L215.74 104.148Z" fill="#263238" stroke="#263238" stroke-linecap="round" stroke-linejoin="round"/>
<path d="M168.406 33.6575C168.406 33.6575 176.454 54.2002 177.978 57.3628C179.503 60.5254 180.857 64.3413 182.031 65.3308C183.205 66.3203 179.006 54.8583 178.608 52.6047C178.21 50.3511 178.272 46.1375 178.272 46.1375L213.648 34.0031L212.322 29.5954L182.779 33.132C182.779 33.132 176.766 32.4692 175.507 32.5118C174.248 32.5544 168.406 33.6575 168.406 33.6575Z" fill="#92E3A9" stroke="#263238" stroke-linecap="round" stroke-linejoin="round"/>
<path d="M171.09 33.1699C169.636 33.4255 168.406 33.6433 168.406 33.6433C168.406 33.6433 174.039 47.9839 176.771 54.5458C176.544 50.7691 175.988 47.0195 175.109 43.3394C174.132 39.8174 172.784 36.4087 171.09 33.1699Z" fill="#92E3A9" stroke="#263238" stroke-linecap="round" stroke-linejoin="round"/>
<path d="M179.357 36.9811L178.272 46.1374L181.094 37.4261" stroke="#263238" stroke-linecap="round" stroke-linejoin="round"/>
<path d="M212.323 29.5954L214.496 29.264L215.353 33.1131L213.648 33.9984L212.323 29.5954Z" fill="white" stroke="#263238" stroke-linecap="round" stroke-linejoin="round"/>
<path d="M222.288 28.1561C222.288 28.1561 224.111 28.4591 224.073 28.8994C224.035 29.3397 223.386 31.74 223.386 31.74C222.513 31.9579 221.599 31.9579 220.726 31.74C219.575 31.3471 219.201 30.4996 219.49 29.709C219.779 28.9183 222.288 28.1561 222.288 28.1561Z" fill="white" stroke="#263238" stroke-linecap="round" stroke-linejoin="round"/>
<path d="M220.957 29.0035L222.463 29.5764L222.302 31.4134" stroke="#263238" stroke-linecap="round" stroke-linejoin="round"/>
<path d="M220.403 29.4012L221.298 30.2156C221.351 30.4349 221.351 30.6638 221.298 30.8831" stroke="#263238" stroke-linecap="round" stroke-linejoin="round"/>
<path d="M214.5 29.2639L220.181 27.9714C220.181 27.9714 225.631 25.7037 225.825 26.0161C225.936 26.1539 225.99 26.3293 225.975 26.5057C225.96 26.6822 225.877 26.846 225.744 26.963C225.422 27.2329 221.45 28.6674 220.982 28.9988C220.513 29.3302 220.219 30.1161 220.555 30.5186C220.754 30.7972 221.016 31.0245 221.32 31.1818C221.624 31.339 221.96 31.4216 222.302 31.4228C223.126 31.3424 225.143 31.0725 225.195 31.3755C225.247 31.6785 225.432 32.062 224.722 32.3224C224.012 32.5828 222.932 32.4644 222.407 32.5686C221.881 32.6727 219.755 33.3024 218.946 33.2314C218.205 33.118 217.477 32.9325 216.773 32.6775L215.329 33.1509L214.5 29.2639Z" fill="white" stroke="#263238" stroke-linecap="round" stroke-linejoin="round"/>
<path d="M180.412 64.275C180.412 64.275 186.33 75.7796 186.794 75.7891C187.258 75.7986 192.618 71.7601 192.76 71.5754C192.902 71.3908 185.62 67.2293 183.565 65.0893C181.511 62.9493 179.697 60.5774 179.697 60.5774L180.412 64.275Z" fill="#92E3A9" stroke="#263238" stroke-linecap="round" stroke-linejoin="round"/>
<path d="M182.126 67.447L184.966 72.3992C184.966 72.3992 199.818 70.6901 204.851 70.354C209.884 70.0178 211.659 70.5528 211.659 70.5528L216.658 104.134L208.672 107.675L201.205 82.5546C201.205 82.5546 184.578 87.0854 182.149 87.36C180.93 87.4689 179.723 87.686 178.542 88.0086C178.542 88.0086 173.959 119.043 173.608 123.143C173.258 127.243 173.286 134.742 173.286 134.742L170.986 136.948C170.986 136.948 166.019 134.311 165.778 133.904C165.536 133.497 163.018 95.4227 163.018 95.4227L162.071 80.5472L165.29 73.2325L182.126 67.447Z" fill="#92E3A9" stroke="#263238" stroke-linecap="round" stroke-linejoin="round"/>
<path d="M167.132 74.2267L182.827 68.8295L182.126 67.447L166.91 72.617L167.132 74.2267Z" fill="#263238" stroke="#263238" stroke-linecap="round" stroke-linejoin="round"/>
<path d="M173.727 70.2735L174.461 72.03L177.979 70.7848L177.316 69.0994L173.727 70.2735Z" fill="white" stroke="#263238" stroke-linecap="round" stroke-linejoin="round"/>
<path d="M170.399 102.785L170.366 100.877" stroke="#263238" stroke-linecap="round" stroke-linejoin="round"/>
<path d="M170.986 136.929L170.432 104.792" stroke="#263238" stroke-linecap="round" stroke-linejoin="round"/>
<path d="M178.542 87.9897C178.542 87.9897 179.465 81.6077 181.359 77.8202" stroke="#263238" stroke-linecap="round" stroke-linejoin="round"/>
<path d="M182.306 74.8517C182.306 74.8517 179.555 79.3494 179.134 80.3294" stroke="#263238" stroke-linecap="round" stroke-linejoin="round"/>
<path d="M206.243 80.9449L207.612 80.514" stroke="#263238" stroke-linecap="round" stroke-linejoin="round"/>
<path d="M201.205 82.5356L204.832 81.3899" stroke="#263238" stroke-linecap="round" stroke-linejoin="round"/>
<path d="M164.789 45.2048L168.808 47.7472L170.073 41.8433L165.537 40.442L164.789 45.2048Z" fill="#263238" stroke="#263238" stroke-linecap="round" stroke-linejoin="round"/>
<path d="M166.598 42.7855L163.17 50.3132L158.62 38.1552L168.406 33.6575L173.794 43.8555L166.598 42.7855Z" fill="white" stroke="#263238" stroke-linecap="round" stroke-linejoin="round"/>
<path d="M136.292 78.5919L134.436 80.533L137.391 83.8518L138.347 82.351L136.292 78.5919Z" stroke="#263238" stroke-linecap="round" stroke-linejoin="round"/>
<path d="M157.507 37.2983L146.324 46.0996L145.198 69.1183L135.729 79.0606L138.503 83.2742L152.233 72.4277L154.098 59.3181L156.697 66.7985L153.691 85.0828C155.762 85.9005 157.88 86.5915 160.035 87.1517C163.184 87.9282 167.208 87.4263 167.208 87.4263L167.899 65.4728L159.084 36.9479L157.507 37.2983Z" fill="#92E3A9" stroke="#263238" stroke-linecap="round" stroke-linejoin="round"/>
<path d="M157.952 70.2972L166.01 71.0736V74.1747L157.796 72.9342" fill="#92E3A9"/>
<path d="M157.952 70.2972L166.01 71.0736V74.1747L157.796 72.9342" stroke="#263238" stroke-linecap="round" stroke-linejoin="round"/>
<path d="M159.065 36.9243L157.507 37.2983L155.466 38.9032C156.407 42.4285 157.626 45.8734 159.112 49.2053C160.826 52.9929 164.069 57.3769 166.214 60.0945L159.065 36.9243Z" fill="#92E3A9" stroke="#263238" stroke-linecap="round" stroke-linejoin="round"/>
<path d="M168.808 47.7471L160.958 54.3753L146.39 52.4484L139.492 57.8693L138.006 61.3823L143.938 62.3291L149.534 56.288C149.534 56.288 160.788 58.357 161.398 58.1534C162.009 57.9498 168.027 49.7498 168.027 49.7498L168.808 47.7471Z" fill="#263238" stroke="#263238" stroke-linecap="round" stroke-linejoin="round"/>
<path d="M152.28 22.186C152.28 22.186 150.259 22.7684 149.326 21.5611C148.393 20.3538 147.778 18.7914 148.602 19.0518C149.297 19.3165 149.962 19.6546 150.585 20.0603C150.585 20.0603 150.268 17.2196 150.936 17.0776C151.603 16.9356 151.883 18.1949 151.883 18.1949C151.883 18.1949 154.789 16.0928 158.037 15.7093C161.285 15.3259 166.086 17.1533 166.786 17.8682C167.487 18.5831 167.018 25.0361 166.881 25.4954C166.744 25.9546 166.469 27.0577 165.967 27.3892C165.466 27.7206 164.301 28.1845 163.69 27.6637C163.079 27.143 163.141 26.3949 162.028 26.2055C160.916 26.0162 158.189 25.9688 158.009 24.8231C157.829 23.6774 159.031 21.6226 157.905 21.6179C156.778 21.6132 153.966 22.5979 153.213 22.6263C152.46 22.6547 152.28 22.186 152.28 22.186Z" fill="#263238" stroke="#263238" stroke-linecap="round" stroke-linejoin="round"/>
<path d="M152.281 22.186V27.9241L153.426 29.4344L152.953 34.8506L155.32 34.6754C155.32 34.6754 156.897 39.3246 157.356 39.4572C157.815 39.5897 159.804 38.3493 159.804 38.3493C159.804 38.3493 166.266 43.0411 166.569 42.7855C166.872 42.5298 168.127 34.4576 168.34 34.1925C168.553 33.9274 167.393 29.6948 167.393 29.6948C167.393 29.6948 168.311 27.801 168.056 26.3807C167.8 24.9604 167.345 24.8136 167.345 24.8136C167.345 24.8136 166.356 24.2597 166.029 24.8136C165.703 25.3675 164.708 27.053 164.708 27.053L163.264 25.235C163.264 25.235 159.16 24.8846 159.207 24.3212C159.254 23.7578 160.154 20.9267 159.898 20.6189C159.643 20.3112 154.776 20.5337 152.281 22.186Z" fill="white" stroke="#263238" stroke-linecap="round" stroke-linejoin="round"/>
<path d="M157.843 28.9894C158.032 29.4628 157.994 29.9362 157.758 30.0215C157.521 30.1067 157.175 29.8084 156.981 29.335C156.787 28.8615 156.83 28.3881 157.066 28.3076C157.303 28.2271 157.649 28.5159 157.843 28.9894Z" fill="#263238"/>
<path d="M154.458 28.4449C154.458 28.4449 155.831 31.3471 156.664 31.5744C157.497 31.8016 159.86 31.3045 160.163 30.4807C160.466 29.6569 159.632 26.7263 159.632 26.7263L154.458 28.4449Z" stroke="#263238" stroke-linecap="round" stroke-linejoin="round"/>
<path d="M159.633 26.7264L166.071 24.7805" stroke="#263238" stroke-linecap="round" stroke-linejoin="round"/>
<path d="M154.457 28.4449L150.372 30.1067C150.372 30.1067 151.295 31.9674 152.862 31.7117" stroke="#263238" stroke-linecap="round" stroke-linejoin="round"/>
<path d="M158.16 34.0978C158.16 34.0978 160.423 33.828 160.911 31.7827" stroke="#263238" stroke-linecap="round" stroke-linejoin="round"/>
<path d="M159.832 38.3493C159.832 38.3493 163.245 36.0058 163.662 35.6554C164.078 35.3051 164.5 34.022 164.5 34.022C164.5 34.022 164.026 37.9279 163.704 38.7565C163.382 39.585 163.018 40.475 163.018 40.475L159.832 38.3493Z" fill="#263238" stroke="#263238" stroke-linecap="round" stroke-linejoin="round"/>
<path d="M167.435 29.6948C167.435 29.6948 166.909 31.1388 166.053 31.2192" stroke="#263238" stroke-linecap="round" stroke-linejoin="round"/>
<path d="M155.726 27.1619C156.006 26.74 156.411 26.416 156.883 26.2352C157.356 26.0544 157.874 26.0258 158.363 26.1535" stroke="#263238" stroke-linecap="round" stroke-linejoin="round"/>
<path d="M115.925 95.0581L116.972 92.3074L119.149 90.248C119.149 90.248 119.907 88.8702 120.366 89.1496C120.825 89.4289 120.556 89.7272 120.366 90.2716C120.021 90.8524 119.597 91.3828 119.107 91.8482C119.107 91.8482 123.368 89.0075 123.605 88.946C123.841 88.8845 124.551 89.3437 124.173 89.7982C123.794 90.2527 120.925 92.1654 120.925 92.1654L125.593 90.0775C125.593 90.0775 125.967 91.3132 125.46 91.5878C124.954 91.8624 122.321 93.6473 122.321 93.6473C122.321 93.6473 124.371 93.0981 124.954 92.8282C125.536 92.5584 125.782 93.4626 125.356 93.7467C124.93 94.0308 122.307 95.6405 122.307 95.6405C122.307 95.6405 124.845 95.0534 124.736 95.3659C124.627 95.6783 124.689 95.9245 123.955 96.0997C123.221 96.2749 120.295 97.6289 120.295 97.6289L116.266 98.8078L115.925 95.0581Z" fill="white" stroke="#263238" stroke-linecap="round" stroke-linejoin="round"/>
<path d="M114.452 96.024L115.929 95.0582L117.685 98.8883L115.583 100.195L114.452 96.024Z" fill="white" stroke="#263238" stroke-linecap="round" stroke-linejoin="round"/>
<path d="M59.2112 131.125C59.2112 131.125 59.6231 136.153 59.5805 136.655C59.5379 137.157 61.711 139.462 62.2696 139.846C62.8283 140.229 64.8262 139.642 64.8262 139.642C64.8262 139.642 67.023 136.702 66.8431 135.855C66.7535 135.363 66.4917 134.92 66.1045 134.605L63.3917 132.062L62.5253 130.988L59.2112 131.125Z" fill="white" stroke="#263238" stroke-linecap="round" stroke-linejoin="round"/>
<path d="M63.0363 136.868L61.9142 138.122C61.9142 138.122 62.435 138.932 62.9558 138.804L63.4718 138.681" stroke="#263238" stroke-linecap="round" stroke-linejoin="round"/>
<path d="M62.5248 130.988C62.5248 130.988 65.3654 133.511 65.9288 133.729C66.1654 133.836 66.3633 134.014 66.4954 134.237C66.6276 134.461 66.6876 134.72 66.6674 134.979C65.7865 135.899 64.8369 136.75 63.8267 137.526C63.287 137.905 62.8041 137.606 63.0361 136.868C63.2681 136.129 63.7888 134.974 63.7888 134.974C63.7888 134.974 62.681 135.045 62.4206 134.179" fill="white"/>
<path d="M62.5248 130.988C62.5248 130.988 65.3654 133.511 65.9288 133.729C66.1654 133.836 66.3633 134.014 66.4954 134.237C66.6276 134.461 66.6876 134.72 66.6674 134.979C65.7865 135.899 64.8369 136.75 63.8267 137.526C63.287 137.905 62.8041 137.606 63.0361 136.868C63.2681 136.129 63.7888 134.974 63.7888 134.974C63.7888 134.974 62.681 135.045 62.4206 134.179" stroke="#263238" stroke-linecap="round" stroke-linejoin="round"/>
<path d="M58.9883 128.824L59.2156 131.125C59.2156 131.125 60.4181 131.906 61.2703 131.812C61.9528 131.671 62.6052 131.412 63.1972 131.045L63.8885 129.459L58.9883 128.824Z" fill="white" stroke="#263238" stroke-linecap="round" stroke-linejoin="round"/>
<path d="M106.65 163.414C106.65 163.414 105.059 169.133 105.04 170.321C105.093 171.581 105.213 172.838 105.4 174.085C105.4 174.085 105.873 174.559 107.071 174.398C107.926 174.333 108.758 174.086 109.509 173.673C109.784 173.441 109.751 171.827 109.751 171.827C109.751 171.827 110.925 172.011 111.758 172.168C112.591 172.324 115.323 171.221 116.384 170.695C117.444 170.17 119.428 168.835 119.698 167.755C119.968 166.676 119.224 166.188 118.898 166.16C118.571 166.131 114.405 166.112 113.486 165.947C112.568 165.781 111.001 164.209 110.939 163.949C110.878 163.688 106.65 163.414 106.65 163.414Z" fill="#263238" stroke="#263238" stroke-linecap="round" stroke-linejoin="round"/>
<path d="M84.2409 186.196L84.4398 188.842C84.4398 188.842 86.3335 191.299 86.9206 191.602C87.5077 191.905 88.7576 191.929 88.8617 192.701C88.9659 193.473 89.1884 193.832 88.5729 194.121C87.9575 194.41 85.5003 195.3 84.5629 195.305C83.6255 195.31 81.9116 194.566 81.9116 194.566L81.6559 195.565C81.1066 195.775 80.5199 195.868 79.9326 195.84C79.25 195.83 78.5729 195.715 77.9252 195.499C77.9252 195.499 77.5181 193.345 77.7027 192.185C77.8873 191.025 78.6496 187.924 78.6496 187.924L79.3124 185.178L84.2409 186.196Z" fill="#263238" stroke="#263238" stroke-linecap="round" stroke-linejoin="round"/>
<path d="M74.2669 132.162L76.421 136.66L82.4101 158.405L78.8025 185.67C78.8025 185.67 80.1518 186.717 81.2454 186.811C82.3391 186.906 85.0566 186.712 85.0566 186.712L91.4149 157.908L92.4802 136.603L109.089 137.266L105.774 164.105C105.774 164.105 107.843 164.621 108.615 164.683C109.79 164.633 110.96 164.508 112.119 164.309C112.119 164.309 119.911 130.831 120.143 130.088C120.248 129.865 120.299 129.619 120.291 129.372C120.282 129.125 120.216 128.884 120.096 128.668C119.883 128.223 100.822 123.63 100.822 123.63C100.822 123.63 78.4663 132.522 74.2669 132.162Z" fill="#92E3A9" stroke="#263238" stroke-linecap="round" stroke-linejoin="round"/>
<path d="M92.4942 136.598L82.9685 135.968L92.0728 142.668L92.4942 136.598Z" fill="#263238" stroke="#263238" stroke-linecap="round" stroke-linejoin="round"/>
<path d="M74.2951 88.0134C74.2951 88.0134 68.6138 91.4033 68.2398 92.5632C67.8658 93.7231 60.054 112.732 59.9877 113.522C59.9214 114.313 58.5011 129.691 58.5011 129.691C59.2828 129.996 60.1007 130.2 60.9346 130.297C62.1182 130.396 63.8889 129.459 63.8889 129.459L67.3545 113.361L73.5708 105.753L75.384 112.467L71.0473 132.953C71.0473 132.953 78.3194 135.064 85.956 132.953C93.5926 130.841 102.266 123.517 102.266 123.517C102.266 123.517 97.811 115.184 96.5848 113.489C95.3586 111.794 94.298 110.014 94.298 110.014L94.4069 106.445C94.4069 106.445 100.959 113.466 101.674 113.229C102.389 112.992 116.408 100.181 116.408 100.181L114.476 96.0382L101.717 102.302C101.717 102.302 95.3112 87.7388 93.9666 87.2275C92.6221 86.7162 89.6678 86.3611 89.6678 86.3611C89.6678 86.3611 80.4877 84.1738 74.2951 88.0134Z" fill="#92E3A9" stroke="#263238" stroke-linecap="round" stroke-linejoin="round"/>
<path d="M83.5935 62.9777C84.1616 63.6295 84.6481 64.3481 85.0422 65.1177C85.7761 66.5001 85.9607 67.9915 87.078 68.5549C88.1954 69.1183 89.753 69.0283 89.7104 69.5538C89.6678 70.0794 88.7872 71.263 88.7872 71.263C88.7872 71.263 90.0797 76.1063 89.7767 76.9443C89.4737 77.7823 85.6624 79.6192 85.6624 79.6192V83.9701L80.0332 84.4199C79.0891 82.0295 78.3139 79.5758 77.7134 77.0768C77.0505 73.9142 80.1563 72.0867 80.0806 68.356C80.0048 64.6253 80.6534 62.58 81.4441 62.4143C82.2347 62.2486 83.5935 62.9777 83.5935 62.9777Z" fill="white" stroke="#263238" stroke-linecap="round" stroke-linejoin="round"/>
<path d="M86.0125 68.6591C86.2019 69.1325 86.1782 69.606 85.9604 69.677C85.7426 69.748 85.4112 69.4497 85.2218 68.9763C85.0325 68.5028 85.0561 68.0294 85.2739 67.9537C85.4917 67.8779 85.8231 68.1809 86.0125 68.6591Z" fill="#263238"/>
<path d="M84.445 67.5512C84.445 67.5512 84.3693 66.6044 85.283 66.8458" stroke="#263238" stroke-linecap="round" stroke-linejoin="round"/>
<path d="M89.2367 73.242C89.0495 73.4425 88.806 73.5819 88.5383 73.6419C88.2705 73.7018 87.9909 73.6796 87.7359 73.5781" stroke="#263238" stroke-linecap="round" stroke-linejoin="round"/>
<path d="M82.8211 64.7721C82.8211 64.7721 84.0615 67.518 83.4318 69.4071C83.015 70.6148 82.4471 71.7649 81.7417 72.8301C81.7417 72.8301 80.4965 74.667 80.7048 75.8506C80.9131 77.0342 82.163 81.4846 82.5323 81.7497L82.8969 82.0148L83.678 82.8576C83.678 82.8576 79.578 85.381 75.1087 85.9302C70.6394 86.4794 67.6994 85.3715 67.1123 85.0117C66.7288 84.7715 66.3618 84.5058 66.0139 84.2163C66.0139 84.2163 68.2912 80.2962 68.3338 76.1678C68.3764 72.0394 67.117 69.5396 68.3338 65.9225C69.5505 62.3054 78.8158 60.4543 78.8158 60.4543C78.8158 60.4543 79.2419 59.0908 81.0173 59.2423C82.7927 59.3938 84.5681 63.1198 84.5681 63.1198L82.8211 64.7721Z" fill="#263238" stroke="#263238" stroke-linecap="round" stroke-linejoin="round"/>
<path d="M82.3243 74.203C82.3243 74.203 80.9418 72.2193 80.1843 73.7864C79.4268 75.3535 81.8508 77.8864 83.0818 77.1384" fill="white"/>
<path d="M82.3243 74.203C82.3243 74.203 80.9418 72.2193 80.1843 73.7864C79.4268 75.3535 81.8508 77.8864 83.0818 77.1384" stroke="#263238" stroke-linecap="round" stroke-linejoin="round"/>
<path d="M80.4493 83.4731C80.4493 83.4731 84.9564 83.0659 85.7423 83.1322C86.5282 83.1985 88.4125 84.4531 88.4125 84.4531L88.2847 85.9349C88.2847 85.9349 83.9149 84.7655 81.4861 85.2532C79.0573 85.7408 75.587 86.8156 75.587 86.8156L76.283 84.4862C76.283 84.4862 78.6549 83.5015 80.4493 83.4731Z" fill="white" stroke="#263238" stroke-linecap="round" stroke-linejoin="round"/>
<path d="M74.2948 88.0134L75.1092 85.9302C75.1092 85.9302 81.0508 84.4768 83.366 84.2211C85.3848 84.046 87.4132 84.4258 89.2319 85.3195C89.844 85.6523 90.3247 86.1831 90.5954 86.8251C90.5954 86.8251 85.9178 85.7314 81.7989 86.2711C79.2484 86.6148 76.7359 87.1982 74.2948 88.0134Z" fill="#92E3A9" stroke="#263238" stroke-linecap="round" stroke-linejoin="round"/>
<path d="M94.3827 106.43L88.4268 100.545C88.4268 100.545 87.0917 98.7415 87.8445 95.7257" stroke="#263238" stroke-linecap="round" stroke-linejoin="round"/>
<path d="M73.5706 105.739L70.0671 96.7957" stroke="#263238" stroke-linecap="round" stroke-linejoin="round"/>
</svg>
