<svg width="257" height="257" viewBox="0 0 257 257" fill="none" xmlns="http://www.w3.org/2000/svg">
<path d="M223.332 179.386C220.994 181.519 218.593 183.58 216.172 185.554C199.436 199.293 180.064 209.455 158.193 211.418L156.579 211.552C115.716 214.549 116.487 165.806 111.594 153.82C106.7 141.833 23.8745 133.229 9.63158 104.342C-2.57078 79.67 12.474 57.054 34.0003 44.168C48.8652 35.2809 65.7141 29.8839 82.4654 25.8593C132.097 13.9294 185.039 15.4816 225.039 51.0504C229.896 55.368 233.633 59.9324 237.375 65.1957C247.829 79.891 254.758 97.4287 255.288 115.568C256.023 140.862 241.965 162.27 223.934 178.846L223.332 179.386Z" fill="#F0E9FF"/>
<path opacity="0.7" d="M223.332 179.386C220.994 181.519 218.593 183.58 216.172 185.554C199.436 199.293 180.064 209.455 158.193 211.418L156.579 211.552C115.716 214.549 116.487 165.806 111.594 153.82C106.7 141.833 23.8745 133.229 9.63158 104.342C-2.57078 79.67 12.474 57.054 34.0003 44.168C48.8652 35.2809 65.7141 29.8839 82.4654 25.8593C132.097 13.9294 185.039 15.4816 225.039 51.0504C229.896 55.368 233.633 59.9324 237.375 65.1957C247.829 79.891 254.758 97.4287 255.288 115.568C256.023 140.862 241.965 162.27 223.934 178.846L223.332 179.386Z" fill="#F0E9FF"/>
<path d="M209.127 129.996V190.956H140.605L141.068 129.996L141.351 129.404L153.903 103.016L159.901 90.4022L161.124 87.8373L175.1 58.4468L175.388 59.0533L194.329 98.878L209.127 129.996Z" fill="#DBDBDB"/>
<path d="M210.717 188.34L209.124 188.633L196.592 190.956H165.778L143.414 143.678L141.348 129.404L153.9 103.016L159.898 90.4022L161.121 87.8373L175.097 58.4468L175.385 59.0533L166.369 126.069L174.233 108.14L173.92 143.051L184.611 129.528V149.029L180.838 142.424L177.379 171.984L196.248 127.328L209.124 181.622L210.717 188.34Z" fill="#B8B8B8"/>
<path d="M159.898 90.4022L158.824 92.6586L171.088 78.2615L175.18 95.244L179.898 80.7801L184.93 87.3593L186.801 83.0571L175.385 59.0533L175.097 58.4468L161.122 87.8373L159.898 90.4022Z" fill="white" stroke="#263238" stroke-linecap="round" stroke-linejoin="round"/>
<path d="M209.127 129.996V190.956H140.605L141.068 129.996L141.351 129.404L153.903 103.016L159.901 90.4022L161.124 87.8373L175.1 58.4468L175.388 59.0533L194.329 98.878L209.127 129.996Z" stroke="#263238" stroke-linecap="round" stroke-linejoin="round"/>
<path d="M243.215 201.107L230.278 192.416L228.458 208.586L216.127 203.734L213.1 221.518L192.077 207.779H174.293L175.3 189.789L195.089 147.24L195.984 145.323L207.641 120.26L216.94 138.05L218.533 141.874L220.769 147.24L243.215 201.107Z" fill="#DBDBDB"/>
<path d="M229.129 182.963L230.44 192.524L235.199 195.726L229.129 182.963Z" fill="#B8B8B8"/>
<path d="M216.127 203.734L225.883 207.573L224.722 203.852L221.19 197.967L223.837 194.143L223.334 179.396L213.835 192.673L213.249 164.428L203.833 183.256L208.829 122.532L207.641 120.26L195.984 145.323L195.089 147.24L175.3 189.789L174.293 207.779H192.077L213.1 221.518L216.127 203.734Z" fill="#B8B8B8"/>
<path d="M244.562 203.852L208.741 117.351L168.238 204.639" stroke="#263238" stroke-linecap="round" stroke-linejoin="round"/>
<path d="M212.303 149.697L214.95 147.286L221.452 154.508L221.992 149.353L208.741 117.351L193.306 150.622L193.285 150.9L207.009 136.456L212.303 149.697Z" fill="white" stroke="#263238" stroke-linecap="round" stroke-linejoin="round"/>
<path d="M184.381 222.634L185.584 236.836L175.859 232.04L163.122 225.759L150.92 219.745L144.418 224.803L126.608 217.34L110.72 232.744L98.1988 221.914L83.2773 225.04L84.2385 210.596L109.887 153.218L113.218 145.76L135.993 94.8125L143.456 111.903L150.437 121.052L181.133 195.428L186.925 188.062L205.805 232.261L184.381 222.634Z" fill="#DBDBDB"/>
<path d="M139.637 183.308L133.665 175.762L137.438 138.019L120.141 172.303L135.238 107.827L136.194 95.2648L135.993 94.8125L113.218 145.76L109.887 153.218L84.2385 210.596L83.2773 225.04L98.1988 221.914L110.72 232.744L126.608 217.34L131.969 219.586L133.351 197.777L144.042 205.641L142.783 175.762L139.637 183.308Z" fill="#B8B8B8"/>
<path d="M208.242 238.064L186.926 188.062L181.133 195.428L137.603 90.3252L85.8633 207.27" stroke="#263238" stroke-linecap="round" stroke-linejoin="round"/>
<path d="M153.019 127.549L137.604 90.3252L119.562 131.106L133.6 115.475L142.199 121.427L143.52 117.13L153.019 127.549Z" fill="white" stroke="#263238" stroke-linecap="round" stroke-linejoin="round"/>
<path d="M175.859 232.04L163.122 225.759L154.363 186.669L175.859 232.04Z" fill="#B8B8B8"/>
<path d="M186.178 90.4026H159.902L161.126 87.8326H161.203C162.426 87.7093 162.549 86.856 164.261 86.6093C165.973 86.3626 167.201 87.3443 168.548 86.7327C169.895 86.121 170.753 83.7926 173.446 84.1627C176.14 84.5328 179.933 88.4443 179.933 88.4443C181.403 88.4443 182.015 88.0793 183.608 88.691C184.577 89.0707 185.454 89.6545 186.178 90.4026Z" fill="#263238" stroke="#263238" stroke-linecap="round" stroke-linejoin="round"/>
<path d="M181.26 87.1179C181.26 87.1179 177.462 83.1961 174.769 82.8311C172.075 82.4662 171.217 84.7895 169.87 85.4011C168.523 86.0128 167.3 85.0362 165.589 85.2778C163.877 85.5194 163.748 86.3829 162.505 86.5062C161.261 86.6296 160.423 85.7712 159.076 85.9922C157.729 86.2133 157.02 87.709 156.259 87.709C155.499 87.709 154.301 86.8506 152.954 86.8506C151.608 86.8506 149.526 88.0739 149.526 88.0739L141.199 89.0557H187.505C186.783 88.3048 185.906 87.7192 184.935 87.3389C183.342 86.7478 182.73 87.1179 181.26 87.1179Z" fill="white" stroke="#263238" stroke-linecap="round" stroke-linejoin="round"/>
<path d="M228.535 77.198C228.535 77.198 224.742 73.2813 222.049 72.9112C219.355 72.5411 218.497 74.8695 217.15 75.4812C215.804 76.0929 214.58 75.1111 212.864 75.3578C211.147 75.6046 211.029 76.4578 209.805 76.5812C208.582 76.7045 207.724 75.8461 206.377 76.0929C205.03 76.3396 204.295 77.8045 203.56 77.8045C202.825 77.8045 201.602 76.9461 200.255 76.9461C198.908 76.9461 196.827 78.1746 196.827 78.1746L188.5 79.1512H234.76C234.036 78.403 233.159 77.8193 232.19 77.4395C230.617 76.833 230.005 77.198 228.535 77.198Z" fill="white" stroke="#263238" stroke-linecap="round" stroke-linejoin="round"/>
<path d="M205.141 161.216C205.141 161.216 198.341 154.2 193.509 153.537C188.678 152.874 187.151 157.048 184.735 158.163C182.32 159.279 180.109 157.505 177.056 157.942C174.003 158.379 173.767 159.921 171.572 160.137C169.377 160.353 167.84 158.821 165.429 159.263C163.019 159.705 161.698 162.347 160.382 162.347C159.066 162.347 156.871 160.805 154.461 160.805C152.05 160.805 148.293 163 148.293 163L133.387 164.758H216.331C215.031 163.407 213.452 162.354 211.705 161.674C208.868 160.559 207.773 161.216 205.141 161.216Z" fill="#263238" stroke="#263238" stroke-linecap="round" stroke-linejoin="round"/>
<path d="M207.735 159.921C207.735 159.921 200.935 152.9 196.103 152.242C191.271 151.584 189.745 155.752 187.329 156.868C184.913 157.983 182.703 156.21 179.65 156.647C176.597 157.084 176.36 158.626 174.166 158.842C171.971 159.058 170.434 157.526 168.023 157.968C165.613 158.41 164.292 161.052 162.976 161.052C161.66 161.052 159.465 159.51 157.054 159.51C154.644 159.51 150.886 161.705 150.886 161.705L135.98 163.462H218.925C217.624 162.111 216.046 161.059 214.299 160.378C211.461 159.263 210.367 159.921 207.735 159.921Z" fill="white" stroke="#263238" stroke-linecap="round" stroke-linejoin="round"/>
<path d="M220.766 147.241H195.066L195.961 145.324C196.542 145.586 197.153 145.778 197.78 145.894C198.515 145.894 199.25 144.424 200.597 144.183C201.944 143.941 202.802 144.794 204.025 144.671C205.249 144.548 205.372 143.689 207.109 143.448C208.847 143.206 210.044 144.183 211.391 143.566C212.738 142.949 213.596 140.631 216.289 140.996C217.085 141.145 217.846 141.443 218.531 141.875L220.766 147.241Z" fill="#263238" stroke="#263238" stroke-linecap="round" stroke-linejoin="round"/>
<path d="M223.934 143.668C223.934 143.668 220.141 139.746 217.447 139.381C214.754 139.016 213.895 141.34 212.549 141.951C211.202 142.563 209.979 141.586 208.262 141.828C206.545 142.07 206.427 142.933 205.204 143.051C203.98 143.17 203.122 142.322 201.775 142.563C200.429 142.805 199.694 144.28 198.959 144.28C198.224 144.28 197 143.421 195.654 143.421C194.307 143.421 192.225 144.645 192.225 144.645L183.898 145.627H230.158C229.435 144.876 228.559 144.29 227.588 143.91C226.016 143.298 225.404 143.668 223.934 143.668Z" fill="white" stroke="#263238" stroke-linecap="round" stroke-linejoin="round"/>
<path d="M153.721 153.218H109.887L113.217 145.76C114.17 145.89 115.14 145.753 116.019 145.365C118.902 144.059 120.732 139.083 126.494 139.87C132.256 140.656 140.372 149.029 140.372 149.029C143.513 149.029 144.823 148.248 148.226 149.543C150.3 150.359 152.174 151.613 153.721 153.218Z" fill="#263238" stroke="#263238" stroke-linecap="round" stroke-linejoin="round"/>
<path d="M142.228 147.436C142.228 147.436 134.112 139.058 128.35 138.271C122.588 137.485 120.758 142.46 117.874 143.771C114.991 145.082 112.38 142.985 108.715 143.509C105.05 144.033 104.788 145.863 102.167 146.125C99.5452 146.387 97.7154 144.557 94.837 145.097C91.9586 145.637 90.3857 148.762 88.8181 148.762C87.2503 148.762 84.6289 146.927 81.7454 146.927C78.8619 146.927 74.4158 149.548 74.4158 149.548L56.6211 151.63H155.582C154.034 150.026 152.158 148.776 150.082 147.965C146.679 146.649 145.373 147.436 142.228 147.436Z" fill="white" stroke="#263238" stroke-linecap="round" stroke-linejoin="round"/>
<path d="M118.827 57.2753C118.827 57.2753 110.711 48.8971 104.949 48.1106C99.1868 47.3242 97.3569 52.2997 94.4734 53.6104C91.5898 54.9211 88.9787 52.824 85.3088 53.3483C81.6388 53.8726 81.3818 55.7024 78.7655 55.9646C76.1493 56.2267 74.3143 54.4226 71.4359 54.9366C68.5575 55.4506 66.9898 58.5962 65.4169 58.5962C63.8441 58.5962 61.2278 56.7613 58.3494 56.7613C55.471 56.7613 51.0198 59.3827 51.0198 59.3827L33.2148 61.4746H132.18C130.632 59.8722 128.756 58.6222 126.681 57.8098C123.278 56.4888 121.967 57.2753 118.827 57.2753Z" fill="white" stroke="#263238" stroke-linecap="round" stroke-linejoin="round"/>
<path d="M227.467 223.015C227.467 223.015 215.794 210.967 207.509 209.836C199.223 208.705 196.591 215.86 192.448 217.746C188.306 219.633 184.538 216.615 179.27 217.366C174.001 218.116 173.616 220.758 169.853 221.134C166.091 221.509 163.454 218.872 159.311 219.628C155.168 220.383 152.906 224.901 150.65 224.901C148.394 224.901 144.626 222.264 140.483 222.264C136.34 222.264 129.936 226.027 129.936 226.027L104.344 229.039H246.67C244.446 226.733 241.749 224.936 238.765 223.77C233.872 221.884 231.985 223.015 227.467 223.015Z" fill="white" stroke="#263238" stroke-linecap="round" stroke-linejoin="round"/>
<path d="M175.098 58.4471V37.3628" stroke="#263238" stroke-linecap="round" stroke-linejoin="round"/>
<path d="M188.535 54.8744V50.9731C189.345 51.412 190.032 52.0463 190.535 52.8184C190.621 52.982 190.69 53.1543 190.74 53.3324C190.245 53.2591 189.741 53.378 189.331 53.6647C188.921 53.9515 188.636 54.3843 188.535 54.8744Z" fill="#263238" stroke="#263238" stroke-linecap="round" stroke-linejoin="round"/>
<path d="M180.105 39.7013C177.067 39.8144 175.479 38.627 175.078 38.3135V44.1217L175.181 50.8551C176.086 52.2789 182.439 52.2789 186.073 52.2789C189.707 52.2789 190.74 53.3069 190.74 53.3069V40.6059C188.797 38.7966 183.605 39.5779 180.105 39.7013Z" fill="#C65AFF" stroke="#263238" stroke-miterlimit="10"/>
<path d="M190.738 41.1661C190.211 40.7749 189.575 40.5591 188.919 40.5493C186.672 40.5493 184.848 43.1193 184.848 46.337C184.848 49.5546 186.672 52.1195 188.919 52.1195C189.575 52.1097 190.211 51.8939 190.738 51.5027V41.1661Z" fill="white" stroke="#263238" stroke-linecap="round" stroke-linejoin="round"/>
<path d="M190.741 53.3173C190.741 53.3173 188.475 53.1477 188.536 54.8593C188.567 55.6766 189.564 56.2831 193.204 56.0261C196.843 55.7691 202.425 56.5863 202.425 56.5863L198.919 50.3721L204.105 48.3161C202.228 46.9174 200.126 45.8469 197.891 45.1498C195.569 44.4503 193.15 44.131 190.726 44.2041L190.741 53.3173Z" fill="#C65AFF" stroke="#263238" stroke-miterlimit="10"/>
<path d="M185.344 22.8936V29.5087" stroke="#263238" stroke-linecap="round" stroke-linejoin="round"/>
<path d="M185.344 61.9424V68.5576" stroke="#263238" stroke-linecap="round" stroke-linejoin="round"/>
<path d="M160.777 32.0273L168.333 38.0103" stroke="#263238" stroke-linecap="round" stroke-linejoin="round"/>
<path d="M208.647 32.0273L201.086 38.0103" stroke="#263238" stroke-linecap="round" stroke-linejoin="round"/>
<path d="M208.647 66.2442L201.086 60.2612" stroke="#263238" stroke-linecap="round" stroke-linejoin="round"/>
<path d="M160.465 66.2442L168.021 60.2612" stroke="#263238" stroke-linecap="round" stroke-linejoin="round"/>
<path d="M165.189 49.0303H155.109" stroke="#263238" stroke-linecap="round" stroke-linejoin="round"/>
<path d="M216.832 49.0303H206.758" stroke="#263238" stroke-linecap="round" stroke-linejoin="round"/>
<path d="M80.096 241.729L83.8123 233.109C83.8123 233.109 85.2977 229.244 86.1921 228.057C86.9654 226.914 87.6609 225.72 88.2738 224.484L93.0334 217.35L97.7931 202.773L84.5884 207.178L74.4369 214.986L60.5589 221.817L12.541 231.583" fill="white"/>
<path d="M80.096 241.729L83.8123 233.109C83.8123 233.109 85.2977 229.244 86.1921 228.057C86.9654 226.914 87.6609 225.72 88.2738 224.484L93.0334 217.35L97.7931 202.773L84.5884 207.178L74.4369 214.986L60.5589 221.817L12.541 231.583" stroke="#263238" stroke-linecap="round" stroke-linejoin="round"/>
<path d="M13.0297 195.042H71.6205L97.7934 202.773L95.1155 206.936L89.7596 208.725L83.8126 210.211L79.053 217.052L75.1877 220.321L62.3994 222.403L11.5391 233.706" fill="white"/>
<path d="M13.0297 195.042H71.6205L97.7934 202.773L95.1155 206.936L89.7596 208.725L83.8126 210.211L79.053 217.052L75.1877 220.321L62.3994 222.403L11.5391 233.706" stroke="#263238" stroke-linecap="round" stroke-linejoin="round"/>
<path d="M83.8129 210.21L84.4092 221.215L81.135 227.46L78.7552 231.326L72.2891 241.729" fill="white"/>
<path d="M83.8129 210.21L84.4092 221.215L81.135 227.46L78.7552 231.326L72.2891 241.729" stroke="#263238" stroke-linecap="round" stroke-linejoin="round"/>
<path d="M75.1896 220.321L74.3004 229.542L69.8388 232.22L63.8867 235.787" fill="white"/>
<path d="M75.1896 220.321L74.3004 229.542L69.8388 232.22L63.8867 235.787" stroke="#263238" stroke-linecap="round" stroke-linejoin="round"/>
<path opacity="0.21" d="M67.6991 207.471C67.6991 209.265 58.0462 210.714 46.1368 210.714C34.2275 210.714 24.5488 209.265 24.5488 207.471C24.5488 205.677 34.2069 204.228 46.1368 204.228C58.0668 204.228 67.6991 205.682 67.6991 207.471Z" fill="black"/>
<path d="M79.7159 87.7654C79.7159 87.7654 81.0831 86.6449 81.8901 86.0898C82.6971 85.5346 84.1311 83.9721 84.2545 83.3501C84.3779 82.7282 85.0615 78.9966 85.0615 78.9966C84.5817 78.969 84.1005 79.0105 83.6326 79.1199C82.7022 79.3101 81.8901 79.5568 81.8901 79.5568L79.4023 82.5432L79.7159 87.7654Z" fill="white" stroke="#263238" stroke-miterlimit="10"/>
<path d="M83.0736 79.2482C83.0736 79.2482 82.8886 80.2762 83.2586 80.6155C83.6287 80.9547 85.7464 80.9856 86.0599 80.3636C86.3735 79.7417 86.4352 78.688 86.0599 78.688C85.6847 78.688 83.0736 79.2482 83.0736 79.2482Z" fill="white" stroke="#263238" stroke-miterlimit="10"/>
<path d="M84.6308 81.1141C84.6308 81.1141 81.7062 81.2374 81.5828 81.6281C81.4595 82.0187 81.2693 82.7486 81.4595 82.8719C81.6496 82.9953 84.6925 83.0004 85.0009 82.6252C85.3093 82.25 85.7462 80.7388 84.6308 81.1141Z" fill="white" stroke="#263238" stroke-miterlimit="10"/>
<path d="M84.4382 82.7898C84.4382 82.7898 81.5186 82.9132 81.3901 83.3038C81.2616 83.6945 81.0817 84.4243 81.2668 84.5477C81.4518 84.6711 84.4998 84.6711 84.8134 84.301C85.1269 83.9309 85.5587 82.4197 84.4382 82.7898Z" fill="white" stroke="#263238" stroke-miterlimit="10"/>
<path d="M83.5869 84.3933C83.5869 84.3933 81.3767 84.4858 81.2842 84.7685C81.1916 85.0512 81.0477 85.6166 81.1865 85.7091C81.3253 85.8017 83.6331 85.8017 83.8644 85.519C84.0957 85.2363 84.4298 84.1106 83.5869 84.3933Z" fill="white" stroke="#263238" stroke-miterlimit="10"/>
<path d="M96.565 76.9094L76.519 79.9368H76.2722H76.0718C75.6705 79.8893 75.3 79.698 75.029 79.3982C74.7579 79.0984 74.6048 78.7105 74.5979 78.3065C74.591 77.9024 74.7308 77.5095 74.9914 77.2007C75.252 76.8918 75.6158 76.6879 76.0152 76.6267L95.244 73.7329L96.0612 73.6095C96.28 73.5693 96.5047 73.5733 96.7219 73.6213C96.9391 73.6693 97.1445 73.7603 97.326 73.889C97.5075 74.0178 97.6613 74.1815 97.7784 74.3707C97.8955 74.5598 97.9736 74.7705 98.0079 74.9903C98.0422 75.2101 98.0322 75.4346 97.9784 75.6504C97.9245 75.8663 97.828 76.0691 97.6944 76.2471C97.5609 76.425 97.3931 76.5744 97.2008 76.6864C97.0086 76.7984 96.7959 76.8707 96.5752 76.8991L96.565 76.9094Z" fill="white" stroke="#263238" stroke-miterlimit="10"/>
<path d="M95.1412 77.0687L76.0718 79.9471C75.6705 79.8996 75.3 79.7083 75.029 79.4085C74.7579 79.1087 74.6048 78.7208 74.5979 78.3168C74.591 77.9127 74.7308 77.5198 74.9914 77.211C75.252 76.9021 75.6158 76.6982 76.0152 76.637L95.244 73.7432C95.6309 73.8272 95.9761 74.0445 96.2194 74.3569C96.4626 74.6694 96.5885 75.0574 96.575 75.4531C96.5616 75.8489 96.4096 76.2274 96.1457 76.5226C95.8818 76.8179 95.5227 77.0111 95.1309 77.0687H95.1412Z" fill="#B5B5B5" stroke="#263238" stroke-miterlimit="10"/>
<path d="M62.4887 81.5562C62.1856 81.5613 61.8919 81.4503 61.668 81.2458C61.444 81.0413 61.3068 80.7589 61.2845 80.4565C61.2621 80.1541 61.3563 79.8546 61.5478 79.6194C61.7392 79.3843 62.0133 79.2312 62.314 79.1918L76.0738 77.0998C76.2328 77.066 76.3971 77.0651 76.5565 77.0971C76.716 77.1291 76.8672 77.1934 77.0008 77.286C77.1345 77.3786 77.2478 77.4976 77.3338 77.6356C77.4198 77.7736 77.4766 77.9278 77.5008 78.0886C77.5251 78.2494 77.5161 78.4134 77.4746 78.5706C77.4331 78.7279 77.3599 78.8749 77.2594 79.0028C77.159 79.1307 77.0335 79.2367 76.8906 79.3142C76.7477 79.3918 76.5904 79.4393 76.4284 79.4539L62.6481 81.5099L62.4887 81.5562Z" fill="#B5B5B5" stroke="#263238" stroke-miterlimit="10"/>
<path d="M76.2305 88.6392C76.2305 88.6392 77.8496 83.1651 77.9729 82.168C78.0963 81.1708 79.2168 80.3021 79.2168 80.3021C79.2168 80.3021 81.2728 78.6265 81.7868 77.7321C82.3008 76.8378 82.7223 77.9172 82.7223 78.6676C82.7223 79.4181 80.2962 81.7156 80.2962 81.7156C80.5156 82.7317 80.6599 83.7624 80.728 84.7996C80.6301 85.675 80.3556 86.5213 79.921 87.2874L78.7388 90.7055L76.2305 88.6392Z" fill="white" stroke="#263238" stroke-miterlimit="10"/>
<path d="M75.6103 87.8271L80.2774 91.2504L78.5966 94.1082L74.3047 90.5051L75.6103 87.8271Z" fill="white" stroke="#263238" stroke-miterlimit="10"/>
<path d="M74.426 89.8828L80.2137 94.5448C80.2137 94.5448 68.0833 112.458 67.338 112.956C66.6536 113.328 65.9198 113.599 65.1586 113.763L62.3008 104.933L74.426 89.8828Z" fill="#F5F8FF" stroke="#263238" stroke-miterlimit="10"/>
<path d="M57.7634 92.0571L60.6213 93.8613H59.1307L58.3853 94.5449L57.013 94.4215L56.5195 92.8024L57.7634 92.0571Z" fill="white" stroke="#263238" stroke-linecap="round" stroke-linejoin="round"/>
<path d="M61.3667 73.3989C61.3667 73.3989 63.1092 77.7525 62.8624 78.1894C62.6157 78.6263 62.2405 79.3099 62.3484 79.7314C62.4564 80.1528 64.2143 82.3014 64.0292 82.656C63.6028 83.2804 63.1448 83.8826 62.6568 84.4602C62.6568 84.4602 62.0349 87.2563 62.1428 87.5082C62.2508 87.76 62.8265 88.4385 62.4512 89.1221C62.076 89.8058 61.12 89.9497 60.498 89.9497C60.0196 89.9384 59.5424 89.8972 59.0691 89.8263L57.265 93.2444L47.1289 89.3894L48.6709 85.9662C47.9818 84.1598 47.8722 82.1837 48.3574 80.3122C49.1695 77.1408 55.2655 73.4708 57.815 73.1162C60.3644 72.7615 61.3667 73.3989 61.3667 73.3989Z" fill="white" stroke="#263238" stroke-linecap="round" stroke-linejoin="round"/>
<path d="M59.0089 74.206C59.0089 74.206 60.6229 76.3236 60.3145 76.9456C59.7624 77.7085 59.1375 78.416 58.4486 79.0581C58.4486 79.0581 58.9626 81.2375 58.6954 81.4842C58.5336 81.6204 58.3437 81.7191 58.1394 81.7733C57.935 81.8275 57.7211 81.8359 57.5132 81.7977C57.2664 81.6692 55.709 78.7137 54.717 79.3717C53.725 80.0296 53.5348 81.6692 53.9666 82.6047C54.1923 83.1052 54.4642 83.5836 54.7787 84.0336C54.7787 84.0336 52.2909 86.3364 50.9237 86.6036C49.5564 86.8709 48.4976 86.9789 48.1224 86.4186C47.7472 85.8583 45.4496 80.8211 45.3879 77.2745C45.3262 73.7279 47.6855 70.7467 49.1195 70.0785C50.5536 69.4103 53.2829 69.3332 53.2829 69.3332C53.2829 69.3332 53.4731 67.7141 55.4006 67.7912C57.3281 67.8683 59.3173 69.4103 59.3173 69.4103C59.3173 69.4103 58.6954 67.1693 60.186 68.4749C61.6766 69.7804 62.756 70.5309 62.427 72.5869C62.098 74.6429 59.0089 74.206 59.0089 74.206Z" fill="#263238" stroke="#263238" stroke-linecap="round" stroke-linejoin="round"/>
<path d="M54.7773 84.0337L56.1446 84.4089L56.7048 85.5294" stroke="#263238" stroke-linecap="round" stroke-linejoin="round"/>
<path d="M60.4997 89.95C60.068 89.7311 59.6524 89.4821 59.2558 89.2047C58.7418 88.8294 57.6367 88.0225 57.6367 88.0225L58.2587 91.0037L59.0708 89.8266L60.4997 89.95Z" fill="#263238" stroke="#263238" stroke-linecap="round" stroke-linejoin="round"/>
<path d="M44.7009 88.4487L44.1406 91.0599L56.4509 94.4831L62.4236 99.6436L57.6331 93.9228L56.8878 92.1187L44.7009 88.4487Z" fill="white" stroke="#263238" stroke-linecap="round" stroke-linejoin="round"/>
<path d="M58.3867 94.5449C58.3867 94.5449 61.8357 95.7374 64.4673 102.867C67.099 109.996 74.4852 138.384 74.4852 138.384L70.4092 139.412C69.1647 132.553 67.4926 125.779 65.4028 119.13C62.1955 109.23 58.3867 94.5449 58.3867 94.5449Z" fill="#F5F8FF" stroke="#263238" stroke-linecap="round" stroke-linejoin="round"/>
<path d="M70.9997 136.893C70.9997 136.893 69.6068 151.974 69.0208 159.201C68.4349 166.428 62.6729 185.965 61.9893 188.602C61.3057 191.238 61.0127 199.344 61.0127 199.344L61.9893 200.028V200.809L65.3098 202.958C65.3098 202.958 70.1928 204.721 69.1185 205.795C68.0442 206.869 66.091 206.479 63.3566 206.479C60.6221 206.479 57.7026 205.502 56.8133 205.502C56.0957 205.531 55.3769 205.498 54.6648 205.404C54.2742 205.307 53.3952 205.697 53.3952 204.818C53.2393 203.406 53.0111 202.003 52.7116 200.614C52.7116 200.614 51.9149 199.432 51.9149 198.661C51.9149 197.89 52.1102 195.243 52.5009 194.266C52.8915 193.289 53.4775 189.383 53.4775 189.383L54.0634 179.129L50.6453 186.551L47.7155 198.856C47.7155 198.856 49.1804 199.344 49.1804 199.735C49.1804 200.126 48.8875 201.883 48.8875 201.883C48.8875 201.883 50.743 203.739 51.6219 204.453C53.3558 205.56 55.1489 206.57 56.9932 207.481C57.2862 207.579 58.5352 208.653 57.7745 209.141C57.0138 209.629 53.0868 209.922 49.9617 209.922C46.8366 209.922 42.8274 208.555 42.8274 208.555L41.9485 209.141L38.7257 208.36C38.335 208.262 38.1397 206.504 38.2117 205.821C38.2612 205.201 38.2612 204.579 38.2117 203.96C38.2117 203.569 37.9187 201.518 38.114 200.835C38.3093 200.151 38.993 198.296 38.993 198.296C38.993 198.296 40.4579 182.475 40.8485 180.033C41.2391 177.592 43.9171 172.19 43.9171 172.19C43.9171 172.19 45.2895 162.614 45.4591 160.758C45.6287 158.903 45.7521 151.871 45.7521 151.871C44.8135 149.492 44.0608 147.043 43.5007 144.547C42.9148 141.422 43.4031 140.738 43.4031 140.738L44.7189 135.855L70.9997 136.893Z" fill="#263238" stroke="#263238" stroke-linecap="round" stroke-linejoin="round"/>
<path d="M55.9805 176.564C55.9805 176.564 58.9565 166.649 59.45 163.673C59.9434 160.697 63.2536 149.456 63.2536 149.456L66.3941 147.307" stroke="#8C8C8C" stroke-linecap="round" stroke-linejoin="round"/>
<path d="M44.5742 175.078C44.5742 175.078 51.6828 170.781 55.8154 163.344" stroke="#8C8C8C" stroke-linecap="round" stroke-linejoin="round"/>
<path d="M56.8004 158.877C56.8004 158.877 52.5034 165.492 49.5273 168.129" stroke="#8C8C8C" stroke-linecap="round" stroke-linejoin="round"/>
<path d="M64.3529 104.434C64.3529 104.434 69.3901 128.407 70.0686 131.63C70.7471 134.853 70.9989 136.894 70.9989 136.894C69.9634 137.098 68.9163 137.239 67.8635 137.315C66.928 137.315 64.8926 137.233 64.8926 137.233L61.8086 103.119L64.3529 104.434Z" fill="white" stroke="#263238" stroke-linecap="round" stroke-linejoin="round"/>
<path d="M42.6615 90.1299V92.741C42.6615 92.741 39.8036 104.188 40.1737 107.791C40.5438 111.394 44.0955 122.969 44.0955 122.969C44.0955 122.969 43.2217 124.398 43.16 124.583C43.2166 125.131 43.3215 125.673 43.4736 126.202L40.2868 141.864C40.2868 141.864 52.412 144.434 60.3739 143.73C68.3358 143.026 68.8755 142.62 68.8755 142.62C68.8755 142.62 67.8475 127.821 67.8989 124.337C67.9503 120.852 65.0359 106.115 64.3523 104.434C63.6686 102.754 62.4248 99.644 62.4248 99.644L56.4521 94.504L42.6615 90.1299Z" fill="#F5F8FF" stroke="#263238" stroke-linecap="round" stroke-linejoin="round"/>
<path d="M51.8531 108.788C51.8531 108.788 45.2636 114.761 44.3281 115.136" stroke="#263238" stroke-linecap="round" stroke-linejoin="round"/>
<path d="M53.7783 108.603C53.7783 108.603 51.9124 111.651 51.1055 113.018" stroke="#263238" stroke-linecap="round" stroke-linejoin="round"/>
<path d="M52.9736 113.327L50.9844 117.12" stroke="#263238" stroke-linecap="round" stroke-linejoin="round"/>
<path d="M65.0352 85.8376C65.0352 85.8376 65.2253 81.4224 65.4104 80.6976C65.9449 79.3623 66.5471 78.0551 67.2145 76.7809C67.2145 76.7809 68.2065 75.9688 68.6434 76.2669C69.0803 76.5651 69.0187 77.2949 69.0187 77.2949C69.0187 77.2949 69.764 76.2669 70.2009 76.3646C70.6378 76.4623 71.0695 77.3618 71.0695 77.3618C71.5128 77.2274 71.9824 77.2044 72.4368 77.2949C72.9508 77.4851 73.3106 77.3618 73.1821 77.9169C73.0536 78.472 71.8148 81.5149 71.8148 81.5149C71.8148 81.5149 74.4259 80.5229 74.4259 81.0009C74.4259 81.4789 73.9942 81.6896 73.4339 82.0597C72.8737 82.4298 70.8228 83.4886 70.8228 83.4886L69.2808 85.0306L69.0341 86.4596L65.0352 85.8376Z" fill="white" stroke="#263238" stroke-linecap="round" stroke-linejoin="round"/>
<path d="M65.2792 88.1405L65.0273 85.8378C65.6107 85.6552 66.2205 85.5718 66.8315 85.5911C67.7821 85.7433 68.7189 85.9719 69.6328 86.2747L69.7561 88.6391L65.2792 88.1405Z" fill="white" stroke="#263238" stroke-linecap="round" stroke-linejoin="round"/>
<path d="M44.1428 97.593C44.1428 97.593 46.6305 96.9094 47.3758 96.8477C48.1211 96.786 64.1682 98.2766 64.1682 98.2766L64.9752 87.3336C65.5741 87.2262 66.1891 87.2472 66.7793 87.3953L71.3179 88.7008C71.3179 88.7008 71.5698 100.009 71.5698 102.579V106.747C71.083 106.929 70.583 107.074 70.0741 107.179C69.3904 107.308 52.413 108.721 49.3033 108.721C46.1936 108.721 42.8989 108.968 42.1484 105.802" fill="#F5F8FF"/>
<path d="M44.1428 97.593C44.1428 97.593 46.6305 96.9094 47.3758 96.8477C48.1211 96.786 64.1682 98.2766 64.1682 98.2766L64.9752 87.3336C65.5741 87.2262 66.1891 87.2472 66.7793 87.3953L71.3179 88.7008C71.3179 88.7008 71.5698 100.009 71.5698 102.579V106.747C71.083 106.929 70.583 107.074 70.0741 107.179C69.3904 107.308 52.413 108.721 49.3033 108.721C46.1936 108.721 42.8989 108.968 42.1484 105.802" stroke="#263238" stroke-linecap="round" stroke-linejoin="round"/>
</svg>
