<svg width="515" height="515" viewBox="0 0 515 515" fill="none" xmlns="http://www.w3.org/2000/svg">
<path d="M447.532 359.47C442.847 363.744 438.036 367.874 433.184 371.83C399.647 399.361 360.828 419.725 317.001 423.658L313.766 423.927C231.881 429.932 233.426 332.257 223.621 308.238C213.814 284.218 47.841 266.976 19.2997 209.09C-5.15251 159.65 24.9956 114.33 68.132 88.5075C97.9196 70.6987 131.683 59.8837 165.251 51.8188C264.707 27.9126 370.797 31.0231 450.953 102.299C460.686 110.951 468.174 120.098 475.673 130.645C496.621 160.092 510.506 195.236 511.568 231.585C513.041 282.272 484.871 325.171 448.738 358.388L447.532 359.47Z" fill="#F0E9FF"/>
<path opacity="0.7" d="M447.532 359.47C442.847 363.744 438.036 367.874 433.184 371.83C399.647 399.361 360.828 419.725 317.001 423.658L313.766 423.927C231.881 429.932 233.426 332.257 223.621 308.238C213.814 284.218 47.841 266.976 19.2997 209.09C-5.15251 159.65 24.9956 114.33 68.132 88.5075C97.9196 70.6987 131.683 59.8837 165.251 51.8188C264.707 27.9126 370.797 31.0231 450.953 102.299C460.686 110.951 468.174 120.098 475.673 130.645C496.621 160.092 510.506 195.236 511.568 231.585C513.041 282.272 484.871 325.171 448.738 358.388L447.532 359.47Z" fill="#5ECCFF"/>
<path d="M419.068 260.498V382.655H281.758L282.686 260.498L283.253 259.312L308.406 206.433L320.425 181.156L322.876 176.016L350.882 117.121L351.459 118.336L389.415 198.141L419.068 260.498Z" fill="#DBDBDB"/>
<path d="M422.25 377.413L419.058 378L393.945 382.655H332.197L287.382 287.915L283.242 259.312L308.395 206.433L320.414 181.156L322.865 176.016L350.871 117.121L351.449 118.336L333.382 252.629L349.14 216.701L348.513 286.659L369.936 259.56V298.638L362.376 285.402L355.444 344.637L393.256 255.152L419.058 363.951L422.25 377.413Z" fill="#B8B8B8"/>
<path d="M320.418 181.156L318.266 185.678L342.841 156.828L351.041 190.859L360.496 161.875L370.579 175.059L374.328 166.437L351.452 118.336L350.875 117.121L322.871 176.016L320.418 181.156Z" fill="white" stroke="#263238" stroke-linecap="round" stroke-linejoin="round"/>
<path d="M419.068 260.498V382.655H281.758L282.686 260.498L283.253 259.312L308.406 206.433L320.425 181.156L322.876 176.016L350.882 117.121L351.459 118.336L389.415 198.141L419.068 260.498Z" stroke="#263238" stroke-linecap="round" stroke-linejoin="round"/>
<path d="M487.378 402.997L461.453 385.581L457.806 417.984L433.096 408.261L427.031 443.898L384.903 416.367H349.266L351.284 380.317L390.939 295.053L392.732 291.212L416.091 240.988L434.726 276.638L437.918 284.3L442.398 295.053L487.378 402.997Z" fill="#DBDBDB"/>
<path d="M459.148 366.638L461.776 385.797L471.312 392.213L459.148 366.638Z" fill="#B8B8B8"/>
<path d="M433.096 408.261L452.646 415.954L450.32 408.498L443.242 396.705L448.546 389.042L447.538 359.49L428.503 386.096L427.329 329.496L408.461 367.225L418.472 245.541L416.091 240.988L392.732 291.212L390.939 295.053L351.284 380.317L349.266 416.367H384.903L427.031 443.898L433.096 408.261Z" fill="#B8B8B8"/>
<path d="M490.078 408.497L418.296 235.158L337.133 410.074" stroke="#263238" stroke-linecap="round" stroke-linejoin="round"/>
<path d="M425.43 299.976L430.735 295.145L443.764 309.617L444.846 299.287L418.292 235.158L387.362 301.83L387.32 302.387L414.822 273.443L425.43 299.976Z" fill="white" stroke="#263238" stroke-linecap="round" stroke-linejoin="round"/>
<path d="M369.476 446.134L371.886 474.594L352.399 464.983L326.875 452.397L302.424 440.345L289.394 450.481L253.705 435.526L221.867 466.394L196.776 444.692L166.875 450.956L168.801 422.012L220.198 307.032L226.873 292.087L272.512 189.994L287.467 224.242L301.456 242.575L362.967 391.617L374.574 376.856L412.407 465.426L369.476 446.134Z" fill="#DBDBDB"/>
<path d="M279.814 367.329L267.846 352.208L275.407 276.575L240.746 345.277L270.999 216.074L272.914 190.901L272.512 189.994L226.873 292.087L220.198 307.032L168.801 422.012L166.875 450.956L196.776 444.692L221.867 466.394L253.705 435.526L264.448 440.027L267.217 396.324L288.641 412.082L286.118 352.208L279.814 367.329Z" fill="#B8B8B8"/>
<path d="M417.296 477.054L374.581 376.856L362.973 391.616L275.743 181.002L172.062 415.347" stroke="#263238" stroke-linecap="round" stroke-linejoin="round"/>
<path d="M306.63 255.594L275.74 181.002L239.586 262.722L267.717 231.399L284.948 243.327L287.595 234.716L306.63 255.594Z" fill="white" stroke="#263238" stroke-linecap="round" stroke-linejoin="round"/>
<path d="M352.404 464.983L326.88 452.397L309.328 374.064L352.404 464.983Z" fill="#B8B8B8"/>
<path d="M373.084 181.157H320.43L322.882 176.007H323.037C325.488 175.76 325.734 174.05 329.165 173.555C332.595 173.061 335.056 175.028 337.755 173.803C340.455 172.577 342.174 167.911 347.57 168.653C352.969 169.394 360.57 177.233 360.57 177.233C363.515 177.233 364.742 176.501 367.934 177.727C369.876 178.488 371.633 179.658 373.084 181.157Z" fill="#263238" stroke="#263238" stroke-linecap="round" stroke-linejoin="round"/>
<path d="M363.223 174.575C363.223 174.575 355.612 166.716 350.216 165.985C344.817 165.253 343.098 169.909 340.399 171.135C337.7 172.36 335.249 170.403 331.82 170.888C328.39 171.372 328.131 173.102 325.64 173.349C323.147 173.596 321.468 171.876 318.769 172.319C316.07 172.762 314.649 175.759 313.124 175.759C311.601 175.759 309.2 174.039 306.501 174.039C303.804 174.039 299.632 176.491 299.632 176.491L282.945 178.458H375.737C374.291 176.953 372.533 175.78 370.587 175.018C367.395 173.833 366.169 174.575 363.223 174.575Z" fill="white" stroke="#263238" stroke-linecap="round" stroke-linejoin="round"/>
<path d="M457.96 154.696C457.96 154.696 450.359 146.847 444.963 146.106C439.564 145.364 437.845 150.03 435.146 151.256C432.449 152.482 429.996 150.514 426.557 151.009C423.116 151.503 422.88 153.213 420.427 153.46C417.976 153.707 416.257 151.987 413.558 152.482C410.859 152.976 409.386 155.911 407.913 155.911C406.44 155.911 403.989 154.191 401.29 154.191C398.591 154.191 394.421 156.653 394.421 156.653L377.734 158.61H470.434C468.984 157.111 467.226 155.941 465.284 155.18C462.132 153.965 460.906 154.696 457.96 154.696Z" fill="white" stroke="#263238" stroke-linecap="round" stroke-linejoin="round"/>
<path d="M411.084 323.059C411.084 323.059 397.458 309 387.775 307.671C378.094 306.343 375.034 314.707 370.193 316.941C365.353 319.178 360.923 315.623 354.805 316.499C348.687 317.374 348.214 320.464 343.815 320.897C339.417 321.33 336.337 318.26 331.506 319.146C326.676 320.031 324.029 325.326 321.392 325.326C318.755 325.326 314.356 322.236 309.527 322.236C304.696 322.236 297.167 326.634 297.167 326.634L267.297 330.157H433.508C430.903 327.45 427.738 325.34 424.238 323.977C418.553 321.743 416.358 323.059 411.084 323.059Z" fill="#263238" stroke="#263238" stroke-linecap="round" stroke-linejoin="round"/>
<path d="M416.281 320.465C416.281 320.465 402.655 306.395 392.972 305.077C383.289 303.758 380.231 312.11 375.39 314.347C370.549 316.581 366.12 313.028 360.002 313.904C353.884 314.78 353.409 317.87 349.013 318.302C344.614 318.735 341.534 315.665 336.703 316.551C331.873 317.437 329.226 322.731 326.589 322.731C323.952 322.731 319.554 319.641 314.722 319.641C309.893 319.641 302.362 324.04 302.362 324.04L272.492 327.56H438.705C436.098 324.853 432.936 322.745 429.435 321.38C423.748 319.146 421.556 320.465 416.281 320.465Z" fill="white" stroke="#263238" stroke-linecap="round" stroke-linejoin="round"/>
<path d="M442.391 295.055H390.891L392.684 291.213C393.848 291.738 395.073 292.123 396.329 292.356C397.802 292.356 399.275 289.41 401.974 288.927C404.673 288.442 406.393 290.151 408.843 289.905C411.296 289.658 411.543 287.937 415.023 287.454C418.506 286.969 420.905 288.927 423.604 287.691C426.303 286.454 428.023 281.809 433.419 282.541C435.014 282.839 436.539 283.436 437.912 284.302L442.391 295.055Z" fill="#263238" stroke="#263238" stroke-linecap="round" stroke-linejoin="round"/>
<path d="M448.736 287.895C448.736 287.895 441.135 280.035 435.736 279.304C430.34 278.573 428.619 283.23 425.921 284.454C423.222 285.68 420.771 283.723 417.331 284.208C413.89 284.693 413.653 286.422 411.203 286.658C408.75 286.897 407.031 285.197 404.331 285.68C401.634 286.165 400.161 289.121 398.688 289.121C397.216 289.121 394.763 287.4 392.066 287.4C389.366 287.4 385.194 289.853 385.194 289.853L368.508 291.82H461.208C459.759 290.315 458.004 289.141 456.058 288.38C452.908 287.153 451.681 287.895 448.736 287.895Z" fill="white" stroke="#263238" stroke-linecap="round" stroke-linejoin="round"/>
<path d="M308.042 307.032H220.203L226.876 292.087C228.786 292.348 230.73 292.073 232.491 291.296C238.268 288.679 241.935 278.707 253.482 280.284C265.028 281.859 281.292 298.638 281.292 298.638C287.586 298.638 290.211 297.073 297.03 299.668C301.186 301.303 304.942 303.816 308.042 307.032Z" fill="#263238" stroke="#263238" stroke-linecap="round" stroke-linejoin="round"/>
<path d="M285.008 295.446C285.008 295.446 268.744 278.657 257.198 277.08C245.651 275.505 241.984 285.474 236.205 288.101C230.428 290.728 225.196 286.526 217.851 287.576C210.507 288.626 209.982 292.293 204.73 292.818C199.476 293.343 195.809 289.676 190.041 290.758C184.273 291.841 181.122 298.103 177.98 298.103C174.839 298.103 169.586 294.426 163.807 294.426C158.029 294.426 149.12 299.678 149.12 299.678L113.461 303.85H311.768C308.666 300.636 304.906 298.131 300.746 296.506C293.927 293.868 291.31 295.446 285.008 295.446Z" fill="white" stroke="#263238" stroke-linecap="round" stroke-linejoin="round"/>
<path d="M238.12 114.773C238.12 114.773 221.856 97.9842 210.31 96.4081C198.763 94.8323 195.096 104.803 189.318 107.429C183.54 110.056 178.307 105.853 170.953 106.904C163.599 107.955 163.084 111.621 157.841 112.147C152.599 112.672 148.921 109.057 143.153 110.087C137.385 111.117 134.244 117.42 131.092 117.42C127.94 117.42 122.698 113.743 116.93 113.743C111.161 113.743 102.242 118.996 102.242 118.996L66.5625 123.188H264.878C261.776 119.977 258.017 117.472 253.859 115.844C247.039 113.197 244.412 114.773 238.12 114.773Z" fill="white" stroke="#263238" stroke-linecap="round" stroke-linejoin="round"/>
<path d="M455.819 446.898C455.819 446.898 432.427 422.755 415.825 420.489C399.221 418.222 393.947 432.56 385.645 436.339C377.344 440.121 369.794 434.073 359.237 435.578C348.679 437.081 347.907 442.375 340.367 443.129C332.828 443.88 327.544 438.596 319.242 440.111C310.94 441.624 306.407 450.677 301.886 450.677C297.365 450.677 289.814 445.393 281.512 445.393C273.21 445.393 260.377 452.934 260.377 452.934L209.094 458.969H494.3C489.843 454.348 484.438 450.747 478.459 448.411C468.654 444.631 464.872 446.898 455.819 446.898Z" fill="white" stroke="#263238" stroke-linecap="round" stroke-linejoin="round"/>
<path d="M350.875 117.122V74.8711" stroke="#263238" stroke-linecap="round" stroke-linejoin="round"/>
<path d="M377.805 109.962V102.145C379.428 103.024 380.805 104.295 381.812 105.842C381.985 106.17 382.123 106.515 382.223 106.872C381.231 106.725 380.221 106.964 379.4 107.538C378.578 108.113 378.007 108.98 377.805 109.962Z" fill="#263238" stroke="#263238" stroke-linecap="round" stroke-linejoin="round"/>
<path d="M360.909 79.5574C354.822 79.784 351.639 77.4046 350.836 76.7764V88.4154L351.042 101.908C352.856 104.762 365.587 104.762 372.869 104.762C380.151 104.762 382.221 106.822 382.221 106.822V81.3701C378.327 77.7444 367.923 79.3101 360.909 79.5574Z" fill="#0094D9" stroke="#263238" stroke-miterlimit="10"/>
<path d="M382.217 82.4928C381.161 81.7089 379.886 81.2765 378.572 81.2568C374.069 81.2568 370.414 86.4068 370.414 92.8548C370.414 99.3025 374.069 104.442 378.572 104.442C379.886 104.423 381.161 103.99 382.217 103.206V82.4928Z" fill="white" stroke="#263238" stroke-linecap="round" stroke-linejoin="round"/>
<path d="M382.226 106.842C382.226 106.842 377.685 106.502 377.807 109.932C377.869 111.57 379.867 112.785 387.161 112.27C394.453 111.755 405.639 113.393 405.639 113.393L398.614 100.94L409.006 96.8201C405.244 94.0172 401.032 91.872 396.554 90.4751C391.9 89.0734 387.053 88.4336 382.196 88.5801L382.226 106.842Z" fill="#0094D9" stroke="#263238" stroke-miterlimit="10"/>
<path d="M371.406 45.876V59.1319" stroke="#263238" stroke-linecap="round" stroke-linejoin="round"/>
<path d="M371.406 124.126V137.382" stroke="#263238" stroke-linecap="round" stroke-linejoin="round"/>
<path d="M322.18 64.1797L337.321 76.169" stroke="#263238" stroke-linecap="round" stroke-linejoin="round"/>
<path d="M418.105 64.1797L402.953 76.169" stroke="#263238" stroke-linecap="round" stroke-linejoin="round"/>
<path d="M418.105 132.746L402.953 120.757" stroke="#263238" stroke-linecap="round" stroke-linejoin="round"/>
<path d="M321.555 132.746L336.696 120.757" stroke="#263238" stroke-linecap="round" stroke-linejoin="round"/>
<path d="M331.02 98.251H310.82" stroke="#263238" stroke-linecap="round" stroke-linejoin="round"/>
<path d="M434.508 98.251H414.32" stroke="#263238" stroke-linecap="round" stroke-linejoin="round"/>
<path d="M160.506 484.399L167.953 467.125C167.953 467.125 170.929 459.38 172.722 457.001C174.271 454.711 175.665 452.318 176.893 449.841L186.431 435.546L195.969 406.335L169.508 415.162L149.165 430.808L121.355 444.497L25.1328 464.067" fill="white"/>
<path d="M160.506 484.399L167.953 467.125C167.953 467.125 170.929 459.38 172.722 457.001C174.271 454.711 175.665 452.318 176.893 449.841L186.431 435.546L195.969 406.335L169.508 415.162L149.165 430.808L121.355 444.497L25.1328 464.067" stroke="#263238" stroke-linecap="round" stroke-linejoin="round"/>
<path d="M26.112 390.843H143.522L195.969 406.335L190.603 414.677L179.87 418.262L167.953 421.24L158.415 434.948L150.67 441.499L125.043 445.671L23.125 468.321" fill="white"/>
<path d="M26.112 390.843H143.522L195.969 406.335L190.603 414.677L179.87 418.262L167.953 421.24L158.415 434.948L150.67 441.499L125.043 445.671L23.125 468.321" stroke="#263238" stroke-linecap="round" stroke-linejoin="round"/>
<path d="M167.952 421.238L169.147 443.291L162.586 455.805L157.817 463.552L144.859 484.399" fill="white"/>
<path d="M167.952 421.238L169.147 443.291L162.586 455.805L157.817 463.552L144.859 484.399" stroke="#263238" stroke-linecap="round" stroke-linejoin="round"/>
<path d="M150.673 441.499L148.891 459.977L139.951 465.343L128.023 472.491" fill="white"/>
<path d="M150.673 441.499L148.891 459.977L139.951 465.343L128.023 472.491" stroke="#263238" stroke-linecap="round" stroke-linejoin="round"/>
<path opacity="0.21" d="M135.664 415.75C135.664 419.345 116.32 422.248 92.4553 422.248C68.5904 422.248 49.1953 419.345 49.1953 415.75C49.1953 412.155 68.5491 409.251 92.4553 409.251C116.362 409.251 135.664 412.165 135.664 415.75Z" fill="black"/>
<path d="M159.746 175.873C159.746 175.873 162.485 173.627 164.102 172.515C165.72 171.402 168.593 168.271 168.84 167.025C169.088 165.778 170.458 158.301 170.458 158.301C169.496 158.245 168.532 158.329 167.594 158.548C165.73 158.929 164.102 159.423 164.102 159.423L159.117 165.408L159.746 175.873Z" fill="white" stroke="#263238" stroke-miterlimit="10"/>
<path d="M166.468 158.805C166.468 158.805 166.097 160.865 166.838 161.545C167.58 162.225 171.824 162.287 172.452 161.04C173.08 159.794 173.204 157.683 172.452 157.683C171.7 157.683 166.468 158.805 166.468 158.805Z" fill="white" stroke="#263238" stroke-miterlimit="10"/>
<path d="M169.594 162.544C169.594 162.544 163.734 162.791 163.487 163.574C163.24 164.357 162.858 165.819 163.24 166.066C163.621 166.314 169.718 166.324 170.336 165.572C170.954 164.82 171.83 161.792 169.594 162.544Z" fill="white" stroke="#263238" stroke-miterlimit="10"/>
<path d="M169.202 165.902C169.202 165.902 163.351 166.149 163.094 166.932C162.836 167.715 162.476 169.177 162.846 169.425C163.217 169.672 169.325 169.672 169.953 168.93C170.582 168.189 171.447 165.16 169.202 165.902Z" fill="white" stroke="#263238" stroke-miterlimit="10"/>
<path d="M167.496 169.115C167.496 169.115 163.067 169.3 162.882 169.867C162.696 170.433 162.408 171.566 162.686 171.752C162.964 171.937 167.588 171.937 168.052 171.371C168.515 170.804 169.185 168.548 167.496 169.115Z" fill="white" stroke="#263238" stroke-miterlimit="10"/>
<path d="M193.505 154.118L153.335 160.184H152.84H152.438C151.634 160.089 150.892 159.706 150.349 159.105C149.805 158.504 149.499 157.727 149.485 156.917C149.471 156.108 149.751 155.32 150.273 154.702C150.796 154.083 151.525 153.674 152.325 153.551L190.857 147.752L192.495 147.505C192.933 147.425 193.384 147.433 193.819 147.529C194.254 147.625 194.666 147.807 195.029 148.065C195.393 148.323 195.701 148.651 195.936 149.031C196.171 149.409 196.327 149.832 196.396 150.272C196.465 150.713 196.445 151.162 196.337 151.595C196.229 152.028 196.035 152.434 195.768 152.791C195.5 153.147 195.164 153.447 194.779 153.671C194.393 153.895 193.967 154.04 193.525 154.097L193.505 154.118Z" fill="white" stroke="#263238" stroke-miterlimit="10"/>
<path d="M190.651 154.437L152.438 160.205C151.634 160.11 150.892 159.727 150.349 159.126C149.805 158.525 149.499 157.748 149.485 156.938C149.471 156.129 149.751 155.341 150.273 154.723C150.796 154.104 151.525 153.695 152.325 153.572L190.857 147.773C191.633 147.942 192.324 148.377 192.812 149.003C193.299 149.629 193.552 150.407 193.525 151.2C193.498 151.993 193.193 152.751 192.664 153.343C192.135 153.935 191.416 154.322 190.631 154.437H190.651Z" fill="#B5B5B5" stroke="#263238" stroke-miterlimit="10"/>
<path d="M125.224 163.43C124.617 163.44 124.028 163.217 123.58 162.808C123.131 162.398 122.856 161.832 122.811 161.226C122.766 160.62 122.955 160.02 123.339 159.548C123.722 159.077 124.272 158.771 124.874 158.692L152.447 154.499C152.766 154.432 153.095 154.43 153.415 154.494C153.734 154.558 154.037 154.687 154.305 154.873C154.573 155.058 154.8 155.297 154.972 155.573C155.145 155.85 155.258 156.159 155.307 156.481C155.356 156.803 155.338 157.132 155.254 157.447C155.171 157.762 155.025 158.057 154.823 158.313C154.622 158.569 154.37 158.782 154.084 158.937C153.798 159.092 153.483 159.188 153.158 159.217L125.544 163.337L125.224 163.43Z" fill="#B5B5B5" stroke="#263238" stroke-miterlimit="10"/>
<path d="M152.758 177.623C152.758 177.623 156.002 166.653 156.249 164.655C156.497 162.657 158.742 160.916 158.742 160.916C158.742 160.916 162.862 157.559 163.892 155.766C164.922 153.974 165.767 156.137 165.767 157.641C165.767 159.145 160.905 163.749 160.905 163.749C161.345 165.785 161.634 167.85 161.77 169.929C161.574 171.683 161.024 173.379 160.153 174.914L157.784 181.764L152.758 177.623Z" fill="white" stroke="#263238" stroke-miterlimit="10"/>
<path d="M151.515 175.996L160.867 182.856L157.499 188.583L148.898 181.363L151.515 175.996Z" fill="white" stroke="#263238" stroke-miterlimit="10"/>
<path d="M149.141 180.115L160.739 189.457C160.739 189.457 136.431 225.353 134.938 226.351C133.566 227.097 132.096 227.64 130.57 227.969L124.844 210.274L149.141 180.115Z" fill="#F5F8FF" stroke="#263238" stroke-miterlimit="10"/>
<path d="M115.75 184.473L121.477 188.088H118.49L116.997 189.458L114.247 189.211L113.258 185.966L115.75 184.473Z" fill="white" stroke="#263238" stroke-linecap="round" stroke-linejoin="round"/>
<path d="M122.969 147.083C122.969 147.083 126.46 155.808 125.966 156.683C125.471 157.559 124.72 158.928 124.936 159.773C125.152 160.618 128.675 164.923 128.304 165.634C127.449 166.885 126.532 168.092 125.554 169.249C125.554 169.249 124.308 174.852 124.524 175.357C124.74 175.862 125.894 177.221 125.142 178.591C124.39 179.961 122.474 180.249 121.228 180.249C120.269 180.227 119.313 180.144 118.364 180.002L114.749 186.852L94.4375 179.127L97.5275 172.267C96.1466 168.647 95.927 164.687 96.8993 160.937C98.5266 154.582 110.742 147.228 115.851 146.517C120.96 145.806 122.969 147.083 122.969 147.083Z" fill="white" stroke="#263238" stroke-linecap="round" stroke-linejoin="round"/>
<path d="M118.25 148.701C118.25 148.701 121.485 152.944 120.867 154.191C119.76 155.719 118.508 157.137 117.128 158.424C117.128 158.424 118.158 162.791 117.622 163.285C117.298 163.558 116.918 163.756 116.508 163.865C116.099 163.973 115.67 163.99 115.253 163.914C114.759 163.656 111.638 157.734 109.65 159.052C107.662 160.371 107.281 163.656 108.146 165.531C108.599 166.534 109.143 167.492 109.774 168.394C109.774 168.394 104.788 173.009 102.049 173.544C99.3087 174.08 97.187 174.296 96.4351 173.173C95.6833 172.051 91.0791 161.957 90.9555 154.85C90.8319 147.743 95.5596 141.769 98.4332 140.43C101.307 139.091 106.776 138.936 106.776 138.936C106.776 138.936 107.157 135.692 111.02 135.846C114.882 136.001 118.868 139.091 118.868 139.091C118.868 139.091 117.622 134.6 120.609 137.216C123.596 139.832 125.759 141.336 125.1 145.456C124.441 149.576 118.25 148.701 118.25 148.701Z" fill="#263238" stroke="#263238" stroke-linecap="round" stroke-linejoin="round"/>
<path d="M109.766 168.395L112.506 169.146L113.628 171.392" stroke="#263238" stroke-linecap="round" stroke-linejoin="round"/>
<path d="M121.237 180.25C120.372 179.812 119.539 179.313 118.744 178.757C117.714 178.005 115.5 176.388 115.5 176.388L116.746 182.362L118.374 180.003L121.237 180.25Z" fill="#263238" stroke="#263238" stroke-linecap="round" stroke-linejoin="round"/>
<path d="M89.5759 177.241L88.4531 182.474L113.122 189.333L125.09 199.675L115.491 188.211L113.997 184.595L89.5759 177.241Z" fill="white" stroke="#263238" stroke-linecap="round" stroke-linejoin="round"/>
<path d="M117 189.458C117 189.458 123.911 191.848 129.185 206.135C134.459 220.42 149.26 277.307 149.26 277.307L141.092 279.367C138.598 265.622 135.247 252.048 131.06 238.724C124.632 218.885 117 189.458 117 189.458Z" fill="#F5F8FF" stroke="#263238" stroke-linecap="round" stroke-linejoin="round"/>
<path d="M142.276 274.318C142.276 274.318 139.485 304.539 138.311 319.021C137.136 333.503 125.59 372.653 124.22 377.938C122.85 383.22 122.263 399.463 122.263 399.463L124.22 400.834V402.399L130.874 406.705C130.874 406.705 140.659 410.238 138.506 412.39C136.354 414.543 132.44 413.761 126.96 413.761C121.48 413.761 115.63 411.803 113.848 411.803C112.41 411.861 110.97 411.795 109.543 411.607C108.76 411.413 106.999 412.194 106.999 410.433C106.686 407.603 106.229 404.792 105.629 402.008C105.629 402.008 104.032 399.64 104.032 398.095C104.032 396.55 104.424 391.245 105.206 389.288C105.989 387.33 107.163 379.503 107.163 379.503L108.338 358.955L101.488 373.828L95.6171 398.485C95.6171 398.485 98.5526 399.463 98.5526 400.247C98.5526 401.03 97.9656 404.551 97.9656 404.551C97.9656 404.551 101.684 408.27 103.445 409.701C106.92 411.92 110.513 413.943 114.209 415.769C114.796 415.965 117.299 418.118 115.774 419.095C114.25 420.073 106.381 420.66 100.118 420.66C93.8558 420.66 85.8218 417.921 85.8218 417.921L84.0606 419.095L77.6025 417.53C76.8196 417.334 76.4282 413.811 76.5725 412.443C76.6717 411.2 76.6717 409.954 76.5725 408.713C76.5725 407.93 75.9853 403.82 76.3767 402.451C76.7681 401.08 78.1381 397.363 78.1381 397.363C78.1381 397.363 81.0736 365.66 81.8563 360.766C82.6391 355.875 88.0055 345.05 88.0055 345.05C88.0055 345.05 90.7556 325.86 91.0955 322.141C91.4353 318.424 91.6826 304.333 91.6826 304.333C89.8018 299.565 88.2934 294.658 87.1711 289.656C85.997 283.394 86.9755 282.023 86.9755 282.023L89.6122 272.238L142.276 274.318Z" fill="#263238" stroke="#263238" stroke-linecap="round" stroke-linejoin="round"/>
<path d="M112.18 353.815C112.18 353.815 118.143 333.947 119.132 327.983C120.121 322.02 126.754 299.494 126.754 299.494L133.047 295.188" stroke="#8C8C8C" stroke-linecap="round" stroke-linejoin="round"/>
<path d="M89.3203 350.837C89.3203 350.837 103.565 342.226 111.846 327.323" stroke="#8C8C8C" stroke-linecap="round" stroke-linejoin="round"/>
<path d="M113.824 318.372C113.824 318.372 105.214 331.628 99.25 336.912" stroke="#8C8C8C" stroke-linecap="round" stroke-linejoin="round"/>
<path d="M128.958 209.275C128.958 209.275 139.052 257.314 140.412 263.773C141.771 270.231 142.276 274.321 142.276 274.321C140.201 274.73 138.102 275.012 135.993 275.165C134.118 275.165 130.039 275 130.039 275L123.859 206.64L128.958 209.275Z" fill="white" stroke="#263238" stroke-linecap="round" stroke-linejoin="round"/>
<path d="M85.4891 180.61V185.843C85.4891 185.843 79.7621 208.781 80.5038 216.001C81.2454 223.221 88.3626 246.416 88.3626 246.416C88.3626 246.416 86.6116 249.28 86.488 249.651C86.6014 250.749 86.8116 251.835 87.1164 252.895L80.7304 284.28C80.7304 284.28 105.028 289.43 120.983 288.019C136.938 286.608 138.019 285.795 138.019 285.795C138.019 285.795 135.959 256.139 136.062 249.158C136.165 242.174 130.325 212.643 128.955 209.274C127.585 205.908 125.093 199.676 125.093 199.676L113.124 189.376L85.4891 180.61Z" fill="#F5F8FF" stroke="#263238" stroke-linecap="round" stroke-linejoin="round"/>
<path d="M103.907 217.999C103.907 217.999 90.7028 229.968 88.8281 230.72" stroke="#263238" stroke-linecap="round" stroke-linejoin="round"/>
<path d="M107.762 217.629C107.762 217.629 104.023 223.737 102.406 226.476" stroke="#263238" stroke-linecap="round" stroke-linejoin="round"/>
<path d="M106.15 227.095L102.164 234.695" stroke="#263238" stroke-linecap="round" stroke-linejoin="round"/>
<path d="M130.32 172.01C130.32 172.01 130.701 163.162 131.072 161.71C132.143 159.034 133.35 156.414 134.687 153.861C134.687 153.861 136.675 152.234 137.551 152.831C138.426 153.429 138.303 154.891 138.303 154.891C138.303 154.891 139.796 152.831 140.672 153.027C141.547 153.223 142.412 155.025 142.412 155.025C143.301 154.756 144.242 154.71 145.152 154.891C146.182 155.272 146.903 155.025 146.646 156.137C146.388 157.25 143.906 163.347 143.906 163.347C143.906 163.347 149.138 161.36 149.138 162.317C149.138 163.275 148.273 163.697 147.15 164.439C146.028 165.181 141.918 167.302 141.918 167.302L138.828 170.392L138.334 173.256L130.32 172.01Z" fill="white" stroke="#263238" stroke-linecap="round" stroke-linejoin="round"/>
<path d="M130.809 176.624L130.305 172.01C131.474 171.644 132.696 171.477 133.92 171.515C135.825 171.82 137.702 172.278 139.534 172.885L139.781 177.623L130.809 176.624Z" fill="white" stroke="#263238" stroke-linecap="round" stroke-linejoin="round"/>
<path d="M88.4575 195.566C88.4575 195.566 93.4426 194.196 94.9361 194.072C96.4296 193.949 128.586 196.936 128.586 196.936L130.203 175.007C131.403 174.792 132.636 174.834 133.819 175.131L142.913 177.747C142.913 177.747 143.418 200.407 143.418 205.557V213.91C142.443 214.274 141.441 214.565 140.421 214.775C139.051 215.034 105.03 217.865 98.7986 217.865C92.5671 217.865 85.9649 218.36 84.4609 212.016" fill="#F5F8FF"/>
<path d="M88.4575 195.566C88.4575 195.566 93.4426 194.196 94.9361 194.072C96.4296 193.949 128.586 196.936 128.586 196.936L130.203 175.007C131.403 174.792 132.636 174.834 133.819 175.131L142.913 177.747C142.913 177.747 143.418 200.407 143.418 205.557V213.91C142.443 214.274 141.441 214.565 140.421 214.775C139.051 215.034 105.03 217.865 98.7986 217.865C92.5671 217.865 85.9649 218.36 84.4609 212.016" stroke="#263238" stroke-linecap="round" stroke-linejoin="round"/>
</svg>
